<?xml version="1.0" encoding="UTF-8"?><svg id="Layer_1" xmlns="http://www.w3.org/2000/svg" viewBox="0 0 159.54 126.75"><defs><style>.cls-1{fill:#fff;}</style></defs><g id="_03"><path class="cls-1" d="M157.61,0H1.94C.87,0,0,.87,0,1.94v100.63c0,1.07.87,1.94,1.94,1.94h58.83v12.58h-14.36c-1.07,0-1.94.87-1.94,1.94v5.81c0,1.07.87,1.94,1.94,1.94h66.74c1.07,0,1.94-.87,1.94-1.94v-5.81c0-1.07-.87-1.94-1.94-1.94h-14.36v-12.58h58.83c1.07,0,1.94-.87,1.94-1.94V1.94c0-1.07-.87-1.94-1.94-1.94ZM155.67,3.87v74.18H3.87V3.87h151.8ZM111.21,122.88h-62.87v-1.94h62.87v1.94ZM94.91,117.08h-30.27v-12.58h30.27v12.58ZM3.87,100.63v-18.71h151.8v18.71H3.87ZM42.55,71.82h9.06c1.07,0,1.94-.87,1.94-1.94V22.15c0-1.07-.87-1.94-1.94-1.94h-9.06c-1.07,0-1.94.87-1.94,1.94v47.73c0,1.07.87,1.94,1.94,1.94ZM44.49,24.08h5.19v43.86h-5.19V24.08ZM58.9,71.82h9.06c1.07,0,1.94-.87,1.94-1.94V31.61c0-1.07-.87-1.94-1.94-1.94h-9.06c-1.07,0-1.94.87-1.94,1.94v38.27c0,1.07.87,1.94,1.94,1.94ZM60.83,33.54h5.19v34.4h-5.19v-34.4ZM75.24,71.82h9.06c1.07,0,1.94-.87,1.94-1.94v-29.89c0-1.07-.87-1.94-1.94-1.94h-9.06c-1.07,0-1.94.87-1.94,1.94v29.89c0,1.07.87,1.94,1.94,1.94ZM77.18,41.93h5.19v26.02h-5.19v-26.02ZM91.59,71.82h9.06c1.07,0,1.94-.87,1.94-1.94V22.15c0-1.07-.87-1.94-1.94-1.94h-9.06c-1.07,0-1.94.87-1.94,1.94v47.73c0,1.07.87,1.94,1.94,1.94ZM93.52,24.08h5.19v43.86h-5.19V24.08ZM107.93,71.82h9.06c1.07,0,1.93-.87,1.93-1.94V29.67c0-1.07-.87-1.94-1.93-1.94h-9.06c-1.07,0-1.94.87-1.94,1.94v40.21c0,1.07.87,1.94,1.94,1.94ZM109.87,31.61h5.19v36.34h-5.19V31.61Z"/></g></svg>