<?xml version="1.0" encoding="UTF-8"?><svg id="Layer_1" xmlns="http://www.w3.org/2000/svg" viewBox="0 0 135.03 135.03"><defs><style>.cls-1{fill:#fff;}</style></defs><g id="Layer_1-2"><path class="cls-1" d="M117.76,74.91h-25.58c-9.53,0-17.27,7.75-17.27,17.27v25.58c0,9.53,7.75,17.27,17.27,17.27h25.58c9.53,0,17.27-7.75,17.27-17.27v-25.58c0-9.53-7.75-17.27-17.27-17.27ZM124.84,117.76c0,3.87-3.21,7.08-7.08,7.08h-25.58c-3.87,0-7.08-3.21-7.08-7.08v-25.58c0-3.92,3.21-7.08,7.08-7.08h25.58c3.87,0,7.08,3.16,7.08,7.08v25.58Z"/><path class="cls-1" d="M117.76,0h-25.58c-9.53,0-17.27,7.75-17.27,17.27v25.58c0,9.53,7.75,17.27,17.27,17.27h25.58c9.53,0,17.27-7.75,17.27-17.27v-25.58C135.03,7.75,127.29,0,117.76,0ZM124.84,42.85c0,3.92-3.21,7.08-7.08,7.08h-25.58c-3.87,0-7.08-3.16-7.08-7.08v-25.58c0-3.87,3.21-7.08,7.08-7.08h25.58c3.87,0,7.08,3.21,7.08,7.08v25.58Z"/><path class="cls-1" d="M42.85,74.91h-25.58c-9.53,0-17.27,7.75-17.27,17.27v25.58c0,9.53,7.75,17.27,17.27,17.27h25.58c9.53,0,17.27-7.75,17.27-17.27v-25.58c0-9.53-7.75-17.27-17.27-17.27ZM49.94,117.76c0,3.87-3.16,7.08-7.08,7.08h-25.58c-3.87,0-7.08-3.21-7.08-7.08v-25.58c0-3.92,3.21-7.08,7.08-7.08h25.58c3.92,0,7.08,3.16,7.08,7.08v25.58Z"/><path class="cls-1" d="M42.85,0h-25.58C7.75,0,0,7.75,0,17.27v25.58c0,9.53,7.75,17.27,17.27,17.27h25.58c9.53,0,17.27-7.75,17.27-17.27v-25.58C60.13,7.75,52.38,0,42.85,0ZM49.94,42.85c0,3.92-3.16,7.08-7.08,7.08h-25.58c-3.87,0-7.08-3.16-7.08-7.08v-25.58c0-3.87,3.21-7.08,7.08-7.08h25.58c3.92,0,7.08,3.21,7.08,7.08v25.58Z"/></g></svg>