<?xml version="1.0" encoding="UTF-8" standalone="no"?>
<!-- Created with Inkscape (http://www.inkscape.org/) -->

<svg
   version="1.1"
   id="svg900"
   xml:space="preserve"
   width="682.66669"
   height="682.66669"
   viewBox="0 0 682.66669 682.66669"
   xmlns="http://www.w3.org/2000/svg"
   xmlns:svg="http://www.w3.org/2000/svg"><defs
     id="defs904"><clipPath
       clipPathUnits="userSpaceOnUse"
       id="clipPath922"><path
         d="M 0,512 H 512 V 0 H 0 Z"
         id="path920" /></clipPath></defs><g
     id="g906"
     transform="matrix(1.3333333,0,0,-1.3333333,0,682.66667)"><g
       id="g908"
       transform="translate(354.4951,420.3716)"><path
         d="M 0,0 H 101.588"
         style="fill:none;stroke:#000000;stroke-width:15;stroke-linecap:round;stroke-linejoin:round;stroke-miterlimit:10;stroke-dasharray:none;stroke-opacity:1"
         id="path910" /></g><g
       id="g912"
       transform="translate(354.4951,381.6899)"><path
         d="M 0,0 H 50.794"
         style="fill:none;stroke:#000000;stroke-width:15;stroke-linecap:round;stroke-linejoin:round;stroke-miterlimit:10;stroke-dasharray:none;stroke-opacity:1"
         id="path914" /></g><g
       id="g916"><g
         id="g918"
         clip-path="url(#clipPath922)"><g
           id="g924"
           transform="translate(464.2539,53.9951)"><path
             d="m 0,0 h -416.508 c -22.227,0 -40.246,18.019 -40.246,40.246 0,6.915 5.605,12.52 12.52,12.52 H 27.727 c 6.914,0 12.519,-5.605 12.519,-12.52 C 40.246,18.019 22.228,0 0,0 Z"
             style="fill:none;stroke:#000000;stroke-width:15;stroke-linecap:round;stroke-linejoin:round;stroke-miterlimit:10;stroke-dasharray:none;stroke-opacity:1"
             id="path926" /></g><g
           id="g928"
           transform="translate(186,106.7607)"><path
             d="m 0,0 v -5.436 c 0,-11.568 9.378,-20.947 20.947,-20.947 h 98.106 c 11.569,0 20.947,9.379 20.947,20.947 V 0"
             style="fill:none;stroke:#000000;stroke-width:15;stroke-linecap:round;stroke-linejoin:round;stroke-miterlimit:10;stroke-dasharray:none;stroke-opacity:1"
             id="path930" /></g><g
           id="g932"
           transform="translate(361.6694,106.7607)"><path
             d="M 0,0 -1.95,28.813 C -3.034,44.833 -14.655,58.17 -30.376,61.437 L -81.562,72.073"
             style="fill:none;stroke:#000000;stroke-width:15;stroke-linecap:round;stroke-linejoin:round;stroke-miterlimit:10;stroke-dasharray:none;stroke-opacity:1"
             id="path934" /></g><g
           id="g936"
           transform="translate(232.8516,178.8335)"><path
             d="M 0,0 -51.186,-10.636 C -66.907,-13.902 -78.528,-27.24 -79.612,-43.26 l -1.95,-28.813"
             style="fill:none;stroke:#000000;stroke-width:15;stroke-linecap:round;stroke-linejoin:round;stroke-miterlimit:10;stroke-dasharray:none;stroke-opacity:1"
             id="path938" /></g><g
           id="g940"
           transform="translate(232.8516,201.1787)"><path
             d="m 0,0 v -22.345 c 0,-13.05 10.579,-23.628 23.628,-23.628 v 0 c 13.05,0 23.628,10.578 23.628,23.628 v 21.691"
             style="fill:none;stroke:#000000;stroke-width:15;stroke-linecap:round;stroke-linejoin:round;stroke-miterlimit:10;stroke-dasharray:none;stroke-opacity:1"
             id="path942" /></g><g
           id="g944"
           transform="translate(314.8579,263.0615)"><path
             d="m 0,0 c 0,0 -11.301,3.37 -19.853,12.852 -5.096,5.65 -13.337,7.133 -19.962,3.391 -17.132,-9.677 -48.493,-22.891 -75.979,-10.05 v 16.898 c 0,22.02 17.85,39.87 39.87,39.87 h 23.707 c 5.261,0 10.377,-1.724 14.565,-4.908 4.038,-3.071 8.942,-4.786 14.013,-4.903 C -10.497,52.849 0,42.108 0,28.962 Z"
             style="fill:none;stroke:#000000;stroke-width:15;stroke-linecap:round;stroke-linejoin:round;stroke-miterlimit:10;stroke-dasharray:none;stroke-opacity:1"
             id="path946" /></g><g
           id="g948"
           transform="translate(199.0635,269.2544)"><path
             d="m 0,0 v -18.67 c 0,-6.385 5.176,-11.561 11.561,-11.561 0.261,-12.175 5.377,-23.893 14.62,-31.851 7.441,-6.407 17.9,-14.391 31.716,-14.545 13.817,0.154 24.276,8.138 31.717,14.545 9.242,7.958 14.358,19.676 14.619,31.851 6.386,0 11.561,5.176 11.561,11.561 v 12.477"
             style="fill:none;stroke:#000000;stroke-width:15;stroke-linecap:round;stroke-linejoin:round;stroke-miterlimit:10;stroke-dasharray:none;stroke-opacity:1"
             id="path950" /></g><g
           id="g952"
           transform="translate(433.3018,106.7607)"><path
             d="M 0,0 V 236.11"
             style="fill:none;stroke:#000000;stroke-width:15;stroke-linecap:round;stroke-linejoin:round;stroke-miterlimit:10;stroke-dasharray:none;stroke-opacity:1"
             id="path954" /></g><g
           id="g956"
           transform="translate(78.6982,217.2622)"><path
             d="M 0,0 V -110.501"
             style="fill:none;stroke:#000000;stroke-width:15;stroke-linecap:round;stroke-linejoin:round;stroke-miterlimit:10;stroke-dasharray:none;stroke-opacity:1"
             id="path958" /></g><g
           id="g960"
           transform="translate(313.4771,357.8198)"><path
             d="m 0,0 h -224.568 c -5.64,0 -10.211,-4.571 -10.211,-10.211 v -99.964"
             style="fill:none;stroke:#000000;stroke-width:15;stroke-linecap:round;stroke-linejoin:round;stroke-miterlimit:10;stroke-dasharray:none;stroke-opacity:1"
             id="path962" /></g><g
           id="g964"
           transform="translate(465.4409,106.7607)"><path
             d="M 0,0 V 207.11"
             style="fill:none;stroke:#000000;stroke-width:15;stroke-linecap:round;stroke-linejoin:round;stroke-miterlimit:10;stroke-dasharray:none;stroke-opacity:1"
             id="path966" /></g><g
           id="g968"
           transform="translate(283,388.5298)"><path
             d="m 0,0 h -205.173 c -17.268,0 -31.268,-13.999 -31.268,-31.268 v -250.501"
             style="fill:none;stroke:#000000;stroke-width:15;stroke-linecap:round;stroke-linejoin:round;stroke-miterlimit:10;stroke-dasharray:none;stroke-opacity:1"
             id="path970" /></g><g
           id="g972"
           transform="translate(474.4365,458.0049)"><path
             d="m 0,0 h -139.559 c -12.583,0 -22.783,-10.201 -22.783,-22.784 V -92.35 c 0,-12.583 10.2,-22.784 22.783,-22.784 h 15.072 l -16.882,-34.299 c -2.393,-4.862 2.954,-9.885 7.658,-7.192 l 72.48,41.491 H 0 c 12.583,0 22.783,10.201 22.783,22.784 v 69.566 C 22.783,-10.201 12.583,0 0,0 Z"
             style="fill:none;stroke:#000000;stroke-width:15;stroke-linecap:round;stroke-linejoin:round;stroke-miterlimit:10;stroke-dasharray:none;stroke-opacity:1"
             id="path974" /></g></g></g></g></svg>
