<svg id="Capa_1" enable-background="new 0 0 512 512" height="512" viewBox="0 0 512 512" width="512" xmlns="http://www.w3.org/2000/svg"><g><path d="m489.5 388.3h-8.56v-262.06c0-9.649-7.851-17.5-17.5-17.5h-60.16v-54.66c0-4.142-3.357-7.5-7.5-7.5h-48.63c-4.143 0-7.5 3.358-7.5 7.5s3.357 7.5 7.5 7.5h41.13v326.65h-264.56v-326.65h190.74c4.143 0 7.5-3.358 7.5-7.5s-3.357-7.5-7.5-7.5h-198.24c-4.143 0-7.5 3.358-7.5 7.5v54.66h-60.16c-9.649 0-17.5 7.851-17.5 17.5v262.06h-8.56c-12.406 0-22.5 10.093-22.5 22.5v32.12c0 12.407 10.094 22.5 22.5 22.5h356.94c4.143 0 7.5-3.358 7.5-7.5s-3.357-7.5-7.5-7.5h-356.94c-4.136 0-7.5-3.364-7.5-7.5v-32.12c0-4.136 3.364-7.5 7.5-7.5h163.876v23.562c0 4.142 3.357 7.5 7.5 7.5h124.248c4.143 0 7.5-3.358 7.5-7.5v-23.562h163.876c4.136 0 7.5 3.364 7.5 7.5v32.12c0 4.136-3.364 7.5-7.5 7.5h-77.38c-4.143 0-7.5 3.358-7.5 7.5s3.357 7.5 7.5 7.5h77.38c12.406 0 22.5-10.093 22.5-22.5v-32.12c0-12.407-10.094-22.5-22.5-22.5zm-419.87-166.48c-4.143 0-7.5 3.358-7.5 7.5v158.98h-16.07v-262.06c0-1.378 1.121-2.5 2.5-2.5h60.16v16.06h-39.09c-4.143 0-7.5 3.358-7.5 7.5v49.33c0 4.142 3.357 7.5 7.5 7.5s7.5-3.358 7.5-7.5v-41.83h31.59v233.5h-31.59v-158.98c0-4.142-3.358-7.5-7.5-7.5zm240.994 197.542h-109.248v-16.062h109.248zm92.656-31.062v-233.5h31.59v233.5zm46.59 0v-241c0-4.142-3.357-7.5-7.5-7.5h-39.09v-16.06h60.16c1.379 0 2.5 1.122 2.5 2.5v262.06z"/><path d="m256 81.225c-46.946 0-85.14 38.193-85.14 85.14s38.193 85.14 85.14 85.14 85.14-38.194 85.14-85.14-38.194-85.14-85.14-85.14zm0 155.28c-38.675 0-70.14-31.465-70.14-70.14s31.465-70.14 70.14-70.14 70.14 31.464 70.14 70.14-31.465 70.14-70.14 70.14z"/><path d="m302.594 143.35h-23.563v-23.563c0-4.142-3.357-7.5-7.5-7.5h-31.063c-4.143 0-7.5 3.358-7.5 7.5v23.563h-23.563c-4.143 0-7.5 3.358-7.5 7.5v31.062c0 4.142 3.357 7.5 7.5 7.5h23.563v23.563c0 4.142 3.357 7.5 7.5 7.5h31.063c4.143 0 7.5-3.358 7.5-7.5v-23.563h23.563c4.143 0 7.5-3.358 7.5-7.5v-31.062c0-4.142-3.358-7.5-7.5-7.5zm-7.5 31.062h-23.563c-4.143 0-7.5 3.358-7.5 7.5v23.563h-16.063v-23.563c0-4.142-3.357-7.5-7.5-7.5h-23.563v-16.062h23.563c4.143 0 7.5-3.358 7.5-7.5v-23.563h16.063v23.563c0 4.142 3.357 7.5 7.5 7.5h23.563z"/><path d="m318.124 264.05h-124.248c-4.143 0-7.5 3.358-7.5 7.5s3.357 7.5 7.5 7.5h124.248c4.143 0 7.5-3.358 7.5-7.5s-3.357-7.5-7.5-7.5z"/><path d="m318.124 295.074h-124.248c-4.143 0-7.5 3.358-7.5 7.5s3.357 7.5 7.5 7.5h124.248c4.143 0 7.5-3.358 7.5-7.5s-3.357-7.5-7.5-7.5z"/><path d="m318.124 326.175h-124.248c-4.143 0-7.5 3.358-7.5 7.5s3.357 7.5 7.5 7.5h124.248c4.143 0 7.5-3.358 7.5-7.5s-3.357-7.5-7.5-7.5z"/><path d="m318.124 357.199h-124.248c-4.143 0-7.5 3.358-7.5 7.5s3.357 7.5 7.5 7.5h124.248c4.143 0 7.5-3.358 7.5-7.5s-3.357-7.5-7.5-7.5z"/></g></svg>