<?xml version="1.0" encoding="UTF-8"?><svg id="Layer_1" xmlns="http://www.w3.org/2000/svg" viewBox="0 0 148.53 135.03"><defs><style>.cls-1{fill:#fff;}</style></defs><path class="cls-1" d="M10.89,115.07c6.01,0,10.89-4.89,10.89-10.89,0-1.95-.52-3.78-1.42-5.37l18.63-18.63c1.59.9,3.42,1.42,5.37,1.42,5,0,9.22-3.39,10.5-7.99h28.63c1.27,4.6,5.5,7.99,10.5,7.99,6.01,0,10.89-4.89,10.89-10.89,0-2.22-.67-4.29-1.82-6.01l16.86-16.86c1.56.86,3.34,1.35,5.24,1.35,6.01,0,10.89-4.89,10.89-10.89s-4.89-10.89-10.89-10.89-10.89,4.89-10.89,10.89c0,2,.55,3.88,1.49,5.5l-17.09,17.09c-1.42-.68-3.01-1.06-4.69-1.06-5,0-9.22,3.39-10.5,7.99h-28.63c-1.27-4.6-5.5-7.99-10.5-7.99-6.01,0-10.89,4.89-10.89,10.89,0,1.95.52,3.78,1.42,5.37l-18.63,18.63c-1.59-.9-3.42-1.42-5.37-1.42-6.01,0-10.89,4.89-10.89,10.89s4.89,10.89,10.89,10.89ZM125.17,33.2c2.81,0,5.09,2.28,5.09,5.09s-2.28,5.09-5.09,5.09-5.09-2.28-5.09-5.09,2.28-5.09,5.09-5.09ZM93.99,65.62c2.81,0,5.09,2.28,5.09,5.09s-2.28,5.09-5.09,5.09-5.09-2.28-5.09-5.09,2.28-5.09,5.09-5.09ZM44.37,65.62c2.81,0,5.09,2.28,5.09,5.09s-2.28,5.09-5.09,5.09-5.09-2.28-5.09-5.09,2.28-5.09,5.09-5.09ZM10.89,99.09c2.81,0,5.09,2.28,5.09,5.09s-2.28,5.09-5.09,5.09-5.09-2.28-5.09-5.09,2.28-5.09,5.09-5.09Z"/><path class="cls-1" d="M90.36,21.06h-6.46c-1.6,0-2.9,1.3-2.9,2.9s1.3,2.9,2.9,2.9h6.46c4.81,0,8.73-3.91,8.73-8.73v-9.42c0-4.81-3.91-8.73-8.73-8.73h-39.99c-4.81,0-8.73,3.91-8.73,8.73v37.56c0,1.6,1.3,2.9,2.9,2.9s2.9-1.3,2.9-2.9v-19.92c.91.33,1.9.51,2.92.51h7.01c1.6,0,2.9-1.3,2.9-2.9s-1.3-2.9-2.9-2.9h-7.01c-1.61,0-2.92-1.31-2.92-2.92v-9.42c0-1.61,1.31-2.92,2.92-2.92h39.99c1.61,0,2.92,1.31,2.92,2.92v9.42c0,1.61-1.31,2.92-2.92,2.92h0Z"/><path class="cls-1" d="M139.8,108.17h-39.99c-1.02,0-2.01.18-2.92.5v-18.54c0-1.6-1.3-2.9-2.9-2.9s-2.9,1.3-2.9,2.9v36.18c0,4.81,3.91,8.73,8.73,8.73h39.99c4.81,0,8.73-3.91,8.73-8.73v-9.42c0-4.81-3.91-8.73-8.73-8.73h0ZM142.73,126.31c0,1.61-1.31,2.92-2.92,2.92h-39.99c-1.61,0-2.92-1.31-2.92-2.92v-9.42c0-1.61,1.31-2.92,2.92-2.92h39.99c1.61,0,2.92,1.31,2.92,2.92v9.42Z"/><path class="cls-1" d="M30.78,12.51h-13.06c-1.6,0-2.9,1.3-2.9,2.9s1.3,2.9,2.9,2.9h13.06c1.6,0,2.9-1.3,2.9-2.9s-1.3-2.9-2.9-2.9Z"/><path class="cls-1" d="M30.78,25.59h-13.06c-1.6,0-2.9,1.3-2.9,2.9s1.3,2.9,2.9,2.9h13.06c1.6,0,2.9-1.3,2.9-2.9s-1.3-2.9-2.9-2.9Z"/><path class="cls-1" d="M30.78,39.49h-13.06c-1.6,0-2.9,1.3-2.9,2.9s1.3,2.9,2.9,2.9h13.06c1.6,0,2.9-1.3,2.9-2.9s-1.3-2.9-2.9-2.9Z"/><path class="cls-1" d="M66.76,100.27h13.06c1.6,0,2.9-1.3,2.9-2.9s-1.3-2.9-2.9-2.9h-13.06c-1.6,0-2.9,1.3-2.9,2.9s1.3,2.9,2.9,2.9h0Z"/><path class="cls-1" d="M66.76,113.34h13.06c1.6,0,2.9-1.3,2.9-2.9s-1.3-2.9-2.9-2.9h-13.06c-1.6,0-2.9,1.3-2.9,2.9s1.3,2.9,2.9,2.9h0Z"/><path class="cls-1" d="M66.76,127.25h13.06c1.6,0,2.9-1.3,2.9-2.9s-1.3-2.9-2.9-2.9h-13.06c-1.6,0-2.9,1.3-2.9,2.9s1.3,2.9,2.9,2.9h0Z"/><path class="cls-1" d="M72.78,22.35c-.92-1.35-2.81-1.69-4.14-.72-1.32.97-1.55,2.9-.52,4.17,2.25,2.76,6.61-.47,4.66-3.45Z"/></svg>