<?xml version="1.0" encoding="UTF-8"?>
<svg id="Layer_1" xmlns="http://www.w3.org/2000/svg" version="1.1" viewBox="0 0 918.7 183.6">
  <!-- Generator: Adobe Illustrator 29.3.0, SVG Export Plug-In . SVG Version: 2.1.0 Build 146)  -->
  <defs>
    <style>
      .st0 {
        fill: #9a5cd4;
      }

      .st1 {
        fill: #fff;
      }
    </style>
  </defs>
  <path class="st0" d="M154.5,108.5l29.1-16.8-29.1-16.8,16.8-29.1h-33.6V12.3l-29.1,16.8L91.7,0l-16.8,29.1-29.1-16.8v33.6H12.3l16.8,29.1L0,91.8l29.1,16.8-16.8,29.1h33.6v33.6l29.1-16.8,16.8,29.1,16.8-29.1,29.1,16.8v-33.6h33.6l-16.8-29.1h0ZM149.2,111.6l11.5,19.9h-23v-13.3s11.5-6.6,11.5-6.6ZM103.2,88.7l31.4-18.1,11.4,6.6-6.6,11.5s-36.2,0-36.2,0ZM139.5,94.8l6.6,11.4-11.5,6.6-31.4-18.1s36.3,0,36.3,0ZM137.6,65.2v-13.3h23l-11.5,19.9-11.5-6.6ZM151.4,103.2l-6.6-11.5,6.6-11.5,19.9,11.5-19.9,11.5h0ZM131.6,137.6v23l-19.9-11.5,6.6-11.5h13.3ZM131.6,118.3v13.2h-13.2l-18.2-31.4,31.4,18.1h0ZM88.7,103.2v36.3l-11.4,6.6-6.6-11.5s18.1-31.4,18.1-31.4ZM52,131.6v-13.2l31.4-18.2-18.1,31.4h-13.2ZM52,137.7h13.3l6.6,11.5-19.9,11.5v-23ZM52,45.9v-23l19.9,11.5-6.6,11.5s-13.3,0-13.3,0ZM52,65.2v-13.2h13.3l18.2,31.4-31.4-18.1h0ZM70.6,48.9l6.6-11.5,11.5,6.6v36.2c0,0-18.1-31.4-18.1-31.4ZM94.8,80.3v-36.3l11.4-6.6,6.6,11.5-18.1,31.4h0ZM80.2,32.2l11.5-19.9,11.5,19.9-11.5,6.7-11.5-6.6ZM103.3,151.4l-11.5,19.9-11.5-19.9,11.5-6.6,11.5,6.6h0ZM94.9,139.5v-36.2c0,0,18.1,31.4,18.1,31.4l-6.6,11.4s-11.5-6.6-11.5-6.6ZM131.5,52v13.3l-31.4,18.2,18.1-31.4h13.2ZM131.5,45.9h-13.3l-6.6-11.5,19.9-11.5v23ZM45.9,118.3v13.3h-23l11.5-19.9s11.5,6.6,11.5,6.6ZM45.9,52v13.3l-11.5,6.6-11.5-19.9h23ZM32.2,80.3l6.7,11.5-6.6,11.5-19.9-11.5s19.9-11.5,19.9-11.5ZM37.5,77.2l11.5-6.6,31.4,18.1h-36.3s-6.6-11.4-6.6-11.5ZM80.3,94.8l-31.4,18.1-11.5-6.6,6.6-11.5h36.2Z"/>
  <circle class="st1" cx="81.4" cy="52.8" r="1.8"/>
  <circle class="st1" cx="102.2" cy="130.7" r="1.8"/>
  <rect class="st1" x="91.2" y="50.6" width="1.2" height="81.9" transform="translate(-20.7 27) rotate(-15.1)"/>
  <circle class="st1" cx="74.4" cy="74.5" r="1.8"/>
  <circle class="st1" cx="109.1" cy="109.1" r="1.8"/>
  <polygon class="st1" points="108.7 109.5 74 74.9 74.9 74 109.6 108.7 108.7 109.5"/>
  <circle class="st1" cx="52.8" cy="81.3" r="1.8"/>
  <circle class="st1" cx="130.7" cy="102.2" r="1.8"/>
  <rect class="st1" x="91" y="50.7" width="1.2" height="81.9" transform="translate(-20.6 156.6) rotate(-75.1)"/>
  <circle class="st1" cx="68.1" cy="98.2" r="1.8"/>
  <circle class="st1" cx="115.4" cy="85.4" r="1.8"/>
  <rect class="st1" x="67.3" y="91.2" width="49" height="1.2" transform="translate(-20.7 27) rotate(-15.1)"/>
  <circle class="st1" cx="63.2" cy="120.3" r="1.8"/>
  <circle class="st1" cx="120.3" cy="63.3" r="1.8"/>
  <polygon class="st1" points="63.1 121.3 62.3 120.4 120.1 62.4 121 63.3 63.1 121.3"/>
  <circle class="st1" cx="85.5" cy="115.4" r="1.8"/>
  <circle class="st1" cx="98.1" cy="68.1" r="1.8"/>
  <rect class="st1" x="67.3" y="91.2" width="49" height="1.2" transform="translate(-20.5 156.8) rotate(-75.1)"/>
  <polygon class="st1" points="304 133.4 303.2 133.4 257.6 15.5 228.7 15.5 228.7 168.2 248.1 168.2 248.1 41 248.5 41 296.9 168.2 309.9 168.2 358.2 41 358.6 41 358.6 168.2 378.1 168.2 378.1 15.5 349.1 15.5 304 133.4"/>
  <path class="st1" d="M471.2,84.7c-4.6-4.6-10-8.2-16.2-10.8-6.2-2.6-12.9-3.9-20-3.9s-13.8,1.3-20,3.9c-6.2,2.6-11.6,6.2-16.2,10.8-4.6,4.6-8.2,9.9-10.8,16-2.6,6.1-4,12.6-4,19.6s1.3,13.6,4,19.7,6.2,11.5,10.8,16,10,8.1,16.2,10.7c6.2,2.6,12.9,3.9,20,3.9s13.8-1.3,20-3.9c6.2-2.6,11.6-6.2,16.2-10.7,4.6-4.5,8.2-9.9,10.8-16,2.6-6.1,4-12.7,4-19.7s-1.3-13.6-4-19.6c-2.6-6.1-6.2-11.4-10.8-16ZM464.3,133.7c-1.5,4.1-3.6,7.6-6.3,10.5s-6,5.2-9.9,6.9c-3.9,1.7-8.3,2.5-13.2,2.5s-9.2-.8-13.2-2.5c-3.9-1.7-7.2-4-9.9-6.9-2.7-2.9-4.8-6.4-6.3-10.5-1.5-4.1-2.2-8.6-2.2-13.5s.7-9.3,2.2-13.5c1.5-4.1,3.6-7.6,6.3-10.5,2.7-2.9,6-5.2,9.9-6.9,3.9-1.7,8.3-2.5,13.2-2.5s9.2.8,13.2,2.5c3.9,1.7,7.2,4,9.9,6.9,2.7,2.9,4.8,6.4,6.3,10.5,1.5,4.1,2.2,8.6,2.2,13.5s-.7,9.3-2.2,13.5Z"/>
  <path class="st1" d="M571.3,78.6c-3.2-3-6.9-5.2-11.1-6.6-4.2-1.4-8.7-2.1-13.3-2.1-7.4,0-14,1.6-19.6,4.8-5.7,3.2-9.7,7.3-11.9,12.4h-.4v-14.8h-18.2v96h18.2v-49.4c0-5.5.7-10.3,2-14.4,1.3-4.1,3.2-7.4,5.7-10s5.3-4.6,8.5-5.8c3.2-1.2,6.8-1.8,10.5-1.8s5.6.4,8.2,1.3,5,2.3,7,4.2c2,2,3.6,4.5,4.9,7.7,1.2,3.2,1.8,7,1.8,11.4v56.7h18.2v-61.7c0-6.3-1-11.8-2.8-16.5-1.9-4.7-4.4-8.5-7.6-11.4h0Z"/>
  <path class="st1" d="M712.9,153.7c-3.5,0-6.2-.6-8-1.9s-3.2-3-4-5.1-1.4-4.4-1.5-7.1c-.1-2.6-.2-5.3-.2-8v-43.5h26.1v-15.8h-26.1v-26.9h-18.2v26.9l-28.3.2-41.3,41.5V15.2h-18.2v153h18.2v-49.8l44.5,49.8h25.9l-48.6-52.2,28.7-27.9h19.1v50c0,3.9.2,7.8.5,11.6s1.4,7.3,3.2,10.4c1.8,3.1,4.7,5.6,8.5,7.6,3.8,1.9,9.3,2.9,16.3,2.9s4.5-.2,8-.7c3.4-.5,6.2-1.3,8.4-2.5v-16.6c-1.9,1.1-4,1.8-6.3,2.2-2.3.4-4.5.6-6.7.6h0Z"/>
  <path class="st1" d="M807,84.7c-4.6-4.6-10-8.2-16.2-10.8-6.2-2.6-12.9-3.9-20-3.9s-13.8,1.3-20,3.9c-6.2,2.6-11.6,6.2-16.2,10.8-4.6,4.6-8.2,9.9-10.8,16s-4,12.6-4,19.6,1.3,13.6,4,19.7,6.2,11.5,10.8,16,10,8.1,16.2,10.7c6.2,2.6,12.9,3.9,20,3.9s13.8-1.3,20-3.9c6.2-2.6,11.6-6.2,16.2-10.7,4.6-4.5,8.2-9.9,10.8-16s4-12.7,4-19.7-1.3-13.6-4-19.6c-2.6-6.1-6.2-11.4-10.8-16ZM800.2,133.7c-1.5,4.1-3.6,7.6-6.3,10.5s-6,5.2-9.9,6.9c-3.9,1.7-8.3,2.5-13.2,2.5s-9.2-.8-13.2-2.5-7.2-4-9.9-6.9c-2.7-2.9-4.8-6.4-6.3-10.5-1.5-4.1-2.2-8.6-2.2-13.5s.7-9.3,2.2-13.5c1.5-4.1,3.6-7.6,6.3-10.5,2.7-2.9,6-5.2,9.9-6.9,3.9-1.7,8.3-2.5,13.2-2.5s9.2.8,13.2,2.5c3.9,1.7,7.2,4,9.9,6.9,2.7,2.9,4.8,6.4,6.3,10.5,1.5,4.1,2.2,8.6,2.2,13.5s-.7,9.3-2.2,13.5Z"/>
  <path class="st1" d="M910.7,90c-1.9-4.7-4.4-8.5-7.6-11.4-3.2-3-6.9-5.2-11.1-6.6-4.2-1.4-8.7-2.1-13.3-2.1-7.4,0-14,1.6-19.6,4.8-5.7,3.2-9.7,7.3-11.9,12.4h-.4v-14.8h-18.2v96h18.2v-49.4c0-5.5.7-10.3,2-14.4,1.3-4.1,3.2-7.4,5.7-10s5.3-4.6,8.5-5.8c3.2-1.2,6.8-1.8,10.5-1.8s5.6.4,8.2,1.3,5,2.3,7,4.2c2,2,3.6,4.5,4.9,7.7,1.2,3.2,1.8,7,1.8,11.4v56.7h18.2v-61.7c0-6.3-1-11.8-2.8-16.5h0Z"/>
</svg>