<svg clip-rule="evenodd" fill-rule="evenodd" stroke-linejoin="round" stroke-miterlimit="2" viewBox="0 0 510 510" xmlns="http://www.w3.org/2000/svg"><path d="m57.801 254.594c-2.917 8.587-11.052 14.772-20.62 14.772-12.016 0-21.771-9.756-21.771-21.772s9.755-21.771 21.771-21.771c9.568 0 17.703 6.185 20.62 14.771h56.591c.495-9.757 2.02-19.611 4.651-29.429 5.989-22.354 17.038-42.003 31.583-58.045l-21.145-21.146c-2.904 1.436-6.173 2.243-9.63 2.243-12.016 0-21.771-9.755-21.771-21.771s9.755-21.772 21.771-21.772 21.772 9.756 21.772 21.772c0 3.456-.807 6.725-2.243 9.629l21.155 21.155c23.85-21.547 54.734-34.629 87.465-36.252v-56.582c-8.587-2.918-14.772-11.053-14.772-20.62 0-12.016 9.756-21.772 21.772-21.772s21.772 9.756 21.772 21.772c0 9.567-6.185 17.702-14.772 20.62v56.59c9.758.496 19.612 2.02 29.43 4.651 22.354 5.99 42.003 17.038 58.045 31.583l21.145-21.145c-1.436-2.904-2.243-6.173-2.243-9.629 0-12.016 9.756-21.772 21.772-21.772s21.771 9.756 21.771 21.772-9.755 21.771-21.771 21.771c-3.457 0-6.726-.807-9.63-2.243l-21.154 21.155c21.546 23.85 34.628 54.735 36.251 87.465h56.583c2.917-8.586 11.052-14.771 20.62-14.771 12.016 0 21.771 9.755 21.771 21.771s-9.755 21.772-21.771 21.772c-9.568 0-17.703-6.185-20.62-14.772h-56.591c-.495 9.758-2.02 19.612-4.651 29.43-4.77 17.803-12.749 33.89-23.147 47.806l18.541 21.704c8.672-1.936 18.141.855 24.292 8.056l68.67 80.387c8.853 10.363 7.619 26.055-2.744 34.907l-22.479 19.203c-10.366 8.855-26.094 7.61-34.907-2.744l-68.67-80.387c-6.131-7.177-7.424-16.909-4.198-25.155l-17.432-20.406c-19.947 12.297-42.92 19.627-66.883 20.816v56.582c8.587 2.918 14.772 11.052 14.772 20.62 0 12.016-9.756 21.772-21.772 21.772s-21.772-9.756-21.772-21.772c0-9.568 6.185-17.702 14.772-20.62v-56.591c-9.758-.495-19.612-2.02-29.43-4.65-22.354-5.99-42.003-17.038-58.045-31.583l-21.145 21.145c1.436 2.904 2.243 6.173 2.243 9.629 0 12.016-9.756 21.772-21.772 21.772s-21.771-9.756-21.771-21.772 9.755-21.772 21.771-21.772c3.457 0 6.726.807 9.63 2.243l21.154-21.154c-21.546-23.851-34.628-54.735-36.251-87.466zm197.199 218.591c4.289 0 7.772-3.483 7.772-7.772s-3.483-7.772-7.772-7.772-7.772 3.483-7.772 7.772 3.483 7.772 7.772 7.772zm-135.149-82.67c4.29 0 7.772-3.483 7.772-7.772s-3.482-7.772-7.772-7.772c-4.289 0-7.771 3.483-7.771 7.772s3.482 7.772 7.771 7.772zm242.499-1.821c-4.503 3.847-5.039 10.665-1.193 15.169l68.674 80.392.004.004c3.831 4.5 10.661 5.028 15.161 1.183l22.48-19.202c4.503-3.847 5.039-10.666 1.192-15.169l-68.67-80.388c-3.844-4.501-10.673-5.046-15.164-1.196zm110.469-133.328c4.289 0 7.771-3.482 7.771-7.772 0-4.289-3.482-7.771-7.771-7.771-4.29 0-7.772 3.482-7.772 7.771 0 4.29 3.482 7.772 7.772 7.772zm-114.08 87.399c-5.605 6.099-11.719 11.668-18.254 16.656l14.587 17.077 18.779-16.042zm-70.933-217.605c-67.615-18.117-137.123 22.013-155.24 89.628-18.118 67.615 22.013 137.123 89.628 155.241 67.615 18.117 137.123-22.014 155.24-89.628 18.118-67.615-22.013-137.124-89.628-155.241zm-60.24 224.819c-56.384-15.108-90.065-73.41-74.95-129.818 15.108-56.384 73.434-90.059 129.818-74.951 56.408 15.114 90.058 73.434 74.95 129.818-15.114 56.408-73.41 90.065-129.818 74.951zm3.624-13.523c48.957 13.118 99.553-16.094 112.671-65.051 13.113-48.937-16.093-99.554-65.051-112.672-48.936-13.113-99.559 16.114-112.671 65.051-13.119 48.958 16.114 99.559 65.051 112.672zm85.556-65.15h3.09c3.864 0 7 3.137 7 7 0 3.864-3.136 7-7 7h-129.673c-3.863 0-7-3.136-7-7 0-3.863 3.137-7 7-7h3.09v-29.665c0-3.866 3.134-7 7-7h22.831c3.866 0 7 3.134 7 7v29.665h6.5v-45.379c0-3.866 3.134-7 7-7h22.831c3.866 0 7 3.134 7 7v45.379h6.5v-61.092c0-3.866 3.134-7 7-7h22.831c3.866 0 7 3.134 7 7zm-66.162 0h8.831v-38.379h-8.831zm-43.331 0h8.831v-22.665h-8.831zm86.662 0h8.831v-54.092h-8.831zm-38.915-233.759c4.289 0 7.772-3.482 7.772-7.771 0-4.29-3.483-7.772-7.772-7.772s-7.772 3.482-7.772 7.772c0 4.289 3.483 7.771 7.772 7.771zm135.149 82.67c4.289 0 7.771-3.482 7.771-7.771 0-4.29-3.482-7.772-7.771-7.772-4.29 0-7.772 3.482-7.772 7.772 0 4.289 3.482 7.771 7.772 7.771zm-352.968 135.149c4.29 0 7.772-3.482 7.772-7.772 0-4.289-3.482-7.771-7.772-7.771-4.289 0-7.771 3.482-7.771 7.771 0 4.29 3.482 7.772 7.771 7.772zm82.67-135.149c4.29 0 7.772-3.482 7.772-7.771 0-4.29-3.482-7.772-7.772-7.772-4.289 0-7.771 3.482-7.771 7.772 0 4.289 3.482 7.771 7.771 7.771z"/></svg>