<svg id="Outline_ok" viewBox="0 0 64 64" xmlns="http://www.w3.org/2000/svg"><g fill="rgb(0,0,0)"><path d="m60 34c-1.654 0-3-1.346-3-3s1.346-3 3-3 3 1.346 3 3-1.346 3-3 3zm0-4c-.551 0-1 .449-1 1s.449 1 1 1 1-.449 1-1-.449-1-1-1z"/><path d="m58 32h-10c-.552 0-1-.448-1-1s.448-1 1-1h10c.552 0 1 .448 1 1s-.448 1-1 1z"/><path d="m56 26c-1.654 0-3-1.346-3-3s1.346-3 3-3 3 1.346 3 3-1.346 3-3 3zm0-4c-.551 0-1 .449-1 1s.449 1 1 1 1-.449 1-1-.449-1-1-1z"/><path d="m54 24h-6c-.552 0-1-.448-1-1s.448-1 1-1h6c.552 0 1 .448 1 1s-.448 1-1 1z"/><path d="m56 42c-1.654 0-3-1.346-3-3s1.346-3 3-3 3 1.346 3 3-1.346 3-3 3zm0-4c-.551 0-1 .449-1 1s.449 1 1 1 1-.449 1-1-.449-1-1-1z"/><path d="m54 40h-6.82c-.552 0-1-.448-1-1s.448-1 1-1h6.82c.552 0 1 .448 1 1s-.448 1-1 1z"/><path d="m3.997 34c-1.654 0-3-1.346-3-3s1.346-3 3-3 3 1.346 3 3-1.346 3-3 3zm0-4c-.551 0-1 .449-1 1s.449 1 1 1 1-.449 1-1-.449-1-1-1z"/><path d="m16 32h-10c-.552 0-1-.448-1-1s.448-1 1-1h10c.552 0 1 .448 1 1s-.448 1-1 1z"/><path d="m7.997 26c-1.654 0-3-1.346-3-3s1.346-3 3-3 3 1.346 3 3-1.346 3-3 3zm0-4c-.551 0-1 .449-1 1s.449 1 1 1 1-.449 1-1-.449-1-1-1z"/><path d="m16 24h-6c-.552 0-1-.448-1-1s.448-1 1-1h6c.552 0 1 .448 1 1s-.448 1-1 1z"/><path d="m7.997 42c-1.654 0-3-1.346-3-3s1.346-3 3-3 3 1.346 3 3-1.346 3-3 3zm0-4c-.551 0-1 .449-1 1s.449 1 1 1 1-.449 1-1-.449-1-1-1z"/><path d="m16.82 40h-6.82c-.552 0-1-.448-1-1s.448-1 1-1h6.82c.552 0 1 .448 1 1s-.448 1-1 1z"/><path d="m32 7c-1.654 0-3-1.346-3-3s1.346-3 3-3 3 1.346 3 3-1.346 3-3 3zm0-4c-.551 0-1 .449-1 1s.449 1 1 1 1-.449 1-1-.449-1-1-1z"/><path d="m32 13c-.552 0-1-.448-1-1v-6c0-.552.448-1 1-1s1 .448 1 1v6c0 .552-.448 1-1 1z"/><path d="m24 11c-1.654 0-3-1.346-3-3s1.346-3 3-3 3 1.346 3 3-1.346 3-3 3zm0-4c-.551 0-1 .449-1 1s.449 1 1 1 1-.449 1-1-.449-1-1-1z"/><path d="m24 15.56c-.552 0-1-.448-1-1v-4.56c0-.552.448-1 1-1s1 .448 1 1v4.56c0 .552-.448 1-1 1z"/><path d="m40 11c-1.654 0-3-1.346-3-3s1.346-3 3-3 3 1.346 3 3-1.346 3-3 3zm0-4c-.551 0-1 .449-1 1s.449 1 1 1 1-.449 1-1-.449-1-1-1z"/><path d="m40 15.56c-.552 0-1-.448-1-1v-4.56c0-.552.448-1 1-1s1 .448 1 1v4.56c0 .552-.448 1-1 1z"/><path d="m32 63c-1.654 0-3-1.346-3-3s1.346-3 3-3 3 1.346 3 3-1.346 3-3 3zm0-4c-.551 0-1 .449-1 1s.449 1 1 1 1-.449 1-1-.449-1-1-1z"/><path d="m32 59c-.552 0-1-.448-1-1v-6c0-.552.448-1 1-1s1 .448 1 1v6c0 .552-.448 1-1 1z"/><path d="m24 59c-1.654 0-3-1.346-3-3s1.346-3 3-3 3 1.346 3 3-1.346 3-3 3zm0-4c-.551 0-1 .449-1 1s.449 1 1 1 1-.449 1-1-.449-1-1-1z"/><path d="m24 55c-.552 0-1-.448-1-1v-6.65c0-.552.448-1 1-1s1 .448 1 1v6.65c0 .552-.448 1-1 1z"/><path d="m40 59c-1.654 0-3-1.346-3-3s1.346-3 3-3 3 1.346 3 3-1.346 3-3 3zm0-4c-.551 0-1 .449-1 1s.449 1 1 1 1-.449 1-1-.449-1-1-1z"/><path d="m40 55c-.552 0-1-.448-1-1v-6.65c0-.552.448-1 1-1s1 .448 1 1v6.65c0 .552-.448 1-1 1z"/><path d="m32 49c-.149 0-.299-.033-.437-.1-.513-.249-12.563-6.183-12.563-13.9v-15c0-.431.275-.812.684-.949l12-4c.206-.068.427-.068.633 0l12 4c.408.136.684.518.684.949v15c0 7.717-12.051 13.651-12.563 13.9-.138.067-.287.1-.437.1zm-11-28.279v14.279c0 5.736 8.905 10.771 11 11.876 2.095-1.104 11-6.14 11-11.876v-14.279l-11-3.667z"/><path d="m36 31c-.552 0-1-.448-1-1v-3c0-1.654-1.346-3-3-3s-3 1.346-3 3v3c0 .552-.448 1-1 1s-1-.448-1-1v-3c0-2.757 2.243-5 5-5s5 2.243 5 5v3c0 .552-.448 1-1 1z"/><path d="m37 39h-10c-.552 0-1-.448-1-1v-8c0-.552.448-1 1-1h10c.552 0 1 .448 1 1v8c0 .552-.448 1-1 1zm-9-2h8v-6h-8z"/><circle cx="32" cy="34" r="1"/><path d="m32 53c-.145 0-.289-.031-.422-.094l-1.226-.571c-1.573-.732-15.352-7.436-15.352-17.29v-17.92c0-.435.281-.82.695-.952l16-5.125c.198-.063.412-.063.61 0l16 5.125c.414.132.695.518.695.952v17.921c0 9.854-13.781 16.558-15.352 17.29l-1.226.571c-.134.062-.278.094-.422.094zm-15-35.146v17.191c0 8.616 12.744 14.8 14.197 15.477l.803.374.803-.374c1.453-.677 14.197-6.861 14.197-15.477v-17.191l-15-4.805z"/></g></svg>