<?xml version="1.0" encoding="UTF-8"?><svg id="Layer_1" xmlns="http://www.w3.org/2000/svg" viewBox="0 0 148.53 147.11"><defs><style>.cls-1{fill:#fff;}</style></defs><path class="cls-1" d="M24.4,51.83c-4.88,0-9.06,3.95-9.06,9.06s3.95,9.06,9.06,9.06,9.06-3.95,9.06-9.06c-.23-5.11-4.18-9.06-9.06-9.06ZM24.4,63.21c-1.39,0-2.32-1.16-2.32-2.32,0-1.39,1.16-2.32,2.32-2.32,1.39,0,2.32,1.16,2.32,2.32s-1.16,2.32-2.32,2.32Z"/><path class="cls-1" d="M24.4,94.12c-4.88,0-9.06,3.95-9.06,9.06s3.95,9.06,9.06,9.06,9.06-3.95,9.06-9.06c-.23-5.11-4.18-9.06-9.06-9.06ZM24.4,105.28c-1.39,0-2.32-1.16-2.32-2.32,0-1.39,1.16-2.32,2.32-2.32,1.39,0,2.32,1.16,2.32,2.32,0,1.39-1.16,2.32-2.32,2.32Z"/><path class="cls-1" d="M24.4,9.53c-4.88,0-9.06,3.95-9.06,9.06s3.95,9.06,9.06,9.06,9.06-3.95,9.06-9.06c-.23-5.11-4.18-9.06-9.06-9.06ZM24.4,20.92c-1.39,0-2.32-1.16-2.32-2.32,0-1.39,1.16-2.32,2.32-2.32,1.39,0,2.32,1.16,2.32,2.32s-1.16,2.32-2.32,2.32Z"/><path class="cls-1" d="M75.07,21.85h8.37c1.86,0,3.25-1.39,3.25-3.25s-1.39-3.25-3.25-3.25h-8.37c-1.86,0-3.25,1.39-3.25,3.25s1.39,3.25,3.25,3.25Z"/><path class="cls-1" d="M96.45,21.85h8.37c1.86,0,3.25-1.39,3.25-3.25s-1.39-3.25-3.25-3.25h-8.37c-1.86,0-3.25,1.39-3.25,3.25-.23,1.86,1.39,3.25,3.25,3.25Z"/><path class="cls-1" d="M144.32,123.17l-22.08-18.36c4.88-8.83,5.81-19.29,2.56-28.59,1.63-1.86,2.56-4.18,2.56-6.51v-17.66c0-5.35-4.42-9.76-9.76-9.76h-37.65v-5.11h37.42c5.35,0,9.76-4.42,9.76-9.76V9.76c0-5.35-4.42-9.76-9.76-9.76H9.76C4.42,0,0,4.42,0,9.76v17.66c0,5.35,4.42,9.76,9.76,9.76h37.42v5.11H9.76c-5.35,0-9.76,4.42-9.76,9.76v17.66c0,5.35,4.42,9.76,9.76,9.76h37.42v5.11H9.76c-5.35-.23-9.76,4.18-9.76,9.76v17.66c0,5.35,4.42,9.76,9.76,9.76h37.42v5.81h-10.92c-4.18,0-7.44,3.25-7.44,7.44v4.65c0,4.18,3.25,7.44,7.44,7.44h54.61c4.18,0,7.44-3.25,7.44-7.44v-4.65c0-4.18-3.25-7.44-7.44-7.44h-10.92v-5.81h3.95c2.56.7,5.35.93,7.9.93,5.81,0,11.85-1.63,16.97-4.42l18.36,22.08c2.09,2.56,5.35,4.18,8.83,4.42h.46c3.25,0,6.27-1.39,8.6-3.49,2.32-2.32,3.72-5.81,3.49-9.3,0-3.49-1.63-6.74-4.18-8.83h0ZM6.74,27.42V9.76c0-1.63,1.39-3.25,3.25-3.25h107.6c1.63,0,3.25,1.39,3.25,3.25v17.66c0,1.63-1.39,3.25-3.25,3.25H9.76c-1.63-.23-3.02-1.63-3.02-3.25ZM53.92,37.18h19.52v5.11h-19.52v-5.11ZM6.74,69.49v-17.66c0-1.63,1.39-3.25,3.02-3.25h107.6c1.63,0,3.02,1.39,3.02,3.25v16.04c-1.16-1.63-2.56-3.49-3.95-4.88-13.71-13.71-35.79-13.48-49.27,0-2.79,2.79-5.11,6.27-6.74,9.76H9.76c-1.63,0-3.02-1.39-3.02-3.25h0ZM53.92,79.48h3.95c-.46,1.63-.7,3.25-.93,5.11h-3.25v-5.11h.23ZM6.74,111.79v-17.43c0-1.63,1.39-3.02,3.02-3.02h47.18c.7,7.67,4.18,15.34,9.99,21.38.93.93,1.86,1.86,3.02,2.56H9.76c-1.63-.23-3.02-1.63-3.02-3.49h0ZM91.57,134.79v4.65c0,.46-.46.7-.7.7h-54.61c-.46,0-.7-.46-.7-.7v-4.65c0-.46.46-.7.7-.7h55.08s.23.23.23.7h0ZM73.21,127.36h-19.52v-5.81h19.52v5.81ZM91.8,115.97c-7.44,0-14.64-3.02-19.99-8.37-5.35-5.35-8.13-12.32-8.37-19.75,0-3.49.7-6.97,1.86-10.23v-.23c1.39-3.49,3.49-6.74,6.27-9.3,5.35-5.35,12.32-8.37,19.99-8.37s14.64,3.02,19.99,8.37c5.35,5.35,8.37,12.32,8.37,19.99s-3.02,14.64-8.37,19.99c-5.11,4.88-12.32,7.9-19.75,7.9h0ZM140.37,136.42c-1.16,1.16-2.56,1.63-4.18,1.63s-3.02-.7-3.95-2.09l-17.89-21.85c.7-.7,1.39-1.16,2.09-1.86s1.39-1.39,1.86-2.09l21.85,17.89c1.16.93,1.86,2.32,2.09,3.95,0,1.86-.7,3.25-1.86,4.42h0Z"/></svg>