<?xml version="1.0" encoding="UTF-8"?><svg id="Layer_1" xmlns="http://www.w3.org/2000/svg" viewBox="0 0 135.03 135.03"><defs><style>.cls-1{fill:#fff;}</style></defs><path class="cls-1" d="M108.03,54.01c14.89,0,27.01-12.11,27.01-27.01S122.92,0,108.03,0c-10.81,0-20.14,6.4-24.45,15.61l-7.23-2.67c.09-.55.17-1.11.17-1.68,0-6.2-5.05-11.25-11.25-11.25s-11.25,5.05-11.25,11.25,5.05,11.25,11.25,11.25c4.03,0,7.55-2.15,9.53-5.34l7.22,2.66c-.63,2.29-1,4.69-1,7.18,0,2.95.49,5.78,1.37,8.44l-24.75,10.49c-4.53-8.57-13.53-14.43-23.88-14.43-3.35,0-6.55.64-9.52,1.76l-6.23-13.08c2.71-2.06,4.49-5.28,4.49-8.94C22.51,5.05,17.46,0,11.25,0S0,5.05,0,11.25s5.05,11.25,11.25,11.25c.94,0,1.83-.15,2.71-.37l6.22,13.07c-8.01,4.69-13.42,13.37-13.42,23.31,0,9.34,4.76,17.57,11.98,22.43l-4.12,7.4c-1.07-.34-2.19-.57-3.36-.57-6.2,0-11.25,5.05-11.25,11.25s5.05,11.25,11.25,11.25,11.25-5.05,11.25-11.25c0-3.41-1.55-6.43-3.95-8.49l4.13-7.42c3.38,1.53,7.13,2.41,11.08,2.41,6.18,0,11.86-2.11,16.41-5.61l8.86,9.75c-4.49,4.83-7.26,11.27-7.26,18.37,0,1.38.14,2.72.34,4.04l-10.42,2.47c-1.79-3.84-5.66-6.51-10.17-6.51-6.2,0-11.25,5.05-11.25,11.25s5.05,11.25,11.25,11.25,11.25-5.05,11.25-11.25c0-.12-.03-.24-.04-.36l10.4-2.47c3.55,10.78,13.69,18.58,25.64,18.58,14.89,0,27.01-12.11,27.01-27.01,0-4.62-1.17-8.97-3.22-12.77l13.22-8.6c2.04,2.07,4.87,3.36,8.01,3.36,6.2,0,11.25-5.05,11.25-11.25s-5.05-11.25-11.25-11.25-11.25,5.05-11.25,11.25c0,1.45.3,2.84.8,4.11l-13.25,8.61c-2.65-3.41-6.09-6.16-10.06-7.99l10.98-30.45c2.24.6,4.59.96,7.02.96ZM65.27,18c-3.72,0-6.75-3.03-6.75-6.75s3.03-6.75,6.75-6.75,6.75,3.03,6.75,6.75-3.03,6.75-6.75,6.75ZM4.5,11.25c0-3.72,3.03-6.75,6.75-6.75s6.75,3.03,6.75,6.75-3.03,6.75-6.75,6.75-6.75-3.03-6.75-6.75ZM11.25,105.78c-3.72,0-6.75-3.03-6.75-6.75s3.03-6.75,6.75-6.75,6.75,3.03,6.75,6.75-3.03,6.75-6.75,6.75ZM31.51,126.03c-3.72,0-6.75-3.03-6.75-6.75s3.03-6.75,6.75-6.75,6.75,3.03,6.75,6.75-3.03,6.75-6.75,6.75ZM123.78,72.02c3.72,0,6.75,3.03,6.75,6.75s-3.03,6.75-6.75,6.75-6.75-3.03-6.75-6.75,3.03-6.75,6.75-6.75ZM94.77,45.16c1-5.21,5.59-9.15,11-9.15h4.5c5.41,0,10,3.94,11,9.15-3.72,2.73-8.3,4.36-13.25,4.36s-9.53-1.63-13.25-4.36ZM108.03,31.51c-3.72,0-6.75-3.03-6.75-6.75s3.03-6.75,6.75-6.75,6.75,3.03,6.75,6.75-3.03,6.75-6.75,6.75ZM108.03,4.5c12.41,0,22.51,10.1,22.51,22.51,0,5.63-2.09,10.77-5.52,14.72-1.58-4.15-4.86-7.47-8.96-9.1,1.99-2.03,3.23-4.8,3.23-7.86,0-6.2-5.05-11.25-11.25-11.25s-11.25,5.05-11.25,11.25c0,3.06,1.24,5.83,3.23,7.86-4.1,1.64-7.38,4.95-8.96,9.1-3.43-3.95-5.52-9.09-5.52-14.72,0-12.41,10.1-22.51,22.51-22.51ZM11.25,58.51c0-12.41,10.1-22.51,22.51-22.51s22.51,10.1,22.51,22.51c0,5.64-2.1,10.8-5.55,14.75-1.57-4.17-4.87-7.5-8.97-9.14,1.99-2.03,3.23-4.8,3.23-7.86,0-6.2-5.05-11.25-11.25-11.25s-11.25,5.05-11.25,11.25c0,3.06,1.24,5.83,3.23,7.86-4.08,1.63-7.37,4.93-8.95,9.07-3.41-3.95-5.48-9.07-5.48-14.68ZM26.96,56.26c0-3.72,3.03-6.75,6.75-6.75s6.75,3.03,6.75,6.75-3.03,6.75-6.75,6.75-6.75-3.03-6.75-6.75ZM20.47,76.63c1.01-5.19,5.6-9.12,11-9.12h4.5c5.42,0,10.02,3.95,11.01,9.18-3.72,2.71-8.27,4.33-13.21,4.33s-9.56-1.64-13.29-4.39ZM65.48,126.15c1.01-5.19,5.6-9.12,11-9.12h4.5c5.42,0,10.02,3.95,11.01,9.18-3.72,2.71-8.27,4.33-13.21,4.33s-9.56-1.64-13.29-4.39ZM78.72,112.53c-3.72,0-6.75-3.03-6.75-6.75s3.03-6.75,6.75-6.75,6.75,3.03,6.75,6.75-3.03,6.75-6.75,6.75ZM101.27,108.03c0,5.64-2.1,10.8-5.55,14.75-1.57-4.17-4.87-7.5-8.97-9.14,1.99-2.03,3.23-4.8,3.23-7.86,0-6.2-5.05-11.25-11.25-11.25s-11.25,5.05-11.25,11.25c0,3.06,1.24,5.83,3.23,7.86-4.08,1.63-7.37,4.93-8.95,9.07-3.41-3.95-5.48-9.07-5.48-14.68,0-12.41,10.1-22.51,22.51-22.51s22.51,10.1,22.51,22.51ZM85.79,81.98c-2.24-.6-4.59-.96-7.02-.96-6.18,0-11.86,2.11-16.41,5.61l-8.86-9.75c4.49-4.83,7.26-11.27,7.26-18.37,0-2.95-.49-5.78-1.37-8.44l24.75-10.49c2.77,5.24,7.22,9.45,12.63,11.94l-10.99,30.45Z"/></svg>