<?xml version="1.0" encoding="UTF-8" standalone="no"?>
<!-- Created with Inkscape (http://www.inkscape.org/) -->

<svg
   version="1.1"
   id="svg591"
   xml:space="preserve"
   width="682.66669"
   height="682.66669"
   viewBox="0 0 682.66669 682.66669"
   xmlns="http://www.w3.org/2000/svg"
   xmlns:svg="http://www.w3.org/2000/svg"><defs
     id="defs595"><clipPath
       clipPathUnits="userSpaceOnUse"
       id="clipPath605"><path
         d="M 0,512 H 512 V 0 H 0 Z"
         id="path603" /></clipPath></defs><g
     id="g597"
     transform="matrix(1.3333333,0,0,-1.3333333,0,682.66667)"><g
       id="g599"><g
         id="g601"
         clip-path="url(#clipPath605)"><g
           id="g607"
           transform="translate(193.0752,281.4719)"><path
             d="m 0,0 c 0,0 -11.507,9.673 -25.077,5.585 -12.46,-3.753 -14.203,-18.12 -5.188,-23.997 0,0 8.845,-3.947 18.656,-7.565 23.617,-8.711 13.443,-31.559 -5.568,-31.559 -9.521,0 -17.511,4.169 -22.348,9.506"
             style="fill:none;stroke:#000000;stroke-width:15;stroke-linecap:round;stroke-linejoin:round;stroke-miterlimit:10;stroke-dasharray:none;stroke-opacity:1"
             id="path609" /></g><g
           id="g611"
           transform="translate(318.125,288.0645)"><path
             d="M 0,0 V -64.129"
             style="fill:none;stroke:#000000;stroke-width:15;stroke-linecap:round;stroke-linejoin:round;stroke-miterlimit:10;stroke-dasharray:none;stroke-opacity:1"
             id="path613" /></g><g
           id="g615"
           transform="translate(354.4331,269.9673)"><path
             d="m 0,0 c 0,-9.995 -8.457,-18.097 -18.452,-18.097 -4.957,0 -17.732,-0.08 -17.732,-0.08 0,0 -0.08,13.139 -0.08,18.177 0,4.138 -0.044,18.097 -0.044,18.097 h 17.856 C -8.457,18.097 0,9.995 0,0 Z"
             style="fill:none;stroke:#000000;stroke-width:15;stroke-linecap:round;stroke-linejoin:round;stroke-miterlimit:10;stroke-dasharray:none;stroke-opacity:1"
             id="path617" /></g><g
           id="g619"
           transform="translate(288.0645,256)"><path
             d="m 0,0 c 0,17.709 -14.355,32.064 -32.064,32.064 -17.709,0 -32.065,-14.355 -32.065,-32.064 0,-17.709 14.356,-32.064 32.065,-32.064 C -14.355,-32.064 0,-17.709 0,0 Z"
             style="fill:none;stroke:#000000;stroke-width:15;stroke-linecap:round;stroke-linejoin:round;stroke-miterlimit:10;stroke-dasharray:none;stroke-opacity:1"
             id="path621" /></g><g
           id="g623"
           transform="translate(384.2583,336.1614)"><path
             d="m 0,0 h -256.517 c -17.708,0 -32.064,-14.356 -32.064,-32.065 v -96.193 c 0,-17.709 14.356,-32.065 32.064,-32.065 H 0 c 17.708,0 32.064,14.356 32.064,32.065 v 96.193 C 32.064,-14.356 17.708,0 0,0 Z"
             style="fill:none;stroke:#000000;stroke-width:15;stroke-linecap:round;stroke-linejoin:round;stroke-miterlimit:10;stroke-dasharray:none;stroke-opacity:1"
             id="path625" /></g><g
           id="g627"
           transform="translate(288.0645,472.4355)"><path
             d="m 0,0 c 0,17.709 -14.355,32.064 -32.064,32.064 -17.709,0 -32.065,-14.355 -32.065,-32.064 0,-17.709 14.356,-32.065 32.065,-32.065 C -14.355,-32.065 0,-17.709 0,0 Z"
             style="fill:none;stroke:#000000;stroke-width:15;stroke-linecap:round;stroke-linejoin:round;stroke-miterlimit:10;stroke-dasharray:none;stroke-opacity:1"
             id="path629" /></g><g
           id="g631"
           transform="translate(71.6289,408.3064)"><path
             d="m 0,0 c 0,17.709 -14.355,32.064 -32.064,32.064 -17.709,0 -32.065,-14.355 -32.065,-32.064 0,-17.709 14.356,-32.064 32.065,-32.064 C -14.355,-32.064 0,-17.709 0,0 Z"
             style="fill:none;stroke:#000000;stroke-width:15;stroke-linecap:round;stroke-linejoin:round;stroke-miterlimit:10;stroke-dasharray:none;stroke-opacity:1"
             id="path633" /></g><g
           id="g635"
           transform="translate(71.6289,408.3064)"><path
             d="M 0,0 H 72.146 C 85.427,0 96.194,-10.767 96.194,-24.048 V -72.145"
             style="fill:none;stroke:#000000;stroke-width:15;stroke-linecap:round;stroke-linejoin:round;stroke-miterlimit:10;stroke-dasharray:none;stroke-opacity:1"
             id="path637" /></g><g
           id="g639"
           transform="translate(440.3711,408.3064)"><path
             d="M 0,0 H -72.146 C -85.427,0 -96.194,-10.767 -96.194,-24.048 V -72.145"
             style="fill:none;stroke:#000000;stroke-width:15;stroke-linecap:round;stroke-linejoin:round;stroke-miterlimit:10;stroke-dasharray:none;stroke-opacity:1"
             id="path641" /></g><g
           id="g643"
           transform="translate(256,440.3708)"><path
             d="M 0,0 V -104.209"
             style="fill:none;stroke:#000000;stroke-width:15;stroke-linecap:round;stroke-linejoin:round;stroke-miterlimit:10;stroke-dasharray:none;stroke-opacity:1"
             id="path645" /></g><g
           id="g647"
           transform="translate(223.9355,39.5645)"><path
             d="m 0,0 c 0,-17.709 14.355,-32.064 32.064,-32.064 17.709,0 32.065,14.355 32.065,32.064 0,17.709 -14.356,32.065 -32.065,32.065 C 14.355,32.065 0,17.709 0,0 Z"
             style="fill:none;stroke:#000000;stroke-width:15;stroke-linecap:round;stroke-linejoin:round;stroke-miterlimit:10;stroke-dasharray:none;stroke-opacity:1"
             id="path649" /></g><g
           id="g651"
           transform="translate(440.3711,103.6936)"><path
             d="m 0,0 c 0,-17.709 14.355,-32.064 32.064,-32.064 17.709,0 32.065,14.355 32.065,32.064 0,17.709 -14.356,32.064 -32.065,32.064 C 14.355,32.064 0,17.709 0,0 Z"
             style="fill:none;stroke:#000000;stroke-width:15;stroke-linecap:round;stroke-linejoin:round;stroke-miterlimit:10;stroke-dasharray:none;stroke-opacity:1"
             id="path653" /></g><g
           id="g655"
           transform="translate(440.3711,103.6936)"><path
             d="M 0,0 H -72.146 C -85.427,0 -96.194,10.767 -96.194,24.048 V 72.145"
             style="fill:none;stroke:#000000;stroke-width:15;stroke-linecap:round;stroke-linejoin:round;stroke-miterlimit:10;stroke-dasharray:none;stroke-opacity:1"
             id="path657" /></g><g
           id="g659"
           transform="translate(71.6289,103.6936)"><path
             d="M 0,0 H 72.146 C 85.427,0 96.194,10.767 96.194,24.048 V 72.145"
             style="fill:none;stroke:#000000;stroke-width:15;stroke-linecap:round;stroke-linejoin:round;stroke-miterlimit:10;stroke-dasharray:none;stroke-opacity:1"
             id="path661" /></g><g
           id="g663"
           transform="translate(256,71.6292)"><path
             d="M 0,0 V 104.209"
             style="fill:none;stroke:#000000;stroke-width:15;stroke-linecap:round;stroke-linejoin:round;stroke-miterlimit:10;stroke-dasharray:none;stroke-opacity:1"
             id="path665" /></g><g
           id="g667"
           transform="translate(199.8872,368.2258)"><path
             d="M 0,0 H 24.048"
             style="fill:none;stroke:#000000;stroke-width:15;stroke-linecap:round;stroke-linejoin:round;stroke-miterlimit:10;stroke-dasharray:none;stroke-opacity:1"
             id="path669" /></g><g
           id="g671"
           transform="translate(207.9033,400.2903)"><path
             d="M 0,0 H 16.032"
             style="fill:none;stroke:#000000;stroke-width:15;stroke-linecap:round;stroke-linejoin:round;stroke-miterlimit:10;stroke-dasharray:none;stroke-opacity:1"
             id="path673" /></g><g
           id="g675"
           transform="translate(288.0645,368.2258)"><path
             d="M 0,0 H 24.048"
             style="fill:none;stroke:#000000;stroke-width:15;stroke-linecap:round;stroke-linejoin:round;stroke-miterlimit:10;stroke-dasharray:none;stroke-opacity:1"
             id="path677" /></g><g
           id="g679"
           transform="translate(288.0645,400.2903)"><path
             d="M 0,0 H 16.032"
             style="fill:none;stroke:#000000;stroke-width:15;stroke-linecap:round;stroke-linejoin:round;stroke-miterlimit:10;stroke-dasharray:none;stroke-opacity:1"
             id="path681" /></g><g
           id="g683"
           transform="translate(207.9033,111.7097)"><path
             d="M 0,0 H 16.032"
             style="fill:none;stroke:#000000;stroke-width:15;stroke-linecap:round;stroke-linejoin:round;stroke-miterlimit:10;stroke-dasharray:none;stroke-opacity:1"
             id="path685" /></g><g
           id="g687"
           transform="translate(199.8872,143.7742)"><path
             d="M 0,0 H 24.048"
             style="fill:none;stroke:#000000;stroke-width:15;stroke-linecap:round;stroke-linejoin:round;stroke-miterlimit:10;stroke-dasharray:none;stroke-opacity:1"
             id="path689" /></g><g
           id="g691"
           transform="translate(288.0645,111.7097)"><path
             d="M 0,0 H 16.032"
             style="fill:none;stroke:#000000;stroke-width:15;stroke-linecap:round;stroke-linejoin:round;stroke-miterlimit:10;stroke-dasharray:none;stroke-opacity:1"
             id="path693" /></g><g
           id="g695"
           transform="translate(288.0645,143.7742)"><path
             d="M 0,0 H 24.048"
             style="fill:none;stroke:#000000;stroke-width:15;stroke-linecap:round;stroke-linejoin:round;stroke-miterlimit:10;stroke-dasharray:none;stroke-opacity:1"
             id="path697" /></g><g
           id="g699"
           transform="translate(103.6934,368.2258)"><path
             d="M 0,0 V 8.016"
             style="fill:none;stroke:#000000;stroke-width:15;stroke-linecap:round;stroke-linejoin:round;stroke-miterlimit:10;stroke-dasharray:none;stroke-opacity:1"
             id="path701" /></g><g
           id="g703"
           transform="translate(135.7583,368.2258)"><path
             d="M 0,0 V 8.016"
             style="fill:none;stroke:#000000;stroke-width:15;stroke-linecap:round;stroke-linejoin:round;stroke-miterlimit:10;stroke-dasharray:none;stroke-opacity:1"
             id="path705" /></g><g
           id="g707"
           transform="translate(408.3066,368.2258)"><path
             d="M 0,0 V 8.016"
             style="fill:none;stroke:#000000;stroke-width:15;stroke-linecap:round;stroke-linejoin:round;stroke-miterlimit:10;stroke-dasharray:none;stroke-opacity:1"
             id="path709" /></g><g
           id="g711"
           transform="translate(376.2417,368.2258)"><path
             d="M 0,0 V 8.016"
             style="fill:none;stroke:#000000;stroke-width:15;stroke-linecap:round;stroke-linejoin:round;stroke-miterlimit:10;stroke-dasharray:none;stroke-opacity:1"
             id="path713" /></g><g
           id="g715"
           transform="translate(103.6934,135.7581)"><path
             d="M 0,0 V 8.016"
             style="fill:none;stroke:#000000;stroke-width:15;stroke-linecap:round;stroke-linejoin:round;stroke-miterlimit:10;stroke-dasharray:none;stroke-opacity:1"
             id="path717" /></g><g
           id="g719"
           transform="translate(135.7583,135.7581)"><path
             d="M 0,0 V 8.016"
             style="fill:none;stroke:#000000;stroke-width:15;stroke-linecap:round;stroke-linejoin:round;stroke-miterlimit:10;stroke-dasharray:none;stroke-opacity:1"
             id="path721" /></g><g
           id="g723"
           transform="translate(408.3066,135.7581)"><path
             d="M 0,0 V 8.016"
             style="fill:none;stroke:#000000;stroke-width:15;stroke-linecap:round;stroke-linejoin:round;stroke-miterlimit:10;stroke-dasharray:none;stroke-opacity:1"
             id="path725" /></g><g
           id="g727"
           transform="translate(376.2417,135.7581)"><path
             d="M 0,0 V 8.016"
             style="fill:none;stroke:#000000;stroke-width:15;stroke-linecap:round;stroke-linejoin:round;stroke-miterlimit:10;stroke-dasharray:none;stroke-opacity:1"
             id="path729" /></g><g
           id="g731"
           transform="translate(480.6362,439.1802)"><path
             d="m 0,0 c -2.633,0.699 -5.348,1.191 -8.201,1.191 -17.709,0 -32.064,-14.356 -32.064,-32.065 0,-17.708 14.355,-32.064 32.064,-32.064 17.709,0 32.065,14.356 32.065,32.064 0,2.853 -0.492,5.568 -1.191,8.201"
             style="fill:none;stroke:#000000;stroke-width:15;stroke-linecap:round;stroke-linejoin:round;stroke-miterlimit:10;stroke-dasharray:none;stroke-opacity:1"
             id="path733" /></g><g
           id="g735"
           transform="translate(47.7651,134.5671)"><path
             d="m 0,0 c -2.633,0.699 -5.348,1.191 -8.201,1.191 -17.709,0 -32.064,-14.356 -32.064,-32.065 0,-17.708 14.355,-32.064 32.064,-32.064 17.709,0 32.065,14.356 32.065,32.064 0,2.853 -0.492,5.568 -1.191,8.201"
             style="fill:none;stroke:#000000;stroke-width:15;stroke-linecap:round;stroke-linejoin:round;stroke-miterlimit:10;stroke-dasharray:none;stroke-opacity:1"
             id="path737" /></g></g></g></g></svg>
