<?xml version="1.0" encoding="UTF-8"?><svg id="Layer_1" xmlns="http://www.w3.org/2000/svg" viewBox="0 0 146.25 135.62"><defs><style>.cls-1{fill:#fff;}</style></defs><polygon class="cls-1" points="86.68 86.65 86.68 99.57 99.6 99.57 99.6 94.98 108.93 94.98 108.93 99.57 121.85 99.57 121.85 94.98 130.5 94.98 130.5 99.57 143.42 99.57 143.42 86.65 138.82 86.65 138.82 75.24 143.42 75.24 143.42 62.32 130.5 62.32 130.5 66.92 121.85 66.92 121.85 62.32 108.93 62.32 108.93 75.24 121.85 75.24 121.85 70.64 130.5 70.64 130.5 75.24 135.1 75.24 135.1 86.65 130.5 86.65 130.5 91.25 121.85 91.25 121.85 86.65 108.93 86.65 108.93 91.25 99.6 91.25 99.6 86.65 86.68 86.65"/><path class="cls-1" d="M72.01,19.08c9.45,0,17.11-2.39,17.11-5.34,0-2.94-7.66-5.33-17.12-5.33-9.45,0-17.11,2.39-17.11,5.34,0,2.94,7.66,5.33,17.12,5.33Z"/><path class="cls-1" d="M54.87,34.95c.14,2.91,7.72,5.25,17.07,5.25h.02c9.15,0,16.66-2.26,17.13-5.08v-.03c0-1.8,0-2.98,0-4.77v-.69c-4.11,2.44-10.94,3.43-17.09,3.43-4.93,0-9.62-.61-13.2-1.73-1.63-.51-2.89-1.07-3.92-1.69v5.31Z"/><path class="cls-1" d="M54.83,46.16c0,2.94,7.67,5.33,17.12,5.32,9.45,0,17.11-2.39,17.11-5.34,0-.01,0-2.34,0-5.63v-.03c-1.02.62-2.31,1.2-3.92,1.7-3.58,1.12-8.27,1.73-13.23,1.73s-9.62-.62-13.2-1.73c-1.6-.5-2.87-1.07-3.89-1.68l-.02,5.65Z"/><path class="cls-1" d="M54.9,24.41c.66,2.76,8.09,4.92,17.1,4.92h.01c8.92,0,16.29-2.12,17.09-4.83,0-2.43,0-4.33,0-5.14-4.1,2.46-10.93,3.44-17.11,3.44-4.94,0-9.62-.62-13.2-1.73-1.6-.5-2.86-1.07-3.89-1.68"/><path class="cls-1" d="M1.63,99.57h12.42c.9,0,1.63-.73,1.63-1.63v-33.78c0-1.02-.83-1.84-1.84-1.84H1.84c-1.02,0-1.84.83-1.84,1.84v33.78c0,.9.73,1.63,1.63,1.63Z"/><path class="cls-1" d="M24.58,99.57h12.42c.9,0,1.63-.73,1.63-1.63v-24.38c0-1.02-.83-1.84-1.84-1.84h-12c-1.02,0-1.83.83-1.83,1.84v24.38c0,.9.72,1.63,1.63,1.63Z"/><path class="cls-1" d="M47.52,99.57h12.42c.9,0,1.63-.73,1.63-1.63v-14.6c0-1.02-.83-1.83-1.84-1.83h-12c-1.02,0-1.83.82-1.83,1.83v14.6c0,.9.72,1.63,1.63,1.63Z"/><path class="cls-1" d="M142.28,115.94c-2.7,0-5.28-1.28-6.92-3.42l-.55-.72c-.82-1.07-2.06-1.68-3.4-1.68s-2.58.61-3.4,1.68l-.55.72c-1.64,2.14-4.23,3.42-6.92,3.42h-7.21c-2.7,0-5.28-1.28-6.92-3.42l-.55-.72c-.82-1.07-2.06-1.68-3.4-1.68h0c-1.34,0-2.58.61-3.4,1.68l-.55.72c-1.64,2.14-4.23,3.42-6.92,3.42h-7.21c-2.7,0-5.28-1.28-6.92-3.42l-.55-.72c-.82-1.07-2.06-1.68-3.4-1.68s-2.58.61-3.4,1.68l-.55.72c-1.64,2.14-4.23,3.42-6.92,3.42h-7.21c-2.7,0-5.28-1.28-6.92-3.42l-.55-.72c-.82-1.07-2.05-1.68-3.4-1.68s-2.58.61-3.4,1.68l-.55.72c-1.64,2.14-4.23,3.42-6.92,3.42h-7.93c-2.7,0-5.28-1.28-6.92-3.42l-.55-.72c-.82-1.07-2.05-1.68-3.4-1.68s-2.58.61-3.4,1.68l-.55.72c-1.64,2.14-4.23,3.42-6.92,3.42H0v3.72h3.96c3.85,0,7.54-1.83,9.88-4.89l.55-.72c.14-.19.34-.22.44-.22s.3.03.44.22l.55.72c2.34,3.06,6.03,4.88,9.88,4.88h7.93c3.85,0,7.54-1.83,9.88-4.88l.55-.72c.14-.19.34-.22.44-.22s.3.03.44.22l.55.72c2.34,3.06,6.03,4.88,9.88,4.88h7.21c3.85,0,7.54-1.83,9.88-4.89l.55-.72c.14-.19.34-.22.44-.22s.3.03.44.22l.55.72c2.34,3.06,6.03,4.88,9.88,4.88h7.21c3.85,0,7.54-1.83,9.88-4.89l.55-.72c.14-.19.34-.22.44-.22h0c.1,0,.3.03.44.22l.55.72c2.34,3.06,6.03,4.88,9.88,4.88h7.21c3.85,0,7.54-1.83,9.88-4.89l.55-.72c.14-.19.34-.22.44-.22s.3.03.44.22l.55.72c2.34,3.06,6.03,4.88,9.88,4.88h3.96v-3.72h-3.96Z"/><path class="cls-1" d="M135.36,128.47l-.55-.72c-.82-1.07-2.06-1.68-3.4-1.68s-2.58.61-3.4,1.68l-.55.72c-1.64,2.14-4.23,3.42-6.92,3.42h-7.21c-2.7,0-5.29-1.28-6.92-3.42l-.55-.72c-.82-1.07-2.06-1.68-3.4-1.68h0c-1.34,0-2.58.61-3.4,1.68l-.55.72c-1.64,2.14-4.23,3.42-6.92,3.42h-7.21c-2.7,0-5.28-1.28-6.92-3.42l-.55-.72c-.82-1.07-2.06-1.68-3.4-1.68s-2.58.61-3.4,1.68l-.55.72c-1.64,2.14-4.23,3.42-6.92,3.42h-7.21c-2.7,0-5.29-1.28-6.92-3.42l-.55-.72c-.82-1.07-2.05-1.68-3.4-1.68s-2.58.61-3.4,1.68l-.55.72c-1.64,2.14-4.23,3.42-6.92,3.42h-7.93c-2.7,0-5.28-1.28-6.92-3.42l-.55-.72c-.82-1.07-2.05-1.68-3.4-1.68s-2.58.61-3.4,1.68l-.55.72c-1.64,2.14-4.23,3.42-6.92,3.42H0v3.72h3.96c3.85,0,7.54-1.83,9.88-4.89l.55-.72c.14-.19.34-.22.44-.22s.3.03.44.22l.55.72c2.34,3.06,6.03,4.89,9.88,4.89h7.93c3.85,0,7.54-1.83,9.88-4.88l.55-.72c.14-.19.34-.22.44-.22s.3.03.44.22l.55.72c2.34,3.06,6.03,4.89,9.88,4.89h7.21c3.85,0,7.54-1.83,9.88-4.89l.55-.72c.14-.19.34-.22.44-.22s.3.03.44.22l.55.72c2.34,3.06,6.03,4.89,9.88,4.89h7.21c3.85,0,7.54-1.83,9.88-4.89l.55-.72c.14-.19.34-.22.44-.22h0c.1,0,.3.03.44.22l.55.72c2.34,3.06,6.03,4.89,9.88,4.89h7.21c3.85,0,7.54-1.83,9.88-4.89l.55-.72c.14-.19.34-.22.44-.22s.3.03.44.22l.55.72c2.34,3.06,6.03,4.89,9.88,4.89h3.96v-3.72h-3.96c-2.7,0-5.29-1.28-6.92-3.42Z"/><rect class="cls-1" x="5.98" y="10.84" width="3.72" height="6.1"/><rect class="cls-1" x="5.98" y="32.51" width="3.72" height="6.1"/><rect class="cls-1" x="5.98" y="21.67" width="3.72" height="6.09"/><rect class="cls-1" x="5.98" width="3.72" height="6.09"/><rect class="cls-1" x="5.98" y="43.34" width="3.72" height="6.09"/><rect class="cls-1" x="28.93" y="10.84" width="3.72" height="6.1"/><rect class="cls-1" x="28.93" y="32.51" width="3.72" height="6.1"/><rect class="cls-1" x="28.93" y="21.67" width="3.72" height="6.09"/><rect class="cls-1" x="28.93" y="43.34" width="3.72" height="6.09"/><rect class="cls-1" x="28.93" width="3.72" height="6.09"/><rect class="cls-1" x="111.7" y="10.84" width="3.72" height="6.1"/><rect class="cls-1" x="111.7" width="3.72" height="6.09"/><rect class="cls-1" x="111.7" y="21.67" width="3.72" height="6.09"/><rect class="cls-1" x="111.7" y="43.34" width="3.72" height="6.09"/><rect class="cls-1" x="111.7" y="32.51" width="3.72" height="6.1"/><rect class="cls-1" x="134.25" y="10.84" width="3.72" height="6.1"/><rect class="cls-1" x="134.25" width="3.72" height="6.09"/><rect class="cls-1" x="134.25" y="32.51" width="3.72" height="6.1"/><rect class="cls-1" x="134.25" y="43.34" width="3.72" height="6.09"/><rect class="cls-1" x="134.25" y="21.67" width="3.72" height="6.09"/></svg>