<?xml version="1.0" encoding="UTF-8"?><svg id="Layer_1" xmlns="http://www.w3.org/2000/svg" xmlns:xlink="http://www.w3.org/1999/xlink" viewBox="0 0 1145.5 1235.46"><defs><style>.cls-1{fill:none;}.cls-2{mask:url(#mask);}.cls-3,.cls-4,.cls-5,.cls-6{fill:#d2d2d2;}.cls-7{fill:url(#linear-gradient);}.cls-4{opacity:.3;}.cls-5{opacity:.6;}.cls-6{opacity:.9;}.cls-8{opacity:.8;}.cls-9{opacity:.35;}.cls-10{opacity:.1;}.cls-11{opacity:.15;}.cls-12{fill:#fbfbfb;}.cls-13{clip-path:url(#clippath);}</style><clipPath id="clippath"><rect class="cls-1" width="1145.5" height="1235.46"/></clipPath><linearGradient id="linear-gradient" x1="170.72" y1="1135.44" x2="170.72" y2="207.3" gradientUnits="userSpaceOnUse"><stop offset=".08" stop-color="#241f20"/><stop offset=".25" stop-color="#e3e2e2"/><stop offset=".49" stop-color="#fff"/><stop offset=".7" stop-color="#b8b7b7"/><stop offset=".88" stop-color="#241f20"/></linearGradient><mask id="mask" x="-1078.69" y="-753.02" width="2498.82" height="2903.14" maskUnits="userSpaceOnUse"><rect class="cls-7" x="-1078.19" y="207.3" width="2497.81" height="928.14"/><path d="M1419.12,207.8v927.13H-1077.69V207.8H1419.12M1420.13,206.8H-1078.69v929.14H1420.13V206.8h0Z"/></mask></defs><g class="cls-13"><g class="cls-2"><g class="cls-10"><polygon class="cls-4" points="676.65 -82.76 729.05 -113.01 781.42 -82.76 781.42 -22.28 729.05 7.97 676.65 -22.28 676.65 -82.76"/><polygon class="cls-4" points="514.05 11.12 566.43 -19.12 618.83 11.12 618.83 71.62 566.43 101.85 514.05 71.62 514.05 11.12"/><polygon class="cls-5" points="739.79 16.27 783.25 -8.82 826.72 16.27 826.72 66.46 783.25 91.55 739.79 66.46 739.79 16.27"/><polygon class="cls-6" points="631.4 16.27 674.83 -8.82 718.3 16.27 718.3 66.46 674.83 91.55 631.4 66.47 631.4 16.27"/><polygon class="cls-5" points="730.87 762.2 783.23 731.96 835.62 762.2 835.62 822.67 783.23 852.92 730.87 822.67 730.87 762.2"/><polygon class="cls-4" points="631.39 767.35 674.83 742.26 718.3 767.35 718.3 817.52 674.83 842.62 631.39 817.53 631.39 767.35"/><polygon class="cls-6" points="573.78 671.5 620.64 644.45 667.48 671.5 667.48 725.61 620.64 752.64 573.78 725.61 573.78 671.5"/><polygon class="cls-4" points="739.79 579.58 783.23 554.48 826.7 579.58 826.7 629.76 783.23 654.86 739.79 629.76 739.79 579.58"/><polygon class="cls-5" points="785.05 292.78 837.45 262.55 889.84 292.78 889.84 353.25 837.45 383.52 785.05 353.25 785.05 292.78"/><polygon class="cls-5" points="622.47 574.43 674.83 544.18 727.22 574.43 727.22 634.91 674.83 665.16 622.47 634.91 622.47 574.43"/><polygon class="cls-4" points="739.79 391.82 783.23 366.71 826.7 391.82 826.7 442 783.23 467.08 739.79 442 739.79 391.82"/><polygon class="cls-4" points="577.16 485.68 620.64 460.6 664.1 485.68 664.1 535.88 620.64 560.97 577.16 535.88 577.16 485.68"/><polygon class="cls-5" points="622.47 386.67 674.83 356.4 727.22 386.67 727.22 447.15 674.83 477.38 622.47 447.15 622.47 386.67"/><polygon class="cls-4" points="459.85 292.78 512.23 262.55 564.59 292.78 564.59 353.25 512.23 383.52 459.85 353.25 459.85 292.78"/><polygon class="cls-4" points="631.39 204.04 674.83 178.95 718.3 204.04 718.3 254.24 674.83 279.33 631.39 254.24 631.39 204.04"/><polygon class="cls-4" points="785.05 105.01 837.45 74.76 889.84 105.01 889.84 165.49 837.45 195.74 785.05 165.49 785.05 105.01"/><polygon class="cls-5" points="568.24 105.01 620.64 74.76 673.02 105.01 673.02 165.49 620.64 195.74 568.24 165.49 568.24 105.01"/><polygon class="cls-6" points="691.52 864.67 729.04 843.01 766.54 864.67 766.54 907.97 729.04 929.65 691.52 907.97 691.52 864.67"/><polygon class="cls-6" points="691.52 301.36 729.04 279.72 766.54 301.36 766.54 344.67 729.04 366.35 691.52 344.67 691.52 301.36"/><polygon class="cls-6" points="691.52 676.89 729.04 655.22 766.54 676.88 766.54 720.22 729.04 741.87 691.52 720.22 691.52 676.89"/><polygon class="cls-6" points="799.92 489.12 837.45 467.47 874.97 489.12 874.97 532.45 837.45 554.1 799.92 532.45 799.92 489.12"/><polygon class="cls-6" points="528.92 395.25 566.42 373.57 603.95 395.25 603.95 438.56 566.42 460.21 528.92 438.56 528.92 395.25"/><polygon class="cls-6" points="528.92 207.47 566.42 185.82 603.95 207.47 603.95 250.81 566.42 272.46 528.92 250.81 528.92 207.47"/><polygon class="cls-6" points="854.13 207.48 891.66 185.82 929.16 207.47 929.16 250.81 891.66 272.46 854.13 250.81 854.13 207.48"/><polygon class="cls-6" points="691.52 113.6 729.04 91.93 766.54 113.6 766.54 156.91 729.04 178.57 691.52 156.9 691.52 113.6"/><polygon class="cls-5" points="510.41 634.9 458.04 665.14 405.65 634.9 405.65 574.42 458.04 544.17 510.41 574.42 510.41 634.9"/><polygon class="cls-4" points="609.88 629.75 566.44 654.84 522.97 629.75 522.97 579.57 566.44 554.47 609.88 579.57 609.88 629.75"/><polygon class="cls-4" points="501.49 817.52 458.04 842.61 414.57 817.52 414.57 767.34 458.04 742.24 501.49 767.34 501.49 817.52"/><polygon class="cls-5" points="456.22 1104.32 403.83 1134.54 351.43 1104.32 351.43 1043.84 403.83 1013.57 456.22 1043.84 456.22 1104.32"/><polygon class="cls-5" points="618.8 822.66 566.44 852.91 514.05 822.66 514.05 762.19 566.44 731.93 618.8 762.19 618.8 822.66"/><polygon class="cls-4" points="501.49 1005.28 458.04 1030.39 414.57 1005.28 414.57 955.09 458.04 930.02 501.49 955.09 501.49 1005.28"/><polygon class="cls-4" points="664.11 911.41 620.64 936.49 577.17 911.41 577.17 861.21 620.64 836.13 664.11 861.21 664.11 911.41"/><polygon class="cls-5" points="618.8 1010.43 566.44 1040.69 514.05 1010.43 514.05 949.94 566.44 919.72 618.8 949.94 618.8 1010.43"/><polygon class="cls-4" points="781.42 1104.32 729.05 1134.54 676.68 1104.32 676.68 1043.84 729.05 1013.57 781.42 1043.84 781.42 1104.32"/><polygon class="cls-4" points="609.88 1193.06 566.44 1218.14 522.97 1193.05 522.97 1142.85 566.44 1117.77 609.88 1142.85 609.88 1193.06"/><polygon class="cls-4" points="456.22 1292.08 403.83 1322.33 351.43 1292.08 351.43 1231.61 403.83 1201.36 456.22 1231.61 456.22 1292.08"/><polygon class="cls-5" points="673.03 1292.08 620.64 1322.33 568.25 1292.08 568.25 1231.61 620.64 1201.36 673.03 1231.61 673.03 1292.08"/><polygon class="cls-6" points="549.75 532.42 512.23 554.09 474.73 532.42 474.73 489.13 512.23 467.45 549.75 489.13 549.75 532.42"/><polygon class="cls-6" points="549.75 1095.73 512.23 1117.38 474.73 1095.73 474.73 1052.42 512.23 1030.75 549.75 1052.43 549.75 1095.73"/><polygon class="cls-6" points="549.75 720.21 512.23 741.87 474.73 720.21 474.73 676.87 512.23 655.23 549.75 676.88 549.75 720.21"/><polygon class="cls-6" points="441.35 907.98 403.83 929.63 366.3 907.98 366.3 864.65 403.83 842.99 441.35 864.65 441.35 907.98"/><polygon class="cls-6" points="712.35 1001.85 674.85 1023.52 637.33 1001.85 637.33 958.53 674.85 936.88 712.35 958.53 712.35 1001.85"/><polygon class="cls-6" points="712.35 1189.62 674.85 1211.28 637.33 1189.62 637.33 1146.29 674.85 1124.63 712.35 1146.28 712.35 1189.62"/><polygon class="cls-6" points="387.14 1189.62 349.61 1211.28 312.11 1189.62 312.11 1146.28 349.61 1124.63 387.14 1146.29 387.14 1189.62"/><polygon class="cls-6" points="549.75 1283.5 512.23 1305.16 474.73 1283.5 474.73 1240.19 512.23 1218.52 549.75 1240.19 549.75 1283.5"/></g><g class="cls-11"><path class="cls-3" d="M972.81,422.18c0-3.68-2.97-6.65-6.65-6.65-2.2,0-4.14,1.09-5.36,2.75l-75.62-43.66c.37-.82.58-1.73.58-2.69,0-3.44-2.6-6.23-5.95-6.59v-87.34c3.34-.37,5.95-3.15,5.95-6.58,0-3.67-2.97-6.64-6.65-6.64-2.2,0-4.14,1.08-5.35,2.73l-75.61-43.65c.37-.83.58-1.73.58-2.7,0-2.57-1.46-4.78-3.6-5.87-.72-.37-1.51-.61-2.34-.7v-87.35c3.34-.35,5.94-3.14,5.94-6.58,0-.95-.21-1.85-.58-2.68l-.72-1.21c-1.2-1.66-3.15-2.75-5.34-2.75s-4.15,1.09-5.36,2.75l-75.6-43.67c.35-.82.57-1.73.57-2.69,0-3.43-2.6-6.22-5.93-6.57V-23.49c3.33-.36,5.93-3.14,5.93-6.58,0-.95-.22-1.86-.58-2.69l-.71-1.22c-1.21-1.65-3.14-2.73-5.35-2.73s-4.15,1.09-5.35,2.73l-.72,1.22c-.37.83-.58,1.74-.58,2.69,0,3.44,2.62,6.23,5.95,6.58V63.86c-3.33.35-5.95,3.14-5.95,6.57,0,.96.22,1.87.58,2.69l-75.6,43.67h0c-1.2-1.67-3.14-2.75-5.35-2.75,0,0,0,0,0,0,0,0,0,0,0,0-.03,0-.06.01-.08.01-.48,0-.94.07-1.38.17-.16.04-.3.09-.45.14-.32.1-.63.21-.93.36-.14.07-.28.15-.42.23-.3.17-.58.36-.84.57-.11.09-.22.17-.32.26-.29.26-.55.55-.79.86-.04.05-.1.09-.14.15l-75.62-43.67c.37-.82.58-1.73.58-2.69,0-3.43-2.6-6.22-5.93-6.57h-1.42c-3.34.35-5.93,3.14-5.93,6.57,0,3.67,2.98,6.66,6.64,6.66,2.21,0,4.15-1.1,5.35-2.75l75.62,43.66s-.01.04-.02.05c-.08.18-.12.37-.18.55-.22.66-.38,1.35-.38,2.07,0,2.83,1.81,5.14,4.3,6.09.53.21,1.06.43,1.65.49v87.35c-3.34.35-5.95,3.14-5.95,6.58,0,.96.21,1.87.58,2.69l-75.6,43.65c-1.22-1.66-3.16-2.74-5.36-2.74s-4.14,1.09-5.34,2.74l-.72,1.22c-.37.82-.58,1.73-.58,2.69,0,3.42,2.6,6.21,5.94,6.57v87.35c-3.34.35-5.94,3.14-5.94,6.57,0,.96.21,1.86.58,2.69l-75.61,43.65c-1.21-1.65-3.16-2.74-5.35-2.74s-4.15,1.09-5.36,2.74l-.71,1.22c-.37.82-.58,1.73-.58,2.69,0,3.43,2.6,6.22,5.95,6.57h1.4c3.34-.36,5.94-3.14,5.94-6.57,0-.96-.22-1.87-.58-2.69l75.62-43.65c1.2,1.66,3.15,2.74,5.34,2.74s4.16-1.08,5.36-2.74l75.6,43.65c-.04.08-.05.18-.09.26-.3.75-.5,1.57-.5,2.43,0,3.43,2.6,6.22,5.95,6.57h0v87.35c-3.33.36-5.93,3.15-5.93,6.58,0,.96.22,1.87.57,2.69l.72,1.22c1.21,1.66,3.14,2.75,5.35,2.75s4.15-1.09,5.35-2.75l.72-1.22c.37-.82.58-1.73.58-2.69,0-3.43-2.62-6.22-5.95-6.58v-87.35c1.66-.18,3.14-.96,4.21-2.13,1.08-1.17,1.73-2.73,1.73-4.45,0-.96-.22-1.87-.58-2.69l75.6-43.65c.9,1.24,2.22,2.16,3.76,2.54.51.13,1.05.2,1.61.2,2.21,0,4.14-1.08,5.35-2.73l75.61,43.66c-.37.82-.58,1.73-.58,2.69,0,3.43,2.6,6.22,5.95,6.57v87.35c-3.34.36-5.95,3.14-5.95,6.57,0,.97.21,1.87.58,2.69l.71,1.22c1.22,1.66,3.16,2.75,5.36,2.75s4.14-1.09,5.34-2.75l.72-1.22c.37-.82.58-1.73.58-2.69,0-3.42-2.6-6.21-5.94-6.57v-87.35c.84-.09,1.63-.33,2.35-.7.17-.09.28-.24.44-.34.51-.32,1.03-.65,1.43-1.1,1.07-1.17,1.72-2.73,1.72-4.44,0-.96-.21-1.86-.57-2.68l75.6-43.66c1.21,1.66,3.16,2.73,5.35,2.73s4.15-1.08,5.36-2.73l75.62,43.66c-.37.82-.59,1.73-.59,2.69,0,3.43,2.61,6.22,5.94,6.57h1.41c3.33-.35,5.94-3.14,5.94-6.57ZM612.67,225.09c.29.4.63.76,1.01,1.08.03.03.07.06.11.09.32.27.67.5,1.04.71.1.06.19.11.29.16.33.16.67.29,1.03.39.13.04.26.09.4.12.43.1.87.15,1.32.16.06,0,.11.02.17.02,2.21,0,4.15-1.09,5.35-2.74l28.3,16.34,47.3,27.32c-.37.82-.58,1.72-.58,2.69,0,2.57,1.48,4.78,3.62,5.88.02,0,.04,0,.06.02.7.35,1.46.59,2.26.68v87.34c-3.33.36-5.95,3.14-5.95,6.59,0,.96.22,1.87.58,2.69l-37.11,21.44-38.49,22.22c-1.2-1.65-3.14-2.74-5.35-2.74,0,0,0,0,0,0,0,0,0,0,0,0-2.19,0-4.14,1.09-5.34,2.74l-75.61-43.65c.37-.83.58-1.74.58-2.69,0-3.43-2.6-6.22-5.95-6.57v-87.35c3.34-.36,5.95-3.15,5.95-6.57,0-.96-.21-1.87-.58-2.69l75.61-43.65ZM791.39,214.61c-3.34.35-5.95,3.14-5.95,6.58,0,.96.21,1.87.58,2.69l-4.85,2.8-70.76,40.85c-1.21-1.65-3.14-2.73-5.35-2.73-.55,0-1.09.07-1.6.2-1.54.38-2.86,1.29-3.76,2.54l-17.35-10.01-58.26-33.65c.37-.82.58-1.72.58-2.69,0-2.57-1.47-4.78-3.61-5.87-.71-.37-1.5-.6-2.33-.69v-87.35c3.33-.36,5.95-3.15,5.95-6.58,0-.96-.22-1.86-.58-2.69h0s75.6-43.66,75.6-43.66c1.2,1.66,3.14,2.75,5.35,2.75s4.15-1.1,5.35-2.75l75.62,43.66c-.37.83-.58,1.73-.58,2.68,0,3.44,2.6,6.23,5.95,6.58v87.35ZM878.43,365.35c-3.34.36-5.94,3.14-5.94,6.59,0,.96.22,1.87.58,2.69l-75.61,43.66c-.29-.4-.63-.76-1-1.08-.03-.03-.07-.06-.11-.09-.33-.27-.68-.52-1.06-.72-.09-.05-.17-.1-.26-.14-.35-.17-.71-.31-1.09-.42-.11-.03-.22-.08-.34-.11-.48-.11-.97-.18-1.49-.18,0,0,0,0,0,0-.23,0-.44.06-.66.08-1.39.14-2.66.67-3.66,1.54-.38.33-.73.71-1.03,1.12l-75.61-43.65c.37-.83.58-1.73.58-2.69,0-2.57-1.47-4.79-3.61-5.88-.71-.37-1.5-.61-2.34-.7v-87.34c3.34-.36,5.95-3.15,5.95-6.57,0-.96-.22-1.87-.58-2.69l17.47-10.09,58.14-33.57c.3.41.65.79,1.04,1.12,1.16,1.01,2.66,1.62,4.32,1.62.53,0,1.03-.08,1.52-.19.08-.02.16-.05.24-.07.41-.11.81-.26,1.18-.45.07-.04.14-.07.21-.11.4-.22.76-.47,1.11-.75.03-.02.05-.04.08-.06.38-.33.72-.69,1.01-1.09l75.61,43.66c-.36.82-.58,1.72-.58,2.69,0,3.42,2.6,6.21,5.94,6.58v87.34Z"/><path class="cls-3" d="M1233.9,874.42c0-3.67-2.96-6.65-6.64-6.65-2.2,0-4.14,1.09-5.35,2.75l-75.61-43.65c.36-.82.57-1.74.57-2.69,0-3.44-2.6-6.23-5.94-6.58v-87.35c3.33-.36,5.94-3.14,5.94-6.57,0-.96-.21-1.87-.57-2.69l-.72-1.22c-1.21-1.66-3.14-2.74-5.36-2.74s-4.14,1.09-5.35,2.74l-75.62-43.66c.37-.82.58-1.72.58-2.69,0-3.42-2.6-6.22-5.94-6.58v-87.35c3.34-.36,5.94-3.14,5.94-6.57,0-.97-.21-1.87-.58-2.69l-.71-1.22c-1.22-1.65-3.16-2.74-5.35-2.74s-4.15,1.09-5.36,2.74l-.71,1.22c-.37.82-.58,1.72-.58,2.69,0,3.42,2.6,6.21,5.94,6.57v87.35c-3.34.36-5.94,3.16-5.94,6.58,0,.97.21,1.87.58,2.69l-75.61,43.66c-1.21-1.66-3.15-2.74-5.35-2.74s-4.14,1.09-5.36,2.74l-75.62-43.66c.37-.82.58-1.72.58-2.69,0-3.42-2.6-6.22-5.95-6.58h-1.4c-3.34.36-5.94,3.16-5.94,6.58,0,.97.22,1.87.58,2.69l-75.62,43.66c-1.2-1.66-3.15-2.74-5.34-2.74-3.68,0-6.65,2.97-6.65,6.65,0,3.43,2.6,6.22,5.95,6.57v87.35c-3.34.35-5.95,3.14-5.95,6.58,0,.95.21,1.87.58,2.69l.71,1.21c1.22,1.66,3.16,2.75,5.36,2.75s4.14-1.09,5.34-2.75l75.62,43.66c-.36.82-.58,1.73-.58,2.69,0,3.43,2.6,6.22,5.94,6.58h1.4c3.34-.36,5.95-3.15,5.95-6.58,0-.96-.21-1.87-.58-2.69l75.62-43.66c1.21,1.66,3.15,2.75,5.36,2.75s4.14-1.09,5.35-2.75l75.61,43.66c-.37.82-.58,1.73-.58,2.69,0,3.43,2.6,6.22,5.94,6.58v87.36c-3.34.36-5.94,3.14-5.94,6.57,0,3.67,2.97,6.64,6.64,6.64,2.2,0,4.14-1.09,5.35-2.74l.71-1.22c.37-.82.58-1.73.58-2.69,0-3.43-2.6-6.22-5.94-6.57v-87.36c3.34-.36,5.94-3.15,5.94-6.58,0-.96-.21-1.87-.58-2.69l75.62-43.66c1.21,1.66,3.14,2.75,5.35,2.75s4.14-1.09,5.36-2.75l75.62,43.66c-.36.82-.57,1.73-.57,2.69,0,3.43,2.6,6.22,5.93,6.58h1.42c3.32-.36,5.93-3.15,5.93-6.58ZM965.46,817.6c-3.33.35-5.94,3.14-5.94,6.58,0,.95.22,1.87.59,2.69l-75.62,43.65c-1.21-1.66-3.15-2.75-5.36-2.75s-4.14,1.09-5.35,2.75l-75.61-43.65c.37-.82.58-1.74.58-2.69,0-3.44-2.6-6.23-5.94-6.58v-87.35c3.34-.36,5.94-3.14,5.94-6.57,0-.96-.21-1.87-.58-2.69l75.61-43.65c1.21,1.66,3.16,2.73,5.35,2.73s4.15-1.07,5.36-2.73l75.62,43.65c-.37.82-.59,1.73-.59,2.69,0,3.43,2.61,6.22,5.94,6.57v87.35ZM1139.52,817.6c-3.33.35-5.93,3.14-5.93,6.58,0,.95.21,1.86.57,2.69l-75.61,43.65c-1.22-1.66-3.16-2.75-5.35-2.75s-4.15,1.09-5.36,2.75l-75.61-43.65c.37-.82.59-1.74.59-2.69,0-3.44-2.61-6.23-5.94-6.58v-87.35c3.33-.36,5.94-3.14,5.94-6.57,0-.96-.22-1.87-.59-2.69l75.61-43.65c1.21,1.66,3.15,2.73,5.36,2.73s4.14-1.07,5.35-2.73l75.62,43.65c-.37.82-.58,1.73-.58,2.69,0,3.43,2.6,6.22,5.93,6.57v87.35Z"/><path class="cls-3" d="M350.28,974.91c0,3.68,2.97,6.65,6.65,6.65,2.2,0,4.14-1.09,5.36-2.75l75.62,43.66c-.37.82-.58,1.73-.58,2.69,0,3.44,2.6,6.23,5.95,6.59v87.34c-3.34.37-5.95,3.15-5.95,6.58,0,3.67,2.97,6.64,6.65,6.64,2.2,0,4.14-1.08,5.35-2.73l75.61,43.65c-.37.83-.58,1.73-.58,2.7,0,2.57,1.46,4.78,3.6,5.87.71.37,1.51.61,2.34.7v87.35c-3.34.35-5.94,3.14-5.94,6.58,0,.95.21,1.85.58,2.68l.72,1.21c1.2,1.66,3.15,2.75,5.34,2.75s4.15-1.09,5.36-2.75l75.6,43.67c-.35.82-.57,1.73-.57,2.69,0,3.43,2.6,6.22,5.93,6.57v87.35c-3.33.36-5.93,3.14-5.93,6.58,0,.95.22,1.86.58,2.69l.71,1.22c1.21,1.65,3.14,2.73,5.35,2.73s4.15-1.09,5.35-2.73l.72-1.22c.37-.83.58-1.74.58-2.69,0-3.44-2.62-6.23-5.95-6.58v-87.35c3.33-.35,5.95-3.14,5.95-6.57,0-.96-.22-1.87-.58-2.69l75.6-43.67h0c1.2,1.67,3.14,2.75,5.35,2.75,0,0,0,0,0,0,0,0,0,0,0,0,.03,0,.06-.01.1-.01.47,0,.93-.07,1.37-.17.16-.04.3-.09.46-.14.32-.1.63-.21.93-.36.14-.07.28-.15.42-.23.3-.17.57-.36.84-.57.11-.09.22-.17.32-.26.29-.26.55-.55.78-.85.04-.06.1-.1.14-.15l75.62,43.67c-.37.82-.58,1.73-.58,2.69,0,3.43,2.6,6.22,5.93,6.57h1.42c3.34-.35,5.93-3.14,5.93-6.57,0-3.67-2.98-6.66-6.64-6.66-2.21,0-4.15,1.1-5.35,2.75l-75.62-43.66s.01-.04.02-.05c.08-.17.12-.36.18-.55.22-.66.38-1.35.38-2.08,0-2.86-1.84-5.18-4.37-6.11-.51-.19-1.01-.41-1.58-.47v-87.35c3.34-.35,5.95-3.14,5.95-6.58,0-.96-.21-1.87-.58-2.69l75.6-43.65c1.22,1.66,3.16,2.74,5.36,2.74s4.14-1.09,5.34-2.74l.72-1.22c.37-.82.58-1.73.58-2.69,0-3.42-2.6-6.21-5.94-6.57v-87.35c3.34-.35,5.94-3.14,5.94-6.57,0-.96-.21-1.86-.58-2.69l75.61-43.65c1.21,1.65,3.16,2.74,5.35,2.74s4.15-1.09,5.36-2.74l.71-1.22c.37-.82.58-1.73.58-2.69,0-3.43-2.6-6.22-5.95-6.57h-1.4c-3.34.36-5.94,3.14-5.94,6.57,0,.96.22,1.87.58,2.69l-75.62,43.65c-1.2-1.66-3.15-2.74-5.34-2.74s-4.16,1.08-5.36,2.74l-75.6-43.65c.04-.09.06-.19.09-.29.3-.75.49-1.55.49-2.41,0-3.43-2.6-6.22-5.95-6.57h0v-87.35c3.33-.36,5.93-3.15,5.93-6.58,0-.96-.22-1.87-.57-2.69l-.72-1.22c-1.21-1.66-3.14-2.75-5.35-2.75s-4.15,1.09-5.35,2.75l-.72,1.22c-.37.82-.58,1.73-.58,2.69,0,3.43,2.62,6.22,5.95,6.58v87.35c-1.66.18-3.14.96-4.21,2.13-1.08,1.17-1.74,2.73-1.74,4.45,0,.96.22,1.87.58,2.69l-75.6,43.65c-.9-1.24-2.22-2.16-3.76-2.54-.51-.13-1.05-.2-1.61-.2-2.21,0-4.14,1.08-5.35,2.73l-75.61-43.66c.37-.82.58-1.73.58-2.69,0-3.43-2.6-6.22-5.95-6.57v-87.35c3.34-.36,5.95-3.14,5.95-6.57,0-.97-.21-1.87-.58-2.69l-.71-1.22c-1.22-1.66-3.16-2.75-5.36-2.75s-4.14,1.09-5.34,2.75l-.72,1.22c-.37.82-.58,1.73-.58,2.69,0,3.42,2.6,6.21,5.94,6.57v87.35c-.84.09-1.63.33-2.35.7-.27.14-.47.37-.72.55-.4.28-.83.53-1.16.89-1.07,1.17-1.72,2.73-1.72,4.44,0,.96.21,1.86.57,2.68l-75.6,43.66c-1.21-1.66-3.16-2.73-5.35-2.73s-4.15,1.08-5.36,2.73l-75.62-43.66c.37-.82.59-1.73.59-2.69,0-3.43-2.61-6.22-5.94-6.57h-1.41c-3.33.35-5.94,3.14-5.94,6.57ZM710.42,1172c-.29-.4-.63-.76-1.01-1.08-.04-.03-.07-.06-.11-.09-.32-.27-.67-.5-1.04-.71-.1-.06-.2-.11-.3-.16-.33-.16-.67-.28-1.02-.39-.14-.04-.27-.09-.41-.13-.42-.1-.86-.15-1.31-.16-.06,0-.12-.02-.18-.02-2.21,0-4.15,1.09-5.35,2.74l-29.54-17.06-46.06-26.6c.37-.82.58-1.72.58-2.69,0-3.42-2.62-6.21-5.95-6.58v-87.34c3.33-.36,5.95-3.14,5.95-6.59,0-.96-.22-1.87-.58-2.69l37.34-21.56,38.27-22.09c1.2,1.65,3.14,2.74,5.35,2.74,0,0,0,0,0,0,0,0,0,0,.01,0,2.19,0,4.14-1.09,5.34-2.74l75.61,43.65c-.37.83-.58,1.74-.58,2.69,0,3.43,2.6,6.22,5.95,6.57v87.35c-3.34.36-5.95,3.15-5.95,6.57,0,.96.21,1.87.58,2.69l-75.61,43.65ZM531.7,1182.49c3.34-.35,5.95-3.14,5.95-6.58,0-.96-.21-1.87-.58-2.69l5.55-3.21,70.05-40.44c1.21,1.65,3.14,2.73,5.35,2.73.55,0,1.09-.07,1.6-.2,1.54-.38,2.86-1.29,3.76-2.54l17.23,9.95,58.37,33.71c-.37.82-.58,1.72-.58,2.69,0,2.57,1.47,4.78,3.62,5.87.71.36,1.5.6,2.33.69v87.35c-3.33.36-5.95,3.15-5.95,6.58,0,.96.22,1.86.58,2.69h0s-75.6,43.66-75.6,43.66c-1.2-1.66-3.14-2.75-5.35-2.75s-4.15,1.1-5.35,2.75l-75.62-43.66c.37-.83.58-1.73.58-2.68,0-3.44-2.6-6.23-5.95-6.58v-87.35ZM444.67,1031.75c3.34-.36,5.94-3.14,5.94-6.59,0-.96-.22-1.87-.58-2.69l75.61-43.66c.29.4.63.76,1,1.08.03.03.07.06.11.09.33.27.68.52,1.06.72.09.05.17.1.26.14.35.17.71.31,1.08.41.12.03.22.08.34.11.47.11.96.18,1.47.18,0,0,.01,0,.02,0,.41,0,.79-.07,1.18-.14,1.19-.22,2.27-.71,3.14-1.47.38-.33.73-.71,1.03-1.12l75.61,43.65c-.37.83-.58,1.73-.58,2.69,0,2.57,1.47,4.79,3.61,5.88.71.37,1.5.61,2.34.7v87.34c-3.34.36-5.95,3.15-5.95,6.57,0,.96.22,1.87.58,2.69l-17.72,10.23-57.89,33.42c-.3-.41-.65-.79-1.04-1.12-1.16-1.01-2.66-1.62-4.32-1.62-.53,0-1.03.08-1.53.19-.08.02-.15.05-.23.07-.42.11-.81.27-1.19.45-.07.04-.14.07-.2.11-.4.22-.76.47-1.11.76-.03.02-.05.04-.08.07-.38.33-.72.69-1.01,1.09l-75.61-43.66c.36-.82.58-1.72.58-2.69,0-3.42-2.6-6.21-5.94-6.58v-87.34Z"/><path class="cls-3" d="M437.9,525.37l-75.62,43.66c-1.21-1.66-3.15-2.75-5.36-2.75s-4.14,1.09-5.35,2.75l-75.61-43.66c.37-.82.58-1.73.58-2.69,0-3.43-2.6-6.22-5.94-6.58v-87.36c3.34-.36,5.94-3.14,5.94-6.57,0-3.67-2.97-6.64-6.64-6.64-2.2,0-4.14,1.09-5.35,2.74l-.71,1.22c-.37.82-.58,1.73-.58,2.69,0,3.43,2.6,6.22,5.94,6.57v87.36c-3.34.36-5.94,3.15-5.94,6.58,0,.96.21,1.87.58,2.69l-75.62,43.66c-1.21-1.66-3.14-2.75-5.35-2.75s-4.14,1.09-5.36,2.75l-75.62-43.66c.36-.82.57-1.73.57-2.69,0-3.43-2.6-6.22-5.93-6.58h-1.42c-3.32.36-5.93,3.15-5.93,6.58,0,3.67,2.96,6.65,6.64,6.65,2.2,0,4.14-1.09,5.35-2.75l75.61,43.65c-.36.82-.57,1.74-.57,2.69,0,3.44,2.6,6.23,5.94,6.58v87.35c-3.33.36-5.94,3.14-5.94,6.57,0,.96.21,1.87.57,2.69l.72,1.22c1.21,1.66,3.14,2.74,5.36,2.74s4.14-1.09,5.35-2.74l75.62,43.66c-.37.82-.58,1.72-.58,2.69,0,3.42,2.6,6.23,5.94,6.58v87.35c-3.34.36-5.94,3.14-5.94,6.57,0,.97.21,1.87.58,2.69l.71,1.22c1.22,1.65,3.16,2.74,5.35,2.74s4.15-1.09,5.36-2.74l.71-1.22c.37-.82.58-1.72.58-2.69,0-3.42-2.6-6.21-5.94-6.57v-87.35c3.34-.36,5.94-3.16,5.94-6.58,0-.97-.21-1.87-.58-2.69l75.61-43.66c1.21,1.66,3.15,2.74,5.35,2.74s4.14-1.09,5.36-2.74l75.62,43.66c-.37.82-.58,1.72-.58,2.69,0,3.42,2.6,6.23,5.95,6.58h1.4c3.34-.36,5.94-3.16,5.94-6.58,0-.97-.22-1.87-.58-2.69l75.62-43.66c1.2,1.66,3.15,2.74,5.34,2.74,3.68,0,6.65-2.97,6.65-6.65,0-3.43-2.6-6.22-5.95-6.57v-87.35c3.34-.35,5.95-3.14,5.95-6.58,0-.95-.21-1.87-.58-2.69l-.71-1.21c-1.22-1.66-3.16-2.75-5.36-2.75s-4.14,1.09-5.34,2.75l-75.62-43.66c.36-.82.58-1.73.58-2.69,0-3.43-2.6-6.22-5.94-6.58h-1.4c-3.34.36-5.95,3.15-5.95,6.58,0,.96.21,1.87.58,2.69ZM356.23,666.85c-3.33.36-5.94,3.14-5.94,6.57,0,.96.22,1.87.59,2.69l-75.61,43.65c-1.21-1.66-3.15-2.73-5.36-2.73s-4.14,1.07-5.35,2.73l-75.62-43.65c.37-.82.58-1.73.58-2.69,0-3.43-2.6-6.22-5.93-6.57v-87.35c3.33-.35,5.93-3.14,5.93-6.58,0-.95-.21-1.86-.57-2.69l75.61-43.65c1.22,1.66,3.16,2.75,5.35,2.75s4.15-1.09,5.36-2.75l75.61,43.65c-.37.82-.59,1.74-.59,2.69,0,3.44,2.61,6.23,5.94,6.58v87.35ZM438.61,526.58c1.21,1.66,3.15,2.75,5.36,2.75s4.14-1.09,5.35-2.75l75.61,43.65c-.37.82-.58,1.74-.58,2.69,0,3.44,2.6,6.23,5.94,6.58v87.35c-3.34.36-5.94,3.14-5.94,6.57,0,.96.21,1.87.58,2.69l-75.61,43.65c-1.21-1.66-3.16-2.73-5.35-2.73s-4.15,1.07-5.36,2.73l-75.62-43.65c.37-.82.59-1.73.59-2.69,0-3.43-2.61-6.22-5.94-6.57v-87.35c3.33-.35,5.94-3.14,5.94-6.58,0-.95-.22-1.87-.59-2.69l75.62-43.65Z"/></g><g class="cls-9"><path class="cls-3" d="M818.89,893.02h-1.01c-2.4.26-4.28,2.27-4.28,4.74,0,.69.16,1.35.42,1.94l-54.51,31.47c-.87-1.19-2.27-1.97-3.86-1.97s-2.99.78-3.86,1.97l-54.5-31.47c.26-.59.41-1.24.41-1.93,0-1.24-.47-2.36-1.24-3.2-.29-.32-.66-.56-1.03-.79-.11-.07-.2-.18-.32-.24-.52-.27-1.09-.44-1.69-.51v-62.96c2.41-.26,4.28-2.27,4.28-4.73,0-.7-.15-1.35-.41-1.94l-.52-.88c-.87-1.19-2.27-1.98-3.85-1.98s-2.99.79-3.87,1.98l-.51.88c-.27.59-.42,1.24-.42,1.94,0,2.47,1.88,4.48,4.29,4.73v62.96c-2.41.26-4.29,2.27-4.29,4.74,0,.69.15,1.35.42,1.94l-54.5,31.47c-.87-1.19-2.26-1.97-3.86-1.97-.4,0-.79.05-1.16.14-1.11.27-2.06.93-2.71,1.83l-54.5-31.47c.26-.59.42-1.24.42-1.94,0-1.24-.48-2.36-1.25-3.2-.77-.84-1.84-1.4-3.03-1.54v-62.97c2.4-.26,4.29-2.27,4.29-4.74,0-.69-.16-1.35-.42-1.94l-.52-.88c-.87-1.19-2.27-1.98-3.86-1.98s-2.99.79-3.86,1.98l-.52.88c-.25.59-.41,1.24-.41,1.94,0,2.47,1.88,4.48,4.27,4.74v62.96h0c-2.41.26-4.29,2.27-4.29,4.74,0,.62.14,1.21.36,1.75.02.06.04.13.06.19l-54.5,31.47c-.87-1.19-2.27-1.97-3.87-1.97s-2.99.78-3.85,1.97l-54.51-31.47c.26-.59.41-1.24.41-1.94,0-2.47-1.88-4.48-4.28-4.74h-1.01c-2.41.26-4.29,2.27-4.29,4.74,0,.69.15,1.35.42,1.94l.51.88c.87,1.19,2.27,1.97,3.86,1.97s2.99-.78,3.86-1.97l54.5,31.47c-.26.6-.41,1.25-.41,1.94,0,2.47,1.88,4.48,4.28,4.74v62.96c-2.41.26-4.28,2.27-4.28,4.74,0,.69.15,1.35.41,1.94l.52.88c.87,1.19,2.27,1.98,3.85,1.98s2.99-.78,3.87-1.98l54.49,31.47c-.26.59-.42,1.25-.42,1.94,0,2.48,1.88,4.49,4.29,4.74v62.96c-.42.05-.8.21-1.19.35-1.8.69-3.1,2.35-3.1,4.39,0,.52.11,1.02.27,1.49.04.13.08.27.13.4,0,.01,0,.03.01.04l-54.51,31.47c-.87-1.19-2.27-1.98-3.86-1.98-2.64,0-4.79,2.15-4.79,4.8,0,2.47,1.87,4.48,4.27,4.73h1.02c2.4-.25,4.27-2.26,4.27-4.73,0-.69-.15-1.35-.42-1.94l54.51-31.48s.07.07.1.11c.17.22.36.43.57.62.07.07.15.13.23.19.19.15.39.29.61.41.1.06.2.11.3.16.22.1.44.19.67.26.11.03.21.08.33.1.32.07.65.12,1,.12.02,0,.04,0,.06,0,0,0,0,0,0,0s0,0,0,0c1.59,0,2.99-.78,3.86-1.98h0s54.49,31.47,54.49,31.47c-.26.59-.42,1.24-.42,1.94,0,2.47,1.89,4.48,4.29,4.73v62.97c-2.4.26-4.29,2.27-4.29,4.74,0,.69.16,1.34.42,1.94l.52.88c.87,1.19,2.27,1.97,3.86,1.97s2.99-.78,3.86-1.97l.51-.88c.26-.6.42-1.25.42-1.94,0-2.48-1.88-4.49-4.27-4.74v-62.97c2.4-.25,4.27-2.26,4.27-4.73,0-.69-.16-1.35-.41-1.94l54.5-31.48c.88,1.2,2.28,1.98,3.87,1.98s2.99-.79,3.85-1.98l.52-.87c.26-.6.41-1.25.41-1.93,0-2.48-1.88-4.49-4.28-4.74v-62.97c.6-.06,1.17-.24,1.69-.5,1.54-.79,2.6-2.38,2.6-4.23,0-.69-.15-1.35-.42-1.95l54.5-31.46c.87,1.19,2.28,1.97,3.86,1.97,2.65,0,4.79-2.14,4.79-4.79,0-2.47-1.88-4.48-4.29-4.74v-62.95c2.41-.26,4.29-2.27,4.29-4.75,0-.69-.15-1.35-.42-1.94l54.51-31.47c.87,1.19,2.27,1.98,3.86,1.98,2.65,0,4.79-2.14,4.79-4.79,0-2.47-1.88-4.48-4.29-4.74ZM509.07,1008.36c.27-.59.42-1.25.42-1.94,0-2.47-1.88-4.48-4.29-4.74v-62.96c2.41-.25,4.29-2.27,4.29-4.74,0-.69-.15-1.34-.42-1.94l54.5-31.46c.87,1.19,2.28,1.97,3.85,1.97,0,0,0,0,0,0,0,0,0,0,0,0,1.59,0,2.99-.78,3.86-1.97l27.74,16.02,26.75,15.45c-.26.59-.42,1.25-.42,1.94,0,2.48,1.89,4.49,4.29,4.75v62.95c-.58.06-1.13.24-1.63.49-.01,0-.03,0-.04.01-1.55.79-2.61,2.38-2.61,4.24,0,.7.16,1.35.42,1.94l-34.1,19.69-20.4,11.78c-.87-1.19-2.27-1.98-3.86-1.98-.04,0-.08.01-.12.01-.33,0-.64.05-.95.12-.1.02-.19.06-.29.09-.26.08-.5.17-.74.28-.07.04-.14.08-.21.12-.27.15-.52.32-.75.51-.03.02-.05.04-.08.06-.27.23-.51.49-.73.78l-54.5-31.47ZM692.4,1110.35c-2.41.25-4.29,2.27-4.29,4.74,0,.68.15,1.33.42,1.93l-54.51,31.47c-.87-1.19-2.27-1.98-3.86-1.98s-2.99.79-3.86,1.98l-54.5-31.47h0c.26-.6.42-1.25.42-1.94,0-2.47-1.89-4.48-4.29-4.74v-62.96c.6-.06,1.17-.24,1.68-.5,1.54-.79,2.61-2.38,2.61-4.23,0-.7-.16-1.35-.42-1.94l41.99-24.25,12.5-7.22c.65.9,1.6,1.56,2.71,1.83.37.09.76.14,1.15.14,1.59,0,2.98-.78,3.85-1.97l51.01,29.44,3.49,2.02c-.27.59-.42,1.24-.42,1.94,0,2.48,1.88,4.49,4.29,4.74v62.97ZM755.14,1001.68c-2.41.26-4.28,2.27-4.28,4.74,0,.7.16,1.35.41,1.94l-54.5,31.47c-.21-.29-.46-.55-.73-.79-.02-.02-.04-.03-.06-.05-.25-.21-.51-.39-.8-.54-.05-.03-.1-.05-.15-.08-.27-.14-.56-.24-.85-.33-.06-.02-.11-.04-.17-.05-.35-.08-.72-.14-1.1-.14-1.19,0-2.28.44-3.11,1.17-.28.24-.53.51-.75.81l-41.91-24.2-12.59-7.27c.26-.59.42-1.25.42-1.94,0-2.47-1.88-4.48-4.29-4.74v-62.95c.6-.07,1.17-.24,1.68-.51,1.55-.79,2.6-2.38,2.6-4.24,0-.7-.16-1.34-.42-1.94l54.5-31.46c.22.3.47.57.74.81.72.62,1.64,1,2.64,1.11.16.02.31.06.48.06,0,0,0,0,0,0,.37,0,.73-.05,1.07-.13.08-.02.16-.05.24-.08.27-.08.53-.18.78-.3.06-.03.13-.07.19-.1.27-.15.53-.32.76-.52.03-.02.05-.04.08-.06.27-.23.51-.49.72-.78l54.5,31.47c-.26.59-.41,1.25-.41,1.94,0,2.48,1.88,4.49,4.28,4.75v62.95Z"/><path class="cls-3" d="M1007.1,567.03h-1.02c-2.4.26-4.27,2.27-4.27,4.74,0,.69.15,1.35.41,1.94l-54.51,31.47c-.87-1.19-2.27-1.98-3.86-1.98s-2.99.79-3.86,1.98l-54.51-31.47c.26-.59.41-1.24.41-1.94,0-2.47-1.88-4.48-4.28-4.74v-62.97c2.41-.26,4.28-2.27,4.28-4.74,0-.69-.15-1.35-.41-1.94l-.51-.88c-.88-1.19-2.28-1.97-3.86-1.97-2.65,0-4.79,2.14-4.79,4.79,0,2.47,1.88,4.48,4.28,4.74v62.97c-2.41.26-4.28,2.27-4.28,4.74,0,.69.15,1.35.42,1.94l-54.5,31.47c-.87-1.19-2.27-1.98-3.86-1.98s-2.99.79-3.86,1.98l-54.51-31.47c.27-.59.42-1.24.42-1.94,0-2.47-1.88-4.48-4.29-4.74h-1.01c-2.41.26-4.28,2.27-4.28,4.74,0,.69.16,1.35.41,1.94l-54.51,31.47c-.87-1.19-2.27-1.98-3.85-1.98s-2.99.79-3.87,1.98l-.51.87c-.27.59-.42,1.25-.42,1.94,0,2.48,1.88,4.49,4.29,4.74v62.97c-2.41.26-4.29,2.27-4.29,4.74,0,2.65,2.14,4.79,4.79,4.79,1.58,0,2.99-.78,3.85-1.98l54.51,31.47c-.26.59-.41,1.24-.41,1.94,0,2.47,1.88,4.49,4.28,4.74h1.01c2.41-.26,4.29-2.28,4.29-4.74,0-.7-.15-1.35-.42-1.94l54.51-31.47c.87,1.19,2.27,1.98,3.86,1.98s2.99-.78,3.86-1.98l54.5,31.47c-.26.59-.42,1.24-.42,1.94,0,2.47,1.88,4.49,4.28,4.74v62.97c-2.41.26-4.28,2.27-4.28,4.73,0,.7.15,1.35.42,1.94l.51.88c.87,1.19,2.27,1.98,3.86,1.98s2.98-.79,3.86-1.98l.51-.88c.26-.59.41-1.24.41-1.94,0-2.47-1.88-4.48-4.28-4.73v-62.97c2.41-.26,4.28-2.28,4.28-4.74,0-.7-.15-1.35-.41-1.94l54.51-31.47c.87,1.19,2.27,1.98,3.86,1.98s2.99-.78,3.86-1.98l.52-.88c.26-.59.41-1.24.41-1.94,0-2.47-1.88-4.48-4.28-4.74v-62.97c2.4-.25,4.28-2.26,4.28-4.74,0-.69-.15-1.35-.41-1.94l54.5-31.47c.87,1.19,2.27,1.98,3.86,1.98,2.65,0,4.79-2.15,4.79-4.79,0-2.47-1.88-4.48-4.27-4.74ZM817.87,675.7c-2.4.26-4.28,2.27-4.28,4.74,0,.69.16,1.35.42,1.94l-54.51,31.47c-.87-1.19-2.27-1.97-3.86-1.97s-2.99.77-3.86,1.97l-54.5-31.47c.26-.59.41-1.24.41-1.94,0-2.47-1.88-4.48-4.28-4.74v-62.97c2.41-.25,4.28-2.26,4.28-4.74,0-.69-.15-1.35-.41-1.94l54.5-31.47c.87,1.19,2.28,1.98,3.86,1.98s2.99-.79,3.86-1.98l54.51,31.47c-.27.59-.42,1.25-.42,1.94,0,2.48,1.88,4.49,4.28,4.74v62.97ZM943.34,675.7c-2.4.26-4.28,2.27-4.28,4.74,0,.69.15,1.35.42,1.94l-54.51,31.47c-.88-1.19-2.28-1.97-3.86-1.97s-2.99.77-3.86,1.97l-54.5-31.47c.27-.59.42-1.24.42-1.94,0-2.47-1.88-4.48-4.29-4.74v-62.97c2.4-.25,4.29-2.26,4.29-4.74,0-.69-.16-1.35-.42-1.94l54.5-31.47c.87,1.19,2.27,1.98,3.86,1.98s2.98-.79,3.86-1.98l54.5,31.47c-.26.6-.41,1.25-.41,1.94,0,2.48,1.88,4.49,4.28,4.74v62.97Z"/><path class="cls-3" d="M378.72,504.07h1.01c2.4-.26,4.28-2.27,4.28-4.74,0-.69-.16-1.35-.42-1.94l54.51-31.47c.87,1.19,2.27,1.97,3.86,1.97s2.99-.78,3.86-1.97l54.5,31.47c-.26.59-.41,1.24-.41,1.93,0,1.24.47,2.36,1.24,3.2.24.26.55.44.84.64.18.12.32.29.52.39.52.27,1.09.44,1.69.51v62.96c-2.41.26-4.28,2.27-4.28,4.73,0,.7.15,1.35.41,1.94l.52.88c.87,1.19,2.27,1.98,3.85,1.98s2.99-.79,3.87-1.98l.51-.88c.27-.59.42-1.24.42-1.94,0-2.47-1.88-4.48-4.29-4.73v-62.96c2.41-.26,4.29-2.27,4.29-4.74,0-.69-.15-1.35-.42-1.94l54.5-31.47c.87,1.19,2.26,1.97,3.86,1.97.4,0,.79-.05,1.16-.14,1.11-.27,2.06-.93,2.71-1.83l54.5,31.47c-.26.59-.42,1.24-.42,1.94,0,1.24.48,2.36,1.25,3.2.77.84,1.84,1.4,3.03,1.53v62.97c-2.4.26-4.29,2.27-4.29,4.74,0,.69.16,1.35.42,1.94l.52.88c.87,1.19,2.27,1.98,3.86,1.98s2.99-.79,3.86-1.98l.52-.88c.25-.59.41-1.24.41-1.94,0-2.47-1.88-4.48-4.27-4.74v-62.96h0c2.41-.26,4.29-2.27,4.29-4.74,0-.62-.14-1.2-.35-1.74-.03-.07-.04-.14-.07-.21l54.5-31.47c.87,1.19,2.27,1.97,3.87,1.97s2.99-.78,3.85-1.97l54.51,31.47c-.26.59-.41,1.24-.41,1.94,0,2.47,1.88,4.48,4.28,4.74h1.01c2.41-.26,4.29-2.27,4.29-4.74,0-.69-.15-1.35-.42-1.94l-.51-.88c-.87-1.19-2.27-1.97-3.86-1.97s-2.99.78-3.86,1.97l-54.5-31.47c.26-.6.41-1.25.41-1.94,0-2.47-1.88-4.48-4.28-4.74v-62.96c2.41-.26,4.28-2.27,4.28-4.74,0-.69-.15-1.35-.41-1.94l-.52-.88c-.87-1.19-2.27-1.98-3.85-1.98s-2.99.78-3.87,1.98l-54.49-31.47c.26-.59.42-1.25.42-1.94,0-2.48-1.88-4.49-4.29-4.74v-62.96c.41-.04.77-.2,1.14-.34,1.82-.67,3.15-2.35,3.15-4.41,0-.52-.11-1.02-.28-1.5-.04-.13-.08-.27-.13-.39,0-.01,0-.03-.01-.04l54.51-31.47c.87,1.19,2.27,1.98,3.86,1.98,2.64,0,4.79-2.15,4.79-4.8,0-2.47-1.87-4.48-4.28-4.73h-1.02c-2.4.25-4.27,2.26-4.27,4.73,0,.69.16,1.35.42,1.94l-54.51,31.48s-.07-.07-.1-.11c-.17-.22-.36-.43-.57-.62-.07-.07-.15-.13-.23-.19-.19-.15-.39-.29-.6-.41-.1-.06-.2-.11-.3-.16-.21-.1-.44-.19-.67-.26-.11-.03-.22-.08-.33-.1-.32-.07-.65-.12-.99-.12-.02,0-.05,0-.07,0,0,0,0,0,0,0,0,0,0,0,0,0-1.59,0-2.99.78-3.86,1.98h0s-54.49-31.47-54.49-31.47c.26-.59.42-1.24.42-1.94,0-2.47-1.89-4.48-4.29-4.73v-62.97c2.4-.26,4.29-2.27,4.29-4.74,0-.69-.16-1.34-.42-1.94l-.52-.88c-.87-1.19-2.27-1.97-3.86-1.97s-2.99.78-3.86,1.97l-.51.88c-.26.6-.42,1.25-.42,1.94,0,2.48,1.88,4.49,4.27,4.74v62.97c-2.4.25-4.27,2.26-4.27,4.73,0,.69.16,1.35.41,1.94l-54.5,31.48c-.88-1.2-2.28-1.98-3.87-1.98s-2.99.79-3.85,1.98l-.52.87c-.26.6-.41,1.25-.41,1.93,0,2.48,1.88,4.49,4.28,4.74v62.97c-.6.06-1.17.24-1.69.5-1.54.79-2.6,2.38-2.6,4.23,0,.69.15,1.35.42,1.94l-54.5,31.46c-.87-1.19-2.28-1.97-3.86-1.97-2.65,0-4.79,2.14-4.79,4.79,0,2.47,1.88,4.48,4.29,4.74v62.95c-2.41.26-4.29,2.27-4.29,4.75,0,.69.15,1.35.42,1.94l-54.51,31.47c-.87-1.19-2.27-1.98-3.86-1.98-2.65,0-4.79,2.14-4.79,4.79,0,2.47,1.88,4.48,4.28,4.74ZM688.53,388.73c-.27.59-.42,1.25-.42,1.94,0,2.47,1.88,4.48,4.29,4.74v62.96c-2.41.25-4.29,2.27-4.29,4.74,0,.69.15,1.34.42,1.94l-54.5,31.46c-.87-1.19-2.28-1.97-3.85-1.97,0,0,0,0,0,0,0,0,0,0,0,0-1.59,0-2.99.78-3.86,1.97l-27.58-15.92-26.91-15.54c.26-.59.42-1.25.42-1.94,0-2.48-1.89-4.49-4.29-4.75v-62.95c2.4-.26,4.29-2.27,4.29-4.74,0-.7-.16-1.35-.42-1.94l33.2-19.17,21.3-12.3c.87,1.19,2.27,1.98,3.86,1.98.05,0,.09-.01.13-.02.32,0,.64-.05.94-.12.1-.02.19-.06.29-.09.25-.08.5-.17.73-.28.07-.04.14-.08.22-.12.27-.15.51-.32.75-.51.03-.02.05-.04.08-.06.27-.23.51-.49.72-.78l54.5,31.47ZM505.21,286.74c2.41-.25,4.29-2.27,4.29-4.74,0-.68-.15-1.33-.42-1.93l54.51-31.47c.87,1.19,2.27,1.98,3.86,1.98s2.99-.79,3.86-1.98l54.5,31.47h0c-.26.6-.42,1.25-.42,1.94,0,2.47,1.89,4.48,4.29,4.74v62.96c-.6.06-1.17.24-1.68.5-1.54.79-2.61,2.38-2.61,4.23,0,.7.16,1.35.42,1.94l-42.07,24.3-12.42,7.17c-.65-.9-1.6-1.56-2.71-1.83-.37-.09-.76-.14-1.15-.14-1.59,0-2.98.78-3.85,1.97l-50.5-29.15-4-2.31c.27-.59.42-1.24.42-1.94,0-2.48-1.88-4.49-4.29-4.74v-62.97ZM442.47,395.41c2.41-.26,4.28-2.27,4.28-4.74,0-.7-.16-1.35-.41-1.94l54.5-31.47c.21.29.46.55.73.79.02.02.04.03.06.05.25.21.51.39.8.54.05.03.1.05.15.08.27.14.56.24.86.33.06.02.11.04.17.05.35.08.72.14,1.1.14,1.19,0,2.28-.44,3.11-1.17.28-.24.53-.51.75-.81l41.73,24.09,12.77,7.38c-.26.59-.42,1.25-.42,1.94,0,2.47,1.88,4.48,4.29,4.74v62.95c-.6.07-1.17.24-1.68.51-1.55.79-2.6,2.38-2.6,4.24,0,.7.16,1.34.42,1.94l-54.5,31.46c-.22-.3-.47-.57-.74-.81-.63-.55-1.41-.9-2.26-1.06-.28-.05-.56-.1-.85-.1,0,0-.01,0-.02,0-.37,0-.72.05-1.06.13-.09.02-.16.05-.25.08-.27.08-.53.18-.78.3-.07.03-.13.07-.19.1-.27.15-.53.32-.76.52-.03.02-.05.04-.08.06-.27.23-.51.49-.72.78l-54.5-31.47c.26-.59.41-1.25.41-1.94,0-2.48-1.88-4.49-4.28-4.75v-62.95Z"/><path class="cls-3" d="M437.18,825.32c0,2.47,1.88,4.48,4.29,4.74h1.01c2.41-.26,4.28-2.27,4.28-4.74,0-.69-.16-1.35-.41-1.94l54.51-31.47c.87,1.19,2.27,1.98,3.85,1.98s2.99-.79,3.87-1.98l.51-.87c.27-.59.42-1.25.42-1.94,0-2.48-1.88-4.49-4.29-4.74v-62.97c2.41-.26,4.29-2.27,4.29-4.74,0-2.65-2.14-4.79-4.79-4.79-1.58,0-2.99.78-3.85,1.98l-54.51-31.47c.26-.59.41-1.24.41-1.94,0-2.47-1.88-4.49-4.28-4.74h-1.01c-2.41.26-4.29,2.28-4.29,4.74,0,.7.15,1.35.42,1.94l-54.51,31.47c-.87-1.19-2.27-1.98-3.86-1.98s-2.99.78-3.86,1.98l-54.5-31.47c.26-.59.42-1.24.42-1.94,0-2.47-1.88-4.49-4.28-4.74v-62.97c2.41-.26,4.28-2.27,4.28-4.73,0-.7-.15-1.35-.42-1.94l-.51-.88c-.87-1.19-2.27-1.98-3.86-1.98s-2.98.79-3.86,1.98l-.51.88c-.26.59-.41,1.24-.41,1.94,0,2.47,1.88,4.48,4.28,4.73v62.97c-2.41.26-4.28,2.28-4.28,4.74,0,.7.15,1.35.41,1.94l-54.51,31.47c-.87-1.19-2.27-1.98-3.86-1.98s-2.99.78-3.86,1.98l-.52.88c-.26.59-.41,1.24-.41,1.94,0,2.47,1.88,4.48,4.28,4.74v62.97c-2.4.25-4.28,2.26-4.28,4.74,0,.69.15,1.35.41,1.94l-54.5,31.47c-.87-1.19-2.27-1.98-3.86-1.98-2.65,0-4.79,2.15-4.79,4.79,0,2.47,1.88,4.48,4.27,4.74h1.02c2.4-.26,4.27-2.27,4.27-4.74,0-.69-.15-1.35-.41-1.94l54.51-31.47c.87,1.19,2.27,1.98,3.86,1.98s2.99-.79,3.86-1.98l54.51,31.47c-.26.59-.41,1.24-.41,1.94,0,2.47,1.88,4.48,4.28,4.74v62.97c-2.41.26-4.28,2.27-4.28,4.74,0,.69.15,1.35.41,1.94l.51.88c.88,1.19,2.28,1.97,3.86,1.97,2.65,0,4.79-2.14,4.79-4.79,0-2.47-1.88-4.48-4.28-4.74v-62.97c2.41-.26,4.28-2.27,4.28-4.74,0-.69-.15-1.35-.42-1.94l54.5-31.47c.87,1.19,2.27,1.98,3.86,1.98s2.99-.79,3.86-1.98l54.51,31.47c-.27.59-.42,1.24-.42,1.94ZM378.72,784.36c-2.4.25-4.28,2.26-4.28,4.74,0,.69.16,1.35.42,1.94l-54.5,31.47c-.87-1.19-2.27-1.98-3.86-1.98s-2.98.79-3.86,1.98l-54.5-31.47c.26-.6.41-1.25.41-1.94,0-2.48-1.88-4.49-4.28-4.74v-62.97c2.4-.26,4.28-2.27,4.28-4.74,0-.69-.15-1.35-.42-1.94l54.51-31.47c.88,1.19,2.28,1.97,3.86,1.97s2.99-.77,3.86-1.97l54.5,31.47c-.27.59-.42,1.24-.42,1.94,0,2.47,1.88,4.48,4.28,4.74v62.97ZM383.59,791.04c.27-.59.42-1.25.42-1.94,0-2.48-1.88-4.49-4.28-4.74v-62.97c2.4-.26,4.28-2.27,4.28-4.74,0-.69-.16-1.35-.42-1.94l54.51-31.47c.87,1.19,2.27,1.97,3.86,1.97s2.99-.77,3.86-1.97l54.5,31.47c-.26.59-.41,1.24-.41,1.94,0,2.47,1.88,4.48,4.28,4.74v62.97c-2.41.25-4.28,2.26-4.28,4.74,0,.69.15,1.35.41,1.94l-54.5,31.47c-.87-1.19-2.28-1.98-3.86-1.98s-2.99.79-3.86,1.98l-54.51-31.47Z"/><path class="cls-3" d="M379.23,59.89c-1.59,0-2.99.79-3.86,1.98l-.51.88c-.27.59-.42,1.24-.42,1.94,0,2.47,1.88,4.48,4.28,4.73h1.01c2.4-.25,4.28-2.27,4.28-4.73,0-.69-.16-1.35-.42-1.94l54.5-31.47c.87,1.19,2.27,1.98,3.86,1.98s2.99-.79,3.86-1.98l54.5,31.47c-.26.59-.41,1.24-.41,1.94,0,2.47,1.88,4.48,4.28,4.73v62.97c-2.41.25-4.28,2.26-4.28,4.74,0,.69.15,1.35.41,1.94l.52.87c.87,1.19,2.27,1.98,3.85,1.98s2.99-.79,3.87-1.98l.51-.87c.27-.59.42-1.26.42-1.94,0-2.48-1.88-4.49-4.29-4.74v-62.97c2.41-.25,4.29-2.27,4.29-4.73,0-.69-.15-1.35-.42-1.94l54.5-31.47c.21.29.45.54.72.77.03.03.06.05.09.08.23.19.47.35.72.5.08.05.16.09.24.13.22.11.45.19.68.26.12.04.23.08.35.11.25.06.51.08.78.1.1,0,.18.03.28.03.39,0,.76-.06,1.12-.15.02,0,.04-.01.06-.02.34-.09.66-.21.97-.37.02-.01.05-.03.07-.04.31-.17.6-.36.87-.59,0,0,0,0,.01,0,.28-.24.53-.5.75-.8l54.49,31.46c-.26.6-.42,1.25-.42,1.94,0,2.47,1.89,4.48,4.29,4.74v62.97c-2.4.25-4.29,2.26-4.29,4.73,0,2.65,2.14,4.79,4.79,4.79,1.59,0,2.99-.79,3.86-1.98l.52-.88c.25-.59.41-1.24.41-1.94,0-2.47-1.88-4.48-4.27-4.73v-62.97c2.4-.26,4.27-2.27,4.27-4.74,0-.69-.16-1.34-.41-1.94l54.5-31.46c.88,1.19,2.28,1.97,3.87,1.97s2.99-.78,3.85-1.97l.52-.88c.26-.6.41-1.24.41-1.94,0-2.47-1.88-4.48-4.28-4.74v-62.97c2.41-.26,4.28-2.27,4.28-4.73,0-.69-.15-1.35-.41-1.94l54.5-31.47c.87,1.19,2.27,1.98,3.86,1.98,2.65,0,4.79-2.14,4.79-4.79,0-2.47-1.88-4.48-4.29-4.74h-1.01c-2.41.26-4.28,2.27-4.28,4.74,0,.69.16,1.34.41,1.94l-54.51,31.47c-.87-1.19-2.27-1.98-3.85-1.98s-2.99.78-3.87,1.98l-54.5-31.47c.25-.6.41-1.25.41-1.94,0-2.47-1.88-4.48-4.27-4.74v-62.97c2.4-.26,4.27-2.27,4.27-4.74,0-.69-.16-1.34-.41-1.94l-.52-.88c-.87-1.19-2.27-1.97-3.86-1.97-2.65,0-4.79,2.14-4.79,4.79,0,2.47,1.89,4.48,4.29,4.74v62.97c-2.4.26-4.29,2.27-4.29,4.74,0,.69.16,1.34.42,1.94l-54.49,31.46c-.21-.29-.46-.55-.73-.78-.02-.02-.05-.04-.07-.06-.24-.2-.49-.37-.76-.52-.07-.04-.14-.08-.21-.11-.23-.11-.47-.2-.72-.27-.11-.03-.21-.07-.32-.1-.26-.06-.52-.08-.79-.1-.09,0-.18-.03-.27-.03-.39,0-.76.06-1.12.15-.03,0-.06.02-.09.03-.33.09-.64.2-.93.35-.04.02-.07.04-.11.06-.3.16-.57.34-.82.56-.01.01-.03.02-.04.04-.27.24-.52.5-.73.79l-54.5-31.46c.27-.59.42-1.24.42-1.94,0-2.48-1.88-4.49-4.29-4.75v-62.95c2.41-.27,4.29-2.28,4.29-4.74,0-2.64-2.14-4.79-4.79-4.79-1.58,0-2.99.78-3.85,1.97l-.52.88c-.26.59-.41,1.24-.41,1.94,0,2.47,1.88,4.48,4.28,4.74v62.95c-2.41.26-4.28,2.27-4.28,4.75,0,.7.15,1.35.41,1.94l-54.5,31.46c-.87-1.18-2.28-1.97-3.86-1.97s-2.99.78-3.86,1.97l-54.5-31.46c.26-.59.42-1.24.42-1.94,0-2.48-1.88-4.49-4.28-4.75h-1.01c-2.4.26-4.28,2.27-4.28,4.75,0,.7.16,1.35.42,1.94l.51.88c.87,1.19,2.27,1.97,3.86,1.97s2.99-.78,3.86-1.97l54.51,31.46c-.27.6-.42,1.26-.42,1.94,0,2.48,1.88,4.49,4.29,4.74V23.72c-2.41.26-4.29,2.27-4.29,4.73,0,.7.15,1.35.42,1.94l-54.51,31.47c-.87-1.19-2.27-1.98-3.86-1.98ZM626.31-77.38c.87,1.19,2.27,1.97,3.86,1.97s2.99-.79,3.86-1.97l54.51,31.46c-.27.6-.42,1.25-.42,1.94,0,2.47,1.88,4.48,4.29,4.73V23.72c-2.41.26-4.29,2.27-4.29,4.74,0,.69.15,1.34.42,1.94l-54.51,31.47c-.87-1.2-2.27-1.98-3.86-1.98s-2.99.78-3.86,1.98l-54.5-31.47c.27-.6.42-1.25.42-1.95,0-2.39-1.78-4.31-4.07-4.67-.08-.01-.14-.06-.22-.07v-62.96c2.4-.26,4.29-2.27,4.29-4.74,0-.69-.15-1.35-.42-1.94l54.5-31.46ZM442.47-39.24c2.41-.26,4.28-2.27,4.28-4.74,0-.69-.16-1.35-.41-1.94l54.51-31.46c.87,1.19,2.27,1.97,3.85,1.97s3-.78,3.87-1.97l54.5,31.46c-.26.6-.42,1.25-.42,1.94,0,1.56.8,2.88,1.96,3.75.67.51,1.44.9,2.32.99V23.72c-2.41.26-4.29,2.27-4.29,4.74,0,.69.15,1.34.42,1.93l-54.49,31.47c-.87-1.19-2.28-1.98-3.87-1.98s-2.99.79-3.85,1.98l-54.51-31.47c.26-.59.41-1.24.41-1.94,0-2.47-1.88-4.48-4.28-4.73v-62.96Z"/></g><path class="cls-3" d="M748.75,658.76c-1.52,0-2.85.75-3.69,1.88l-53.04-30.62c.24-.55.37-1.16.37-1.81,0-2.36-1.79-4.29-4.09-4.54v-61.31c2.3-.25,4.09-2.18,4.09-4.54,0-.67-.15-1.3-.41-1.88l53.09-30.65c.84,1.13,2.17,1.87,3.69,1.87,2.54,0,4.59-2.05,4.59-4.59s-2.05-4.59-4.59-4.59-4.59,2.06-4.59,4.59c0,.66.14,1.28.39,1.85l-53.09,30.65c-.84-1.12-2.16-1.85-3.66-1.85s-2.82.73-3.66,1.85l-53.1-30.66c.25-.56.39-1.19.39-1.84,0-2.36-1.79-4.29-4.08-4.54v-61.3c2.29-.25,4.08-2.18,4.08-4.54,0-2.53-2.05-4.59-4.59-4.59-1.52,0-2.85.74-3.69,1.88l-53.07-30.64c.25-.56.39-1.18.39-1.84,0-2.36-1.79-4.29-4.09-4.54v-61.31c2.29-.25,4.09-2.17,4.09-4.54,0-2.53-2.06-4.59-4.59-4.59s-4.59,2.06-4.59,4.59c0,2.37,1.79,4.29,4.08,4.54v61.31c-2.29.26-4.08,2.18-4.08,4.54,0,.65.14,1.27.39,1.83l-53.07,30.64c-.84-1.13-2.17-1.88-3.69-1.88s-2.85.75-3.68,1.88l-53.08-30.65c.26-.57.41-1.21.41-1.88,0-2.53-2.06-4.59-4.6-4.59s-4.59,2.06-4.59,4.59,2.05,4.59,4.59,4.59c1.5,0,2.83-.73,3.66-1.85l53.09,30.65c-.25.57-.39,1.19-.39,1.84,0,2.36,1.79,4.29,4.09,4.54v61.3c-2.29.25-4.09,2.18-4.09,4.54,0,2.54,2.06,4.59,4.59,4.59,1.52,0,2.85-.74,3.69-1.88l53.07,30.64c-.25.56-.39,1.19-.39,1.84,0,2.36,1.79,4.27,4.08,4.53v61.31c-2.29.26-4.08,2.18-4.08,4.54,0,.66.14,1.28.39,1.84l-53.07,30.64c-.84-1.14-2.17-1.88-3.69-1.88-1.27,0-2.41.51-3.25,1.35-.37.37-.66.8-.88,1.27-.29.6-.46,1.26-.46,1.97,0,2.36,1.79,4.28,4.08,4.54v61.3c-2.29.25-4.08,2.18-4.08,4.54,0,.65.14,1.27.39,1.84l-53.04,30.62c-.83-1.15-2.18-1.91-3.71-1.91s-2.88.76-3.71,1.91l-53.04-30.62c.25-.56.39-1.18.39-1.84,0-2.53-2.05-4.59-4.59-4.59s-4.59,2.06-4.59,4.59,2.05,4.59,4.59,4.59c1.52,0,2.85-.75,3.69-1.88l53.04,30.62c-.24.55-.37,1.16-.37,1.81,0,2.36,1.79,4.29,4.09,4.54v61.31c-2.3.25-4.09,2.18-4.09,4.54,0,.67.15,1.3.41,1.88l-53.09,30.65c-.84-1.13-2.17-1.87-3.69-1.87-2.54,0-4.59,2.05-4.59,4.59s2.05,4.59,4.59,4.59,4.59-2.06,4.59-4.59c0-.66-.14-1.28-.39-1.85l53.09-30.65c.84,1.12,2.16,1.85,3.66,1.85s2.82-.73,3.66-1.85l53.1,30.66c-.25.56-.39,1.19-.39,1.84,0,2.36,1.79,4.29,4.08,4.54v61.3c-2.29.25-4.08,2.18-4.08,4.54,0,2.53,2.05,4.59,4.59,4.59,1.52,0,2.85-.74,3.69-1.88l53.07,30.64c-.25.56-.39,1.18-.39,1.84,0,2.36,1.79,4.29,4.09,4.54v61.31c-2.29.25-4.09,2.17-4.09,4.54,0,2.53,2.06,4.59,4.59,4.59s4.59-2.06,4.59-4.59c0-2.37-1.79-4.28-4.08-4.54v-61.31c2.29-.26,4.08-2.18,4.08-4.54,0-.65-.14-1.27-.39-1.83l53.07-30.64c.84,1.13,2.17,1.88,3.69,1.88s2.85-.74,3.68-1.88l53.08,30.65c-.26.57-.41,1.21-.41,1.88,0,2.53,2.06,4.59,4.6,4.59s4.59-2.06,4.59-4.59-2.05-4.59-4.59-4.59c-1.5,0-2.83.73-3.66,1.85l-53.09-30.65c.25-.57.39-1.19.39-1.84,0-2.36-1.79-4.29-4.09-4.54v-61.3c2.29-.25,4.09-2.18,4.09-4.54,0-2.54-2.06-4.59-4.59-4.59-1.52,0-2.85.74-3.69,1.88l-53.07-30.64c.25-.56.39-1.19.39-1.84,0-2.36-1.79-4.27-4.08-4.53v-61.31c2.29-.26,4.08-2.18,4.08-4.54,0-.66-.14-1.28-.39-1.84l53.07-30.64c.84,1.14,2.17,1.88,3.69,1.88,1.27,0,2.41-.51,3.25-1.35.42-.41.75-.91.98-1.46.23-.55.36-1.15.36-1.79,0-2.36-1.79-4.28-4.08-4.54v-61.3c2.29-.26,4.08-2.18,4.08-4.54,0-.65-.14-1.27-.39-1.84l53.04-30.62c.83,1.15,2.18,1.91,3.71,1.91s2.88-.76,3.71-1.91l53.04,30.62c-.25.56-.39,1.18-.39,1.84,0,2.53,2.05,4.59,4.59,4.59s4.59-2.06,4.59-4.59-2.05-4.59-4.59-4.59ZM509.13,524.43c.25-.56.39-1.19.39-1.85,0-2.36-1.79-4.29-4.09-4.54v-61.3c2.3-.25,4.09-2.18,4.09-4.54,0-.66-.14-1.28-.39-1.84l53.07-30.64c.84,1.14,2.17,1.88,3.69,1.88s2.85-.75,3.69-1.88l53.06,30.64c-.25.57-.39,1.19-.39,1.84,0,2.36,1.79,4.29,4.09,4.54v61.3c-2.3.25-4.09,2.18-4.09,4.54,0,.66.14,1.28.39,1.85l-53.07,30.64c-.84-1.13-2.17-1.87-3.69-1.87s-2.85.74-3.69,1.88l-53.07-30.64ZM448.15,841.14c.26-.57.41-1.2.41-1.87,0-2.36-1.79-4.29-4.08-4.54v-61.31c2.3-.25,4.08-2.18,4.08-4.54,0-.64-.13-1.25-.37-1.8l53.05-30.63c.83,1.14,2.17,1.89,3.69,1.89s2.86-.75,3.69-1.88l53.06,30.64c-.25.57-.39,1.19-.39,1.84,0,2.36,1.79,4.29,4.09,4.54v61.31c-2.29.25-4.09,2.17-4.09,4.53,0,.66.14,1.28.39,1.85l-53.07,30.64c-.84-1.13-2.17-1.88-3.69-1.88s-2.85.74-3.68,1.88l-53.09-30.65ZM622.64,872.66c-.25.56-.39,1.19-.39,1.85,0,2.36,1.79,4.29,4.09,4.54v61.3c-2.3.25-4.09,2.18-4.09,4.54,0,.66.14,1.28.39,1.84l-53.07,30.64c-.84-1.14-2.17-1.88-3.69-1.88s-2.85.75-3.69,1.88l-53.06-30.64c.25-.57.39-1.19.39-1.84,0-2.36-1.79-4.29-4.09-4.54v-61.3c2.3-.25,4.09-2.18,4.09-4.54,0-.66-.14-1.28-.39-1.85l53.07-30.64c.84,1.13,2.17,1.87,3.69,1.87s2.85-.74,3.69-1.88l53.07,30.64ZM569.57,766.21c-.84-1.13-2.17-1.88-3.69-1.88s-2.85.74-3.68,1.88l-53.07-30.64c.25-.56.39-1.18.39-1.84,0-2.36-1.79-4.29-4.09-4.54v-61.3c2.3-.25,4.09-2.18,4.09-4.54,0-.65-.14-1.27-.39-1.84l53.07-30.64c.84,1.13,2.17,1.88,3.69,1.88s2.85-.74,3.68-1.88l53.07,30.64c-.25.56-.39,1.18-.39,1.84,0,2.36,1.79,4.29,4.09,4.54v61.3c-2.3.25-4.09,2.18-4.09,4.54,0,.65.14,1.27.39,1.84l-53.07,30.64ZM630.53,660.65c-.83-1.14-2.17-1.89-3.69-1.89s-2.86.75-3.69,1.88l-53.06-30.64c.25-.57.39-1.19.39-1.84,0-2.36-1.79-4.29-4.09-4.54v-61.31c2.29-.25,4.09-2.17,4.09-4.53,0-.66-.14-1.28-.39-1.85l53.07-30.64c.84,1.13,2.17,1.88,3.69,1.88s2.85-.74,3.68-1.88l53.09,30.65c-.26.57-.41,1.2-.41,1.87,0,2.36,1.79,4.29,4.08,4.54v61.31c-2.3.25-4.08,2.18-4.08,4.54,0,.64.13,1.25.37,1.8l-53.05,30.63Z"/><g class="cls-8"><path class="cls-12" d="M518.33,388.65c0,7.35-5.98,13.33-13.33,13.33s-13.33-5.98-13.33-13.33h26.66Z"/><path class="cls-12" d="M510.98,373.2v-13.15c.37-.01.67-.31.67-.68s-.3-.67-.67-.68h0s-.02,0-.02,0h-11.95c-.37.02-.67.31-.67.68s.3.66.67.68v13.15c-6.37,2.46-10.61,8.61-10.61,15.45,0,9.15,7.44,16.58,16.59,16.58s16.58-7.44,16.58-16.58c0-6.84-4.24-12.99-10.6-15.45ZM505,403.87c-8.39,0-15.22-6.83-15.22-15.22,0-6.43,4.08-12.19,10.15-14.33l.46-.16v-14.1h9.21v14.1l.45.16c6.07,2.14,10.15,7.9,10.15,14.33,0,8.39-6.83,15.22-15.22,15.22Z"/><path class="cls-12" d="M502.79,384.04c-.31,0-.57.22-.62.52h-1.31c-.06-.39-.39-.69-.79-.69-.12,0-.23.03-.33.07l-.72-1.26c.11-.09.18-.22.18-.37,0-.27-.21-.48-.48-.48s-.48.22-.48.48.22.48.48.48c.06,0,.11-.01.17-.03l.72,1.25c-.2.15-.34.38-.34.65,0,.24.11.45.27.6l-.46.79c-.12-.04-.24-.07-.37-.07-.57,0-1.04.46-1.04,1.03s.46,1.04,1.04,1.04,1.03-.46,1.03-1.04c0-.33-.15-.62-.39-.81l.46-.79c.08.03.17.04.26.04.4,0,.74-.3.79-.68h1.31c.06.29.31.52.62.52.35,0,.63-.28.63-.63s-.28-.63-.63-.63Z"/><path class="cls-12" d="M506.51,384.89c0-.31-.22-.56-.52-.62v-1.31c.39-.06.69-.39.69-.79,0-.12-.03-.23-.07-.33l1.26-.72c.09.11.22.18.37.18.27,0,.48-.21.48-.48s-.22-.48-.48-.48-.48.22-.48.48c0,.06.01.12.03.17l-1.26.72c-.14-.2-.38-.34-.65-.34-.24,0-.45.11-.6.27l-.79-.46c.05-.11.07-.24.07-.37,0-.57-.46-1.03-1.03-1.03s-1.03.46-1.03,1.03.46,1.03,1.03,1.03c.33,0,.62-.15.81-.39l.79.45c-.03.08-.04.17-.04.26,0,.4.3.74.69.79v1.31c-.29.06-.52.31-.52.62,0,.35.29.63.63.63s.64-.28.64-.63Z"/><path class="cls-12" d="M504.13,378.54c.22-.22.24-.56.07-.81l.93-.93c.32.23.76.21,1.05-.07.08-.08.14-.18.18-.29l1.4.37c-.02.14.04.28.14.39.19.19.49.19.68,0,.19-.19.19-.5,0-.68-.19-.19-.5-.19-.69,0-.04.04-.08.09-.1.14l-1.4-.38c.04-.25-.03-.51-.22-.7-.17-.17-.4-.24-.62-.23l-.23-.88c.11-.05.22-.12.31-.21.4-.41.4-1.06,0-1.46-.4-.4-1.06-.4-1.46,0-.41.4-.41,1.06,0,1.46.23.23.54.33.84.3l.24.88c-.08.04-.14.09-.21.15-.29.29-.31.73-.08,1.05l-.92.93c-.25-.17-.59-.15-.81.07-.25.25-.24.65,0,.9.25.25.65.25.9,0Z"/><path class="cls-12" d="M508.16,383.48c.22.22.56.24.8.07l.93.93c-.24.31-.21.76.07,1.05.08.08.18.14.29.18l-.38,1.4c-.14-.01-.28.04-.39.14-.19.19-.19.49,0,.68.19.19.5.19.68,0,.19-.19.19-.5,0-.69-.04-.04-.09-.07-.14-.1l.38-1.4c.24.04.51-.03.7-.22.17-.17.24-.4.23-.62l.88-.23c.05.11.12.22.22.31.4.4,1.06.4,1.46,0,.4-.4.4-1.06,0-1.46-.4-.4-1.06-.4-1.46,0-.23.23-.33.55-.3.84l-.88.24c-.04-.08-.09-.15-.15-.21-.29-.29-.73-.31-1.05-.08l-.93-.93c.17-.25.15-.59-.07-.81-.25-.25-.65-.24-.9,0-.25.25-.25.65,0,.9Z"/><g id="_021---Cyber-Security"><path id="Shape" class="cls-12" d="M561.6,496.32h8.33c1.38,0,2.5-1.12,2.5-2.5v-7.5c0-1.38-1.12-2.5-2.5-2.5v-1.67c0-2.3-1.87-4.17-4.17-4.17s-4.17,1.87-4.17,4.17v1.67c-1.38,0-2.5,1.12-2.5,2.5v7.5c0,1.38,1.12,2.5,2.5,2.5ZM563.26,482.15c0-1.38,1.12-2.5,2.5-2.5s2.5,1.12,2.5,2.5v1.67h-5v-1.67ZM560.76,486.32c0-.46.37-.83.83-.83h8.33c.46,0,.83.37.83.83v7.5c0,.46-.37.83-.83.83h-8.33c-.46,0-.83-.37-.83-.83v-7.5Z"/><path id="Shape-2" class="cls-12" d="M564.93,492v.15c0,.46.37.83.83.83s.83-.37.83-.83v-.15c1.15-.41,1.84-1.58,1.63-2.78-.21-1.2-1.25-2.08-2.46-2.08s-2.26.88-2.46,2.08c-.21,1.2.48,2.37,1.63,2.78ZM565.76,488.82c.46,0,.83.37.83.83s-.37.83-.83.83-.83-.37-.83-.83.37-.83.83-.83h0Z"/><path id="Shape-3" class="cls-12" d="M551.6,487.99c0,7.82,6.34,14.17,14.17,14.17s14.17-6.34,14.17-14.17-6.34-14.17-14.17-14.17c-7.82,0-14.16,6.35-14.17,14.17ZM565.76,475.49c6.9,0,12.5,5.6,12.5,12.5s-5.6,12.5-12.5,12.5-12.5-5.6-12.5-12.5c0-6.9,5.6-12.49,12.5-12.5Z"/><path id="Shape-4" class="cls-12" d="M582.43,506.32c-1.52,0-2.84,1.03-3.21,2.5h-5.95v-5.04c1.86-.88,3.56-2.08,5-3.55.21-.21.3-.52.22-.81s-.31-.51-.6-.59c-.29-.07-.6.02-.81.23-1.41,1.45-3.09,2.61-4.95,3.42-.11.04-.21.11-.29.2,0,.01-.01.02-.02.03-.06.07-.11.15-.15.23-.02.05-.03.11-.03.16-.02.05-.03.1-.03.14v5.56c0,.92.75,1.67,1.67,1.67h5.95c.44,1.67,2.08,2.73,3.78,2.44,1.7-.29,2.9-1.84,2.75-3.56-.15-1.72-1.59-3.04-3.32-3.04h0ZM582.43,511.32c-.92,0-1.67-.75-1.67-1.67s.75-1.67,1.67-1.67,1.67.75,1.67,1.67-.75,1.67-1.67,1.67Z"/><path id="Shape-5" class="cls-12" d="M547.31,497.15h4.03s.01,0,.02,0c.08,0,.16-.02.24-.05.04-.01.08-.03.11-.05,0,0,.02,0,.03-.01s.02-.02.04-.03c.08-.05.14-.11.2-.17,0-.01.02-.03.03-.04.05-.08.09-.16.12-.25,0-.01,0-.02,0-.04.02-.06.03-.12.04-.19,0-.03-.01-.06-.02-.09,0-.01,0-.02,0-.03-.01-.1-.05-.19-.09-.28h0c-.85-1.49-1.46-3.09-1.8-4.76-.09-.45-.53-.74-.98-.65s-.74.53-.65.98c.28,1.38.73,2.73,1.33,4h-2.63c-.42-1.63-1.98-2.68-3.65-2.47-1.67.21-2.91,1.63-2.91,3.31s1.25,3.1,2.91,3.31,3.23-.85,3.65-2.47h0ZM544.1,497.99c-.92,0-1.67-.75-1.67-1.67s.75-1.67,1.67-1.67,1.67.75,1.67,1.67-.75,1.67-1.67,1.67Z"/><path id="Shape-6" class="cls-12" d="M540.76,479.65c0,1.68,1.24,3.09,2.91,3.3,1.66.21,3.22-.85,3.64-2.47h4.05c.08,0,.16-.02.24-.05.04-.01.07-.03.11-.04.04-.02.09-.05.12-.08.07-.05.13-.12.18-.19.01-.02.02-.03.03-.04,1.07-1.85,2.5-3.47,4.21-4.76.24-.18.36-.47.33-.77-.04-.3-.23-.55-.5-.67s-.59-.08-.83.1c-1.75,1.32-3.24,2.96-4.39,4.83h-3.56c-.42-1.62-1.98-2.68-3.64-2.47s-2.91,1.63-2.91,3.3h0ZM545.76,479.65c0,.92-.75,1.67-1.67,1.67s-1.67-.75-1.67-1.67.75-1.67,1.67-1.67c.44,0,.87.18,1.18.49s.49.74.49,1.18Z"/><path id="Shape-7" class="cls-12" d="M587.43,492.99c-1.52,0-2.84,1.03-3.21,2.5h-2.64c.61-1.27,1.05-2.62,1.33-4,.09-.45-.2-.89-.65-.98s-.89.2-.98.65c-.34,1.67-.95,3.27-1.8,4.75h0c-.05.1-.08.2-.1.3,0,0,0,.02,0,.03,0,.03-.02.06-.02.09,0,.07.02.13.04.19,0,.01,0,.02,0,.03.03.09.07.17.12.25,0,.01.02.02.02.04.06.07.12.13.2.18.01,0,.02.02.04.03s.02,0,.03.01c.04.02.08.03.11.05.08.03.16.04.24.05,0,0,.01,0,.02,0h4.03c.44,1.67,2.08,2.73,3.78,2.44s2.9-1.84,2.75-3.56c-.15-1.72-1.59-3.04-3.32-3.04h0ZM587.43,497.99c-.92,0-1.67-.75-1.67-1.67s.75-1.67,1.67-1.67,1.67.75,1.67,1.67-.75,1.67-1.67,1.67Z"/><path id="Shape-8" class="cls-12" d="M559.93,503.28h0c0-.06-.01-.11-.03-.15,0-.06-.02-.11-.03-.17-.04-.08-.08-.16-.14-.23-.01-.01-.02-.03-.03-.04-.08-.09-.18-.16-.3-.2-2.18-.96-4.12-2.4-5.67-4.21-.19-.24-.49-.35-.79-.3-.3.05-.54.26-.64.55s-.03.6.17.83c1.6,1.87,3.58,3.37,5.8,4.43v5.03h-5.95c-.42-1.63-1.98-2.68-3.65-2.47-1.67.21-2.91,1.63-2.91,3.31s1.25,3.1,2.91,3.31,3.23-.85,3.65-2.47h5.95c.92,0,1.67-.75,1.67-1.67v-5.54ZM549.1,511.32c-.92,0-1.67-.75-1.67-1.67s.75-1.67,1.67-1.67,1.67.75,1.67,1.67-.75,1.67-1.67,1.67Z"/><path id="Path" class="cls-12" d="M568.93,503.5c-2.09.42-4.24.42-6.33,0-.29-.07-.6.03-.81.25s-.27.54-.17.83.34.5.64.55c.88.17,1.77.27,2.67.31v6.71c0,.46.37.83.83.83s.83-.37.83-.83v-6.71c.9-.03,1.79-.14,2.67-.31.44-.1.72-.54.63-.98s-.52-.73-.96-.65h0Z"/><path id="Shape-9" class="cls-12" d="M558.26,465.49h-5.95c-.42-1.63-1.98-2.68-3.65-2.47-1.67.21-2.91,1.63-2.91,3.31s1.25,3.1,2.91,3.31,3.23-.85,3.65-2.47h5.95v5.56s.02.07.02.1c0,.09.03.17.07.25.03.07.08.14.14.2.03.03.06.06.09.08.04.03.08.06.13.09.04.02.08.04.12.05.06.02.12.03.18.04.03,0,.06.01.08.02.12,0,.24-.03.34-.08,1.02-.44,2.07-.77,3.16-.99.45-.09.74-.53.65-.98s-.53-.74-.98-.65c-.79.16-1.57.38-2.33.65v-4.33c0-.92-.75-1.67-1.67-1.67h0ZM549.1,467.99c-.92,0-1.67-.75-1.67-1.67s.75-1.67,1.67-1.67,1.67.75,1.67,1.67c0,.44-.18.87-.49,1.18-.31.31-.74.49-1.18.49Z"/><path id="Shape-10" class="cls-12" d="M579.21,467.15c.42,1.63,1.98,2.68,3.65,2.47,1.67-.21,2.91-1.63,2.91-3.31s-1.25-3.1-2.91-3.31c-1.67-.21-3.23.85-3.65,2.47h-5.95c-.92,0-1.67.75-1.67,1.67v5.54h0c0,.06.01.11.03.16,0,.05.02.11.03.16.04.08.08.16.15.23,0,.01.01.02.02.03.08.09.18.16.29.2,1.85.81,3.53,1.97,4.95,3.42.2.23.52.32.81.25s.53-.3.61-.59c.08-.3,0-.61-.23-.82-1.44-1.47-3.14-2.67-5-3.55v-5.04h5.95ZM582.43,464.65c.92,0,1.67.75,1.67,1.67s-.75,1.67-1.67,1.67-1.67-.75-1.67-1.67.75-1.67,1.67-1.67Z"/><path id="Path-2" class="cls-12" d="M565.76,462.99c-.46,0-.83.37-.83.83v7.5c0,.46.37.83.83.83,1.06,0,2.12.11,3.17.32.05.01.11.02.17.02.43,0,.78-.33.83-.75.04-.42-.24-.81-.66-.9-.88-.17-1.77-.27-2.67-.31v-6.71c0-.46-.37-.83-.83-.83Z"/><path id="Shape-11" class="cls-12" d="M584.21,480.49c.42,1.63,1.98,2.68,3.65,2.47s2.91-1.63,2.91-3.31-1.25-3.1-2.91-3.31c-1.67-.21-3.23.85-3.65,2.47h-4.03s-.03,0-.04,0c-.05,0-.1.01-.14.03-.07.01-.13.04-.2.07,0,0-.02,0-.02,0s-.02.02-.04.03c-.08.05-.14.11-.2.18,0,.01-.02.02-.02.04-.06.08-.1.16-.12.25,0,.01,0,.02,0,.03-.02.06-.03.13-.04.19,0,.03.01.06.02.09,0,0,0,.02,0,.03.01.1.05.2.1.28h0c1.39,2.42,2.12,5.15,2.12,7.93,0,.46.37.83.83.83h7.5c.46,0,.83-.37.83-.83s-.37-.83-.83-.83h-6.69c-.11-2.31-.68-4.58-1.67-6.67h2.65ZM587.43,477.99c.92,0,1.67.75,1.67,1.67s-.75,1.67-1.67,1.67-1.67-.75-1.67-1.67.75-1.67,1.67-1.67Z"/><path id="Path-3" class="cls-12" d="M541.6,488.82h7.5c.46,0,.83-.37.83-.83,0-1.68.27-3.36.79-4.96.09-.28.03-.59-.17-.82-.2-.22-.5-.32-.79-.26s-.53.27-.62.56c-.49,1.5-.77,3.07-.84,4.64h-6.7c-.46,0-.83.37-.83.83s.37.83.83.83Z"/></g><path class="cls-12" d="M613.62,594.06h-2.1c-1.34,0-2.43-1.08-2.43-2.42,0-.4-.33-.73-.73-.73s-.73.33-.73.73c0,2.14,1.75,3.88,3.9,3.88h2.1c.4,0,.73-.33.73-.73s-.33-.73-.73-.73Z"/><path class="cls-12" d="M620.5,599.48h-6.26c-2.07,0-3.75,1.67-3.75,3.73,0,.4.33.73.73.73s.73-.33.73-.73c0-1.25,1.02-2.27,2.28-2.27h6.26c.4,0,.73-.33.73-.73s-.33-.73-.73-.73Z"/><path class="cls-12" d="M626.47,599.48h-3.04c-.4,0-.73.33-.73.73s.33.73.73.73h3.04c.4,0,.73-.33.73-.73s-.33-.73-.73-.73Z"/><path class="cls-12" d="M621.32,585.24c-.4,0-.73.33-.73.73,0,2.09-1.71,3.8-3.82,3.8-.4,0-.73.33-.73.73s.33.73.73.73c2.91,0,5.29-2.36,5.29-5.26,0-.4-.33-.73-.73-.73Z"/><path class="cls-12" d="M619.97,574.17c-1.75-.11-3.27,1.21-3.38,2.96-.03.4.28.75.68.78.02,0,.03,0,.05,0,.38,0,.7-.3.73-.68.06-.94.88-1.65,1.82-1.59.4.03.75-.28.78-.68.03-.4-.28-.75-.68-.78Z"/><path class="cls-12" d="M617.51,602.74c-.4,0-.73.33-.73.73s.33.73.73.73c1.21,0,2.19.98,2.19,2.18s-.98,2.18-2.19,2.18c-.4,0-.73.33-.73.73s.33.73.73.73c2.02,0,3.66-1.63,3.66-3.64s-1.64-3.64-3.66-3.64Z"/><path class="cls-12" d="M625,585.49c-.4,0-.73.33-.73.73s.33.73.73.73c.97,0,1.76.78,1.76,1.75s-.79,1.75-1.76,1.75c-.4,0-.73.33-.73.73s.33.73.73.73c1.78,0,3.23-1.44,3.23-3.21s-1.45-3.21-3.23-3.21Z"/><path class="cls-12" d="M612.1,580.83c-.4,0-.73.33-.73.73s.33.73.73.73c1.67,0,3.03,1.35,3.03,3.01s-1.36,3.01-3.03,3.01c-.4,0-.73.33-.73.73s.33.73.73.73c2.48,0,4.49-2.01,4.49-4.47s-2.02-4.47-4.49-4.47Z"/><path class="cls-12" d="M646.53,580.8c-1.38,0-2.5,1.12-2.5,2.49s1.12,2.49,2.5,2.49,2.5-1.12,2.5-2.49c0-1.37-1.12-2.49-2.5-2.49ZM646.53,584.31c-.57,0-1.03-.46-1.03-1.02,0-.56.46-1.02,1.03-1.02s1.03.46,1.03,1.02-.46,1.02-1.03,1.02Z"/><path class="cls-12" d="M648.98,599.55c-1.38,0-2.5,1.12-2.5,2.49s1.12,2.49,2.5,2.49,2.5-1.12,2.5-2.49-1.12-2.49-2.5-2.49ZM648.98,603.06c-.57,0-1.03-.46-1.03-1.02s.46-1.02,1.03-1.02,1.03.46,1.03,1.02c0,.56-.46,1.02-1.03,1.02Z"/><path class="cls-12" d="M647.44,590.77c-.42,0-.82.11-1.17.29l-1.43-1.42c-.29-.29-.75-.28-1.04,0-.29.29-.28.75,0,1.04l1.42,1.42c-.18.35-.29.74-.29,1.16,0,1.37,1.12,2.49,2.5,2.49s2.5-1.12,2.5-2.49c0-1.37-1.12-2.49-2.5-2.49ZM647.44,594.28c-.57,0-1.03-.46-1.03-1.02s.46-1.02,1.03-1.02,1.03.46,1.03,1.02-.46,1.02-1.03,1.02Z"/><path class="cls-12" d="M645.79,607.19c-1.38,0-2.5,1.12-2.5,2.49s1.12,2.49,2.5,2.49,2.5-1.12,2.5-2.49-1.12-2.49-2.5-2.49ZM645.79,610.7c-.57,0-1.03-.46-1.03-1.02s.46-1.02,1.03-1.02,1.03.46,1.03,1.02c0,.56-.46,1.02-1.03,1.02Z"/><path class="cls-12" d="M637.22,581.73c.47,0,1.02-.23,1.35-.56l2.83-2.82c.28.11.59.17.92.17,1.38,0,2.5-1.12,2.5-2.49s-1.12-2.49-2.5-2.49-2.5,1.12-2.5,2.49c0,.52.16.99.43,1.39l-2.71,2.7c-.06.05-.24.13-.32.13h-6.05v-4.85h1.7c.31,1.02,1.27,1.76,2.39,1.76,1.38,0,2.5-1.12,2.5-2.49s-1.12-2.49-2.5-2.49c-1.12,0-2.07.74-2.39,1.76h-1.7v-.11c0-3.24-2.65-5.88-5.9-5.88-2.33,0-4.41,1.36-5.36,3.43-.15-.01-.29-.02-.44-.02-3.38,0-6.14,2.7-6.22,6.05-.29-.04-.59-.06-.88-.06-3.43,0-6.22,2.78-6.22,6.2,0,.75.13,1.48.39,2.17-2.56,1.52-4.12,4.23-4.12,7.24,0,1.61.46,3.18,1.33,4.54.72,1.12,1.68,2.04,2.82,2.72-.27.71-.42,1.46-.42,2.22,0,1.51.55,2.96,1.55,4.09.27.3.73.33,1.03.06.3-.27.33-.73.06-1.03-.76-.86-1.18-1.97-1.18-3.12,0-.77.18-1.51.54-2.19.43-.82,1.1-1.51,1.94-1.96.36-.19.49-.64.3-.99-.19-.36-.64-.49-.99-.3-.87.47-1.6,1.14-2.15,1.93-2.09-1.26-3.37-3.49-3.37-5.96,0-2.64,1.46-5.01,3.83-6.21,0,0,1.37-.76,3.18-.76.4,0,.73-.33.73-.73s-.33-.73-.73-.73c-1.06,0-2.08.2-3.02.55-.17-.49-.26-1-.26-1.52,0-2.61,2.13-4.73,4.76-4.73.49,0,.98.08,1.45.22.24.08.5.02.7-.14.19-.16.29-.41.25-.66-.03-.23-.05-.46-.05-.68,0-2.61,2.13-4.73,4.76-4.73.26,0,.52.02.78.07,2.25.37,3.97,2.32,3.97,4.67,0,.4.33.73.73.73s.73-.33.73-.73c0-2.74-1.8-5.08-4.29-5.89.77-1.38,2.24-2.26,3.87-2.26,2.45,0,4.44,1.98,4.44,4.41v.08h-1.41c-.4,0-.73.33-.73.73s.33.73.73.73h1.41v4.88h-5.92c-1.34,0-2.43-1.08-2.43-2.42,0-.4-.33-.73-.73-.73s-.73.33-.73.73c0,2.14,1.75,3.88,3.9,3.88h5.92v12.33h-11.88c-.4,0-.73.33-.73.73s.33.73.73.73h11.88v10.06h-2.26c-2.07,0-3.75,1.67-3.75,3.73,0,.4.33.73.73.73s.73-.33.73-.73c0-1.25,1.02-2.27,2.28-2.27h2.26v5.05c0,.12,0,.23-.01.34h-1.39c-.4,0-.73.33-.73.73s.33.73.73.73h1.02c-.7,1.53-2.25,2.6-4.05,2.6-1.62,0-3.08-.87-3.86-2.23.88-.29,1.7-.77,2.38-1.44.29-.28.3-.74.02-1.04-.28-.29-.74-.3-1.04-.02-.7.67-1.57,1.11-2.52,1.27-.27.04-.53.07-.79.07-2.62,0-4.76-2.12-4.76-4.73,0-.07,0-.14,0-.2.59-.24,1.15-.57,1.64-.98.31-.26.35-.72.09-1.03s-.71-.34-1.03-.09c-1.47,1.15-2.89,1.14-3.46,1.09-.4-.03-.76.27-.79.67-.03.4.27.76.67.79.47.04.95.03,1.41-.04.1,3.33,2.85,6,6.22,6,.15,0,.3,0,.45-.02.96,2.06,3.04,3.41,5.35,3.41,3.25,0,5.9-2.64,5.9-5.88v-1.62h3.88c.08,0,.26.08.32.13l1.75,1.74c-.24.38-.37.83-.37,1.31,0,1.37,1.12,2.49,2.5,2.49s2.5-1.12,2.5-2.49-1.12-2.49-2.5-2.49c-.36,0-.71.08-1.02.22l-1.82-1.81c-.33-.33-.89-.56-1.35-.56h-3.88v-3.92h6.37c.31,1.02,1.27,1.76,2.39,1.76,1.38,0,2.5-1.12,2.5-2.49s-1.12-2.49-2.5-2.49c-1.12,0-2.07.74-2.39,1.76h-6.37v-4.91h7.62c.31,1.02,1.27,1.76,2.39,1.76,1.38,0,2.5-1.12,2.5-2.49s-1.12-2.49-2.5-2.49c-1.12,0-2.07.74-2.39,1.76h-7.62v-5.33h1.81c.31,1.02,1.27,1.76,2.39,1.76,1.38,0,2.5-1.12,2.5-2.49s-1.12-2.49-2.5-2.49c-1.12,0-2.07.74-2.39,1.76h-1.81v-4.23h7.98c.08,0,.26.08.32.13l1.5,1.5c.14.14.33.21.52.21s.38-.07.52-.22c.29-.29.28-.75,0-1.04l-1.5-1.5c-.33-.33-.89-.56-1.35-.56h-7.98v-3.04h6.05ZM642.32,575.02c.57,0,1.03.46,1.03,1.02s-.46,1.02-1.03,1.02-1.03-.46-1.03-1.02.46-1.02,1.03-1.02ZM635.26,573.66c.57,0,1.03.46,1.03,1.02s-.46,1.02-1.03,1.02-1.03-.46-1.03-1.02c0-.56.46-1.02,1.03-1.02ZM639.25,612.62c.57,0,1.03.46,1.03,1.02s-.46,1.02-1.03,1.02-1.03-.46-1.03-1.02.46-1.02,1.03-1.02ZM639.93,603.33c.57,0,1.03.46,1.03,1.02s-.46,1.02-1.03,1.02-1.03-.46-1.03-1.02c0-.56.46-1.02,1.03-1.02ZM641.18,596.96c.57,0,1.03.46,1.03,1.02s-.46,1.02-1.03,1.02-1.03-.46-1.03-1.02.46-1.02,1.03-1.02ZM635.38,590.17c.57,0,1.03.46,1.03,1.02s-.46,1.02-1.03,1.02-1.03-.46-1.03-1.02.46-1.02,1.03-1.02Z"/><path class="cls-12" d="M609.98,809.67h6.99c.49,0,.89-.4.89-.89s-.4-.89-.89-.89h-6.99c-3.69,0-6.7-3-6.7-6.7,0-3.44,2.58-6.3,5.99-6.66.28-.03.53-.19.67-.43.14-.24.17-.54.06-.8-.31-.76-.47-1.56-.47-2.38,0-3.45,2.8-6.25,6.25-6.25,1.75,0,3.43.74,4.61,2.04.19.21.47.32.75.29.28-.03.53-.19.68-.43,2.04-3.42,5.62-5.47,9.59-5.47,6.15,0,11.16,5.01,11.16,11.16,0,.39-.03.81-.08,1.26-.03.26.09.52.28.72s.48.29.74.27c.13,0,.26-.02.4-.02,3.69,0,6.7,3,6.7,6.7s-3,6.7-6.7,6.7h-10.27c-.49,0-.89.4-.89.89s.4.89.89.89h10.27c4.68,0,8.48-3.81,8.48-8.48s-3.57-8.24-8.05-8.47c0-.16,0-.31,0-.46,0-7.14-5.81-12.95-12.95-12.95-4.16,0-8.1,2.05-10.51,5.42-1.43-1.18-3.24-1.84-5.11-1.84-4.43,0-8.04,3.6-8.04,8.04,0,.69.09,1.36.26,2.02-3.78.89-6.51,4.27-6.51,8.25,0,4.68,3.81,8.48,8.48,8.48Z"/><path class="cls-12" d="M624.71,822.17c.49,0,.89-.4.89-.89v-23.21h7.27c.4,1.54,1.79,2.68,3.44,2.68,1.97,0,3.57-1.6,3.57-3.57s-1.6-3.57-3.57-3.57c-1.66,0-3.04,1.14-3.44,2.68h-8.16c-.49,0-.89.4-.89.89v23.21h-17.86v-2.81c1.54-.4,2.68-1.79,2.68-3.44,0-1.97-1.6-3.57-3.57-3.57s-3.57,1.6-3.57,3.57c0,1.66,1.14,3.05,2.68,3.44v3.7c0,.49.4.89.89.89h19.64ZM636.32,795.39c.99,0,1.79.8,1.79,1.79s-.8,1.79-1.79,1.79-1.79-.8-1.79-1.79.8-1.79,1.79-1.79ZM603.29,814.14c0-.99.8-1.79,1.79-1.79s1.79.8,1.79,1.79-.8,1.79-1.79,1.79-1.79-.8-1.79-1.79Z"/><path class="cls-12" d="M614.89,814.14c-.49,0-.89.4-.89.89s.4.89.89.89h6.25c.49,0,.89-.4.89-.89v-10.71c0-.21-.07-.41-.21-.57l-3.91-4.69c.34-.55.55-1.19.55-1.88,0-1.97-1.6-3.57-3.57-3.57s-3.57,1.6-3.57,3.57,1.6,3.57,3.57,3.57c.63,0,1.21-.18,1.73-.46l3.63,4.36v9.5h-5.36ZM613.11,797.17c0-.99.8-1.79,1.79-1.79s1.79.8,1.79,1.79c0,.35-.1.66-.27.94-.11.03-.21.09-.3.16-.13.11-.21.25-.26.4-.28.18-.6.28-.95.28-.98,0-1.79-.8-1.79-1.79Z"/><path class="cls-12" d="M649.71,814.14h-18.75v-7.27c1.54-.4,2.68-1.79,2.68-3.44,0-1.97-1.6-3.57-3.57-3.57s-3.57,1.6-3.57,3.57c0,1.66,1.14,3.05,2.68,3.44v8.16c0,.49.4.89.89.89h19.64c.49,0,.89-.4.89-.89s-.4-.89-.89-.89ZM628.29,803.42c0-.98.8-1.79,1.79-1.79s1.79.8,1.79,1.79-.8,1.79-1.79,1.79-1.79-.8-1.79-1.79Z"/><path class="cls-12" d="M648.82,824.85h-6.62l-3.31-5.8c-.16-.28-.45-.45-.78-.45h-8.04c-.49,0-.89.4-.89.89s.4.89.89.89h7.52l3.31,5.8c.16.28.45.45.78.45h7.14c.49,0,.89-.4.89-.89s-.4-.89-.89-.89Z"/><path class="cls-12" d="M637.21,824.85h-2.81c-.4-1.54-1.79-2.68-3.44-2.68s-3.05,1.14-3.44,2.68h-21.56c-.49,0-.89.4-.89.89s.4.89.89.89h21.56c.4,1.54,1.79,2.68,3.44,2.68s3.04-1.14,3.44-2.68h2.81c.49,0,.89-.4.89-.89s-.4-.89-.89-.89ZM630.96,827.53c-.99,0-1.79-.8-1.79-1.79s.8-1.79,1.79-1.79,1.79.8,1.79,1.79-.8,1.79-1.79,1.79Z"/><g id="surface1"><path class="cls-12" d="M587.43,674.36h-25c-1.84,0-3.33,1.49-3.33,3.33v16.67c0,1.84,1.49,3.33,3.33,3.33h8.06l-1.19,4.17h-1.87v1.67h15v-1.67h-1.87l-1.19-4.17h8.06c1.84,0,3.33-1.49,3.33-3.33v-16.67c0-1.84-1.49-3.33-3.33-3.33ZM560.76,677.69c0-.92.75-1.67,1.67-1.67h25c.92,0,1.67.75,1.67,1.67v14.17h-28.33v-14.17ZM578.82,701.86h-7.79l1.19-4.17h5.41l1.19,4.17ZM587.43,696.03h-25c-.92,0-1.67-.75-1.67-1.67v-.83h28.33v.83c0,.92-.75,1.67-1.67,1.67Z"/><path class="cls-12" d="M543.26,724.36h21.67c1.38,0,2.5-1.12,2.5-2.5v-2.5c0-.46-.37-.83-.83-.83h-1.67v-11.67c0-1.38-1.12-2.5-2.5-2.5h-16.67c-1.38,0-2.5,1.12-2.5,2.5v11.67h-1.67c-.46,0-.83.37-.83.83v2.5c0,1.38,1.12,2.5,2.5,2.5ZM544.93,706.86c0-.46.37-.83.83-.83h16.67c.46,0,.83.37.83.83v11.67h-6.67c-.22,0-.43.09-.59.24l-.59.59h-2.64l-.59-.59c-.16-.16-.37-.24-.59-.24h-6.67v-11.67ZM542.43,720.19h8.82l.59.59c.16.16.37.24.59.24h3.33c.22,0,.43-.09.59-.24l.59-.59h8.82v1.67c0,.46-.37.83-.83.83h-21.67c-.46,0-.83-.37-.83-.83v-1.67Z"/><path class="cls-12" d="M549.1,697.69h1.67v1.67h-1.67v-1.67Z"/><path class="cls-12" d="M549.1,694.36h1.67v1.67h-1.67v-1.67Z"/><path class="cls-12" d="M549.1,701.03h1.67v1.67h-1.67v-1.67Z"/><path class="cls-12" d="M549.1,691.03h1.67v1.67h-1.67v-1.67Z"/><path class="cls-12" d="M549.1,687.69h1.67v1.67h-1.67v-1.67Z"/><path class="cls-12" d="M552.43,687.69h1.67v1.67h-1.67v-1.67Z"/><path class="cls-12" d="M555.76,687.69h1.67v1.67h-1.67v-1.67Z"/><path class="cls-12" d="M579.1,708.53h1.67v1.67h-1.67v-1.67Z"/><path class="cls-12" d="M579.1,711.86h1.67v1.67h-1.67v-1.67Z"/><path class="cls-12" d="M579.1,705.19h1.67v1.67h-1.67v-1.67Z"/><path class="cls-12" d="M579.1,715.19h1.67v1.67h-1.67v-1.67Z"/><path class="cls-12" d="M579.1,718.53h1.67v1.67h-1.67v-1.67Z"/><path class="cls-12" d="M575.76,718.53h1.67v1.67h-1.67v-1.67Z"/><path class="cls-12" d="M572.43,718.53h1.67v1.67h-1.67v-1.67Z"/><path class="cls-12" d="M569.1,718.53h1.67v1.67h-1.67v-1.67Z"/><path class="cls-12" d="M574.52,680.01c.66,0,1.31.17,1.88.5.35.2.8.12,1.06-.2.26-.32.25-.77-.02-1.08l-1.04-1.24-.6.5c-1.62-.39-3.33-.02-4.64,1.01-1.31,1.03-2.07,2.6-2.07,4.27,0,.84.19,1.67.57,2.42l1.49-.74c-.58-1.17-.52-2.55.17-3.66.69-1.11,1.9-1.78,3.2-1.78Z"/><path class="cls-12" d="M577.87,682.03c.26.52.4,1.1.39,1.68,0,1.34-.72,2.59-1.88,3.26-1.16.67-2.6.67-3.76,0-.35-.2-.8-.12-1.06.2-.26.32-.25.78.02,1.08l.97,1.55,1.18-.71c1.56.22,3.14-.24,4.33-1.27,1.19-1.03,1.87-2.53,1.88-4.1,0-.84-.19-1.67-.57-2.42l-1.49.74Z"/><path class="cls-12" d="M551.6,712.69c0-.79.37-1.53,1-2,.63-.47,1.44-.62,2.19-.41l.46-1.6c-1.78-.51-3.68.21-4.67,1.78-.99,1.56-.83,3.59.4,4.98l1.25-1.1c-.4-.46-.62-1.04-.62-1.65Z"/><path class="cls-12" d="M554.1,715.19c-.29,0-.58-.05-.85-.15l-.57,1.56c1.79.65,3.79,0,4.86-1.58,1.07-1.57.94-3.67-.32-5.1l-1.25,1.1c.65.74.81,1.79.41,2.68-.4.9-1.3,1.47-2.28,1.47Z"/></g><path class="cls-12" d="M677,684.85l1.21,1.56c-.49.77-.87,1.61-1.12,2.49l-1.87.24c-.3.04-.52.29-.52.58v3.01c0,.3.22.55.52.58l1.7.21c.2.98.56,1.93,1.06,2.8l-.98,1.27c-.18.24-.17.57.05.78l2.13,2.13c.21.21.54.23.78.05l1.17-.91c.91.58,1.89,1.01,2.93,1.26l.18,1.43c.04.3.29.52.58.52h3.01c.3,0,.55-.22.58-.52l.18-1.43c1.04-.25,2.02-.68,2.93-1.26l1.17.91c.24.18.57.17.78-.05l2.13-2.13c.21-.21.23-.54.05-.78l-.98-1.27c.5-.87.86-1.81,1.06-2.8l1.7-.21c.3-.04.52-.29.52-.58v-3.01c0-.3-.22-.55-.52-.58l-1.87-.24c-.25-.88-.63-1.72-1.12-2.49l1.21-1.56c.18-.24.17-.57-.05-.78l-2.13-2.13c-.21-.21-.54-.23-.78-.05l-1.66,1.29c-.75-.43-1.54-.75-2.35-.95l-.26-2.11c-.04-.3-.29-.52-.58-.52h-3.01c-.3,0-.55.22-.58.52l-.26,2.11c-.82.2-1.61.53-2.35.95l-1.66-1.29c-.24-.18-.57-.17-.78.05l-2.13,2.13c-.24.21-.26.54-.08.78h0ZM679.64,683.15l1.57,1.22c.2.15.46.17.68.03.86-.54,1.79-.91,2.74-1.1.25-.05.43-.25.46-.5l.25-2.01h1.96l.25,2.01c.03.25.22.46.46.5.96.2,1.88.57,2.74,1.1.21.13.48.12.68-.03l1.57-1.22,1.39,1.39-1.16,1.49c-.16.2-.17.49-.02.7.61.86,1.03,1.82,1.28,2.85.06.24.26.42.5.45l1.75.22v1.96l-1.61.2c-.26.03-.46.24-.51.5-.18,1.13-.58,2.19-1.19,3.15-.13.21-.12.48.03.68l.91,1.18-1.39,1.39-1.1-.86c-.2-.16-.5-.17-.7-.02-.98.7-2.08,1.17-3.26,1.4-.25.05-.44.25-.47.5l-.17,1.32h-1.96l-.17-1.32c-.03-.25-.22-.46-.47-.5-1.17-.23-2.27-.7-3.26-1.4-.21-.15-.5-.14-.7.02l-1.1.86-1.39-1.39.91-1.18c.15-.2.17-.46.03-.68-.61-.96-1.01-2.02-1.19-3.15-.04-.26-.25-.46-.51-.5l-1.61-.2v-1.96l1.75-.22c.24-.03.44-.2.5-.45.25-1.03.68-1.99,1.28-2.85.15-.21.14-.5-.02-.7l-1.16-1.49,1.39-1.38Z"/><path class="cls-12" d="M686.33,696.82c2.91,0,5.27-2.36,5.27-5.27s-2.36-5.27-5.27-5.27-5.27,2.36-5.27,5.27,2.36,5.27,5.27,5.27ZM686.33,687.46c2.25,0,4.09,1.83,4.09,4.09s-1.83,4.09-4.09,4.09-4.09-1.83-4.09-4.09,1.83-4.09,4.09-4.09Z"/><path class="cls-12" d="M695.01,681.57c.32,0,.59-.27.59-.59v-4.92h2.8c.28,1.35,1.46,2.36,2.89,2.36,1.63,0,2.95-1.32,2.95-2.95s-1.32-2.95-2.95-2.95c-1.43,0-2.62,1.02-2.89,2.36h-3.39c-.32,0-.59.27-.59.59v5.51c0,.32.26.59.59.59h0ZM701.29,673.7c.98,0,1.77.8,1.77,1.77s-.8,1.77-1.77,1.77-1.77-.8-1.77-1.77.8-1.77,1.77-1.77Z"/><path class="cls-12" d="M706.8,678.82c-1.43,0-2.62,1.02-2.89,2.36h-2.62c-.32,0-.59.27-.59.59v4.13h-4.14c-.32,0-.59.27-.59.59s.27.59.59.59h4.14v3.54h-.98c-.32,0-.59.27-.59.59s.27.59.59.59h1.57c.32,0,.59-.27.59-.59v-4.13h.98c1.41,0,2.56,1.15,2.56,2.56v18.31h-38.19v-18.31c0-1.41,1.15-2.56,2.56-2.56h.98v4.13c0,.32.27.59.59.59h1.57c.32,0,.59-.27.59-.59s-.27-.59-.59-.59h-.98v-3.54h4.14c.32,0,.59-.27.59-.59s-.27-.59-.59-.59h-4.14v-4.13c0-.32-.27-.59-.59-.59h-2.62c-.28-1.35-1.46-2.36-2.89-2.36-1.63,0-2.95,1.32-2.95,2.95s1.32,2.95,2.95,2.95c1.43,0,2.62-1.02,2.89-2.36h2.03v3.54h-.98c-2.06,0-3.74,1.68-3.74,3.74v20.47c0,2.06,1.68,3.74,3.74,3.74h8.86v3.54h-2.56c-.32,0-.59.27-.59.59s.27.59.59.59h20.47c.32,0,.59-.27.59-.59s-.27-.59-.59-.59h-2.56v-3.54h8.86c2.06,0,3.74-1.68,3.74-3.74v-20.47c0-2.06-1.68-3.74-3.74-3.74h-.98v-3.54h2.03c.28,1.35,1.46,2.36,2.89,2.36,1.63,0,2.95-1.32,2.95-2.95s-1.32-2.95-2.95-2.95ZM665.85,683.54c-.98,0-1.77-.8-1.77-1.77s.8-1.77,1.77-1.77,1.77.8,1.77,1.77-.8,1.77-1.77,1.77ZM692.82,717.4h-12.99v-3.54h12.99v3.54ZM705.42,710.12c0,1.41-1.15,2.56-2.56,2.56h-33.07c-1.41,0-2.56-1.15-2.56-2.56v-.98h38.19v.98ZM706.8,683.54c-.98,0-1.77-.8-1.77-1.77s.8-1.77,1.77-1.77,1.77.8,1.77,1.77-.8,1.77-1.77,1.77Z"/><path class="cls-12" d="M671.37,678.42c1.43,0,2.62-1.02,2.89-2.36h2.8v4.92c0,.32.27.59.59.59s.59-.27.59-.59v-5.51c0-.32-.27-.59-.59-.59h-3.39c-.28-1.35-1.46-2.36-2.89-2.36-1.63,0-2.95,1.32-2.95,2.95s1.32,2.95,2.95,2.95h0ZM671.37,673.7c.98,0,1.77.8,1.77,1.77s-.8,1.77-1.77,1.77-1.77-.8-1.77-1.77.8-1.77,1.77-1.77Z"/><path class="cls-12" d="M685.74,674.42v3.41c0,.32.27.59.59.59s.59-.27.59-.59v-3.41c1.35-.28,2.36-1.46,2.36-2.89,0-1.63-1.32-2.95-2.95-2.95s-2.95,1.32-2.95,2.95c0,1.43,1.02,2.62,2.36,2.89ZM686.33,669.76c.98,0,1.77.8,1.77,1.77s-.8,1.77-1.77,1.77-1.77-.8-1.77-1.77.8-1.77,1.77-1.77Z"/><path class="cls-12" d="M457.05,722.08h-17.69c-.35,0-.64-.29-.64-.64v-3.01c0-.4-.33-.73-.73-.73s-.73.33-.73.73v3.01c0,1.16.94,2.1,2.1,2.1h17.69c.4,0,.73-.33.73-.73s-.33-.73-.73-.73Z"/><path class="cls-12" d="M465.03,717.71c-.4,0-.73.33-.73.73v3.01c0,.35-.29.64-.64.64h-3.17c-.4,0-.73.33-.73.73s.33.73.73.73h3.17c1.16,0,2.1-.94,2.1-2.1v-3.01c0-.4-.33-.73-.73-.73Z"/><path class="cls-12" d="M459.07,677.21v-2.2h4.59c.35,0,.64.29.64.64v3.01c0,.4.33.73.73.73s.73-.33.73-.73v-3.01c0-1.16-.94-2.1-2.1-2.1h-13.08c-.4,0-.73.33-.73.73s.33.73.73.73h7.03v1.46h-12.2v-1.46h1.8c.4,0,.73-.33.73-.73s-.33-.73-.73-.73h-7.86c-1.16,0-2.1.94-2.1,2.1v3.01c0,.4.33.73.73.73s.73-.33.73-.73v-3.01c0-.35.29-.64.64-.64h4.59v2.2c0,.4.33.73.73.73h13.67c.4,0,.73-.33.73-.73h0Z"/><path class="cls-12" d="M446.62,718.91c0,.4.33.73.73.73h8.31c.4,0,.73-.33.73-.73s-.33-.73-.73-.73h-8.31c-.4,0-.73.33-.73.73Z"/><path class="cls-12" d="M442.13,717.75c1.21,0,2.19-.99,2.19-2.2s-.98-2.2-2.19-2.2c-.95,0-1.77.61-2.07,1.47h-10.63c-.17,0-.34.06-.47.17l-2.15,1.81c-.31.26-.35.72-.09,1.03.14.17.35.26.56.26.17,0,.33-.06.47-.17l1.95-1.64h10.36c.3.85,1.11,1.47,2.07,1.47ZM442.13,714.82c.4,0,.73.33.73.73s-.33.73-.73.73-.73-.33-.73-.73.33-.73.73-.73Z"/><path class="cls-12" d="M426.75,680.29l2.15,1.81c.13.11.3.17.47.17h10.63c.3.85,1.11,1.47,2.07,1.47,1.21,0,2.19-.99,2.19-2.2s-.98-2.2-2.19-2.2c-.95,0-1.77.61-2.07,1.47h-10.36l-1.95-1.64c-.31-.26-.77-.22-1.03.09-.26.31-.22.77.09,1.03h0ZM442.08,680.81c.4,0,.73.33.73.73s-.33.73-.73.73-.73-.33-.73-.73.33-.73.73-.73Z"/><path class="cls-12" d="M442.08,696.35c-.95,0-1.77.61-2.07,1.47h-12.73c-.4,0-.73.33-.73.73s.33.73.73.73h12.73c.3.85,1.11,1.47,2.07,1.47,1.21,0,2.19-.99,2.19-2.2s-.98-2.2-2.19-2.2h0ZM442.08,699.28c-.4,0-.73-.33-.73-.73s.33-.73.73-.73.73.33.73.73-.33.73-.73.73Z"/><path class="cls-12" d="M428.69,692.24c.95,0,1.77-.61,2.07-1.47h6.5v4.84c0,.4.33.73.73.73s.73-.33.73-.73v-11.19c0-.4-.33-.73-.73-.73s-.73.33-.73.73v4.89h-6.5c-.3-.85-1.11-1.47-2.07-1.47-1.21,0-2.19.99-2.19,2.2s.98,2.2,2.19,2.2ZM428.69,689.31c.4,0,.73.33.73.73s-.33.73-.73.73-.73-.33-.73-.73.33-.73.73-.73Z"/><path class="cls-12" d="M428.69,709.24c.95,0,1.77-.61,2.07-1.47h6.5v4.84c0,.4.33.73.73.73s.73-.33.73-.73v-11.12c0-.4-.33-.73-.73-.73s-.73.33-.73.73v4.81h-6.5c-.3-.85-1.11-1.47-2.07-1.47-1.21,0-2.19.99-2.19,2.2s.98,2.2,2.19,2.2ZM428.69,706.31c.4,0,.73.33.73.73s-.33.73-.73.73-.73-.33-.73-.73.33-.73.73-.73Z"/><path class="cls-12" d="M476.18,716.8l-2.15-1.81c-.13-.11-.3-.17-.47-.17h-10.63c-.3-.85-1.11-1.47-2.07-1.47-1.21,0-2.19.99-2.19,2.2s.98,2.2,2.19,2.2c.95,0,1.77-.61,2.07-1.47h10.36l1.95,1.64c.14.12.3.17.47.17.21,0,.42-.09.56-.26.26-.31.22-.77-.09-1.03ZM460.86,716.29c-.4,0-.73-.33-.73-.73s.33-.73.73-.73.73.33.73.73-.33.73-.73.73Z"/><path class="cls-12" d="M460.91,679.34c-1.21,0-2.19.99-2.19,2.2s.98,2.2,2.19,2.2c.95,0,1.77-.61,2.07-1.47h10.63c.17,0,.34-.06.47-.17l2.15-1.81c.31-.26.35-.72.09-1.03-.26-.31-.72-.35-1.03-.09l-1.95,1.64h-10.36c-.3-.85-1.11-1.47-2.07-1.47h0ZM460.91,682.27c-.4,0-.73-.33-.73-.73s.33-.73.73-.73.73.33.73.73-.33.73-.73.73Z"/><path class="cls-12" d="M458.72,698.55c0,1.21.98,2.2,2.19,2.2.95,0,1.77-.61,2.07-1.47h12.73c.4,0,.73-.33.73-.73s-.33-.73-.73-.73h-12.73c-.3-.85-1.11-1.47-2.07-1.47-1.21,0-2.19.99-2.19,2.2h0ZM461.64,698.55c0,.4-.33.73-.73.73s-.73-.33-.73-.73.33-.73.73-.73.73.33.73.73Z"/><path class="cls-12" d="M474.3,687.85c-.95,0-1.77.61-2.07,1.47h-6.47v-4.89c0-.4-.33-.73-.73-.73s-.73.33-.73.73v11.19c0,.4.33.73.73.73s.73-.33.73-.73v-4.84h6.47c.3.85,1.11,1.47,2.07,1.47,1.21,0,2.19-.99,2.19-2.2s-.98-2.2-2.19-2.2ZM474.3,690.78c-.4,0-.73-.33-.73-.73s.33-.73.73-.73.73.33.73.73-.33.73-.73.73Z"/><path class="cls-12" d="M474.3,704.85c-.95,0-1.77.61-2.07,1.47h-6.47v-4.81c0-.4-.33-.73-.73-.73s-.73.33-.73.73v11.12c0,.4.33.73.73.73s.73-.33.73-.73v-4.84h6.47c.3.85,1.11,1.47,2.07,1.47,1.21,0,2.19-.99,2.19-2.2s-.98-2.2-2.19-2.2ZM474.3,707.78c-.4,0-.73-.33-.73-.73s.33-.73.73-.73.73.33.73.73-.33.73-.73.73Z"/><path class="cls-12" d="M451.51,692.8h-4.3c-.4,0-.73.33-.73.73v10.03c0,.4.33.73.73.73s.73-.33.73-.73v-4.28h2.83v4.28c0,.4.33.73.73.73s.73-.33.73-.73v-10.03c0-.4-.33-.73-.73-.73h0ZM447.94,697.81v-3.55h2.83v3.55h-2.83Z"/><path class="cls-12" d="M456.54,703.56v-10.03c0-.4-.33-.73-.73-.73s-.73.33-.73.73v10.03c0,.4.33.73.73.73s.73-.33.73-.73Z"/><path class="cls-12" d="M614.99,1028.68c-3,0-5.43-2.44-5.43-5.43v-2.17c0-3,2.44-5.44,5.43-5.44s5.44,2.44,5.44,5.44v2.17c0,3-2.44,5.43-5.44,5.43ZM614.99,1017.82c-1.8,0-3.26,1.46-3.26,3.26v2.17c0,1.8,1.46,3.26,3.26,3.26s3.26-1.46,3.26-3.26v-2.17c0-1.8-1.46-3.26-3.26-3.26Z"/><path class="cls-12" d="M608.47,1035.21h-2.17v-2.68c0-.73.36-1.41.97-1.81l4.46-3.64v-.57h2.17v1.09c0,.33-.15.64-.4.84l-4.95,4.02-.08,2.74Z"/><path class="cls-12" d="M623.69,1035.21h-2.17v-2.68l-5.03-4.09c-.25-.21-.4-.52-.4-.84v-1.09h2.17v.57l4.55,3.7c.52.34.88,1.02.88,1.75v2.68Z"/><path class="cls-12" d="M638.9,1028.68c-3,0-5.43-2.44-5.43-5.43v-2.17c0-3,2.44-5.44,5.43-5.44s5.43,2.44,5.43,5.44v2.17c0,3-2.44,5.43-5.43,5.43ZM638.9,1017.82c-1.8,0-3.26,1.46-3.26,3.26v2.17c0,1.8,1.46,3.26,3.26,3.26s3.26-1.46,3.26-3.26v-2.17c0-1.8-1.46-3.26-3.26-3.26Z"/><path class="cls-12" d="M632.38,1035.21h-2.17v-2.68c0-.73.36-1.41.97-1.81l4.46-3.64v-.57h2.17v1.09c0,.33-.15.64-.4.84l-4.95,4.02-.08,2.74Z"/><path class="cls-12" d="M647.6,1035.21h-2.17v-2.68l-5.03-4.09c-.25-.21-.4-.52-.4-.84v-1.09h2.17v.57l4.55,3.7c.52.34.88,1.02.88,1.75v2.68Z"/><path class="cls-12" d="M626.95,1006.95c-3,0-5.44-2.44-5.44-5.43v-2.17c0-3,2.44-5.43,5.44-5.43s5.43,2.44,5.43,5.43v2.17c0,3-2.44,5.43-5.43,5.43ZM626.95,996.08c-1.8,0-3.26,1.46-3.26,3.26v2.17c0,1.8,1.46,3.26,3.26,3.26s3.26-1.46,3.26-3.26v-2.17c0-1.8-1.46-3.26-3.26-3.26Z"/><path class="cls-12" d="M620.42,1013.47h-2.17v-2.68c0-.73.36-1.41.97-1.81l4.47-3.64v-.57h2.17v1.09c0,.33-.15.64-.4.84l-4.95,4.03-.08,2.74Z"/><path class="cls-12" d="M635.64,1013.47h-2.17v-2.68l-5.03-4.09c-.25-.21-.4-.52-.4-.84v-1.09h2.17v.57l4.55,3.7c.52.34.88,1.02.88,1.75v2.68Z"/><path class="cls-12" d="M614.99,1040.64c-.38,0-.76-.2-.96-.57-.29-.53-.09-1.19.43-1.47l11.39-6.21v-13.93l-10.87-5.93-10.87,5.93v14.57c0,.6-.49,1.09-1.09,1.09s-1.09-.49-1.09-1.09v-15.22c0-.4.22-.76.57-.95l11.96-6.52c.33-.18.72-.18,1.04,0l11.96,6.52c.35.19.57.56.57.95v15.22c0,.4-.22.76-.57.95l-11.96,6.52c-.17.09-.34.13-.52.13Z"/><path class="cls-12" d="M614.99,1040.64c-.18,0-.37-.05-.54-.14l-7.61-4.35c-.52-.3-.7-.96-.4-1.48.3-.52.96-.7,1.48-.4l7.61,4.35c.52.3.7.96.4,1.48-.2.35-.57.55-.94.55Z"/><path class="cls-12" d="M638.9,1040.64c-.18,0-.36-.04-.52-.13l-11.96-6.52c-.35-.19-.57-.56-.57-.95v-15.22c0-.6.49-1.09,1.09-1.09s1.09.49,1.09,1.09v14.57l10.87,5.93,10.87-5.93v-13.94l-7.06-4.03c-.52-.3-.7-.96-.4-1.48.3-.52.96-.7,1.48-.4l7.61,4.35c.34.19.55.55.55.94v15.22c0,.4-.22.76-.57.95l-11.96,6.52c-.16.09-.34.13-.52.13Z"/><path class="cls-12" d="M631.29,1016.73c-.38,0-.74-.2-.94-.55-.3-.52-.12-1.19.4-1.48l7.61-4.35c.52-.3,1.18-.12,1.48.4.3.52.12,1.19-.4,1.48l-7.61,4.35c-.17.1-.36.14-.54.14Z"/><path class="cls-12" d="M638.9,1012.38c-.6,0-1.09-.49-1.09-1.09v-14.57l-10.87-5.93-10.87,5.93v14.57c0,.6-.49,1.09-1.09,1.09s-1.09-.49-1.09-1.09v-15.22c0-.4.22-.76.57-.95l11.96-6.52c.32-.18.72-.18,1.04,0l11.96,6.52c.35.19.57.56.57.95v15.22c0,.6-.49,1.09-1.09,1.09Z"/><path class="cls-12" d="M611.73,994.99c-.21,0-.42-.06-.6-.18l-3.26-2.17c-.5-.33-.63-1.01-.3-1.51.33-.5,1.01-.64,1.51-.3l3.26,2.17c.5.33.63,1.01.3,1.51-.21.31-.55.48-.91.48Z"/><path class="cls-12" d="M638.9,997.16c-.35,0-.7-.17-.91-.48-.33-.5-.2-1.18.3-1.51l6.52-4.35c.5-.33,1.18-.2,1.51.3.33.5.2,1.18-.3,1.51l-6.52,4.35c-.19.12-.4.18-.6.18Z"/><path class="cls-12" d="M508.57,802.44c-.41,0-.74.33-.74.74s.33.74.74.74.74-.33.74-.74c0-.41-.33-.74-.74-.74Z"/><path class="cls-12" d="M529.26,820.55h-1.83v-28.88c0-1.48-1.2-2.69-2.69-2.69h-4.71c-.4,0-.73.33-.73.73s.33.73.73.73h4.71c.67,0,1.22.55,1.22,1.22v28.88h-41.94v-28.88c0-.67.55-1.22,1.22-1.22h13.99v1.49h-12.98c-.4,0-.73.33-.73.73v25.65c0,.4.33.73.73.73h2.41c.4,0,.73-.33.73-.73s-.33-.73-.73-.73h-1.68v-9.88c.29.12.61.19.94.19,1.07,0,1.98-.71,2.3-1.68h7.13v1.98l-1.9,1.58h-1.29c-.31-.97-1.22-1.68-2.3-1.68-1.33,0-2.41,1.08-2.41,2.41s1.08,2.41,2.41,2.41c1.07,0,1.98-.71,2.3-1.68h1.55c.17,0,.34-.06.47-.17l1.17-.97v.33c0,1.48,1.2,2.69,2.69,2.69h9.9c1.48,0,2.69-1.2,2.69-2.69v-.33l1.17.97c.13.11.3.17.47.17h1.55c.31.97,1.22,1.68,2.3,1.68,1.33,0,2.41-1.08,2.41-2.41s-1.08-2.41-2.41-2.41c-1.07,0-1.98.71-2.3,1.68h-1.29l-1.9-1.58v-1.98h7.13c.31.97,1.22,1.68,2.3,1.68.34,0,.65-.07.94-.19v9.88h-30.92c-.4,0-.73.33-.73.73s.33.73.73.73h31.66c.4,0,.73-.33.73-.73v-25.65c0-.4-.33-.73-.73-.73h-12.98v-1.49h5.84c.4,0,.73-.33.73-.73s-.33-.73-.73-.73h-4.36c.12-.29.19-.61.19-.94,0-1.33-1.08-2.41-2.41-2.41s-2.41,1.08-2.41,2.41c0,.34.07.65.19.94h-2.08v-2.6c.97-.31,1.68-1.22,1.68-2.3,0-1.33-1.08-2.41-2.41-2.41s-2.41,1.08-2.41,2.41c0,1.07.71,1.98,1.68,2.3v2.6h-2.08c.12-.29.19-.61.19-.94,0-1.33-1.08-2.41-2.41-2.41s-2.41,1.08-2.41,2.41c0,.34.07.65.19.94h-12.5c-1.48,0-2.69,1.2-2.69,2.69v28.88h-1.83c-.4,0-.73.33-.73.73v2.39c0,1.8,1.47,3.27,3.27,3.27h31.82c.4,0,.73-.33.73-.73s-.33-.73-.73-.73h-31.82c-1,0-1.81-.81-1.81-1.81v-1.66h47.07v1.66c0,1-.81,1.81-1.81,1.81h-8.2c-.4,0-.73.33-.73.73s.33.73.73.73h8.2c1.8,0,3.27-1.47,3.27-3.27v-2.39c0-.4-.33-.73-.73-.73h0ZM491.87,811.48c-.52,0-.94-.42-.94-.94s.42-.94.94-.94.94.42.94.94-.42.94-.94.94ZM518.12,809.59c.52,0,.94.42.94.94s-.42.94-.94.94-.94-.42-.94-.94.42-.94.94-.94ZM504.99,783.15c.52,0,.94.42.94.94s-.42.94-.94.94-.94-.42-.94-.94.42-.94.94-.94ZM487.93,806.44c-.52,0-.94-.42-.94-.94s.42-.94.94-.94.94.42.94.94-.42.94-.94.94ZM490.22,804.77c-.31-.97-1.22-1.68-2.3-1.68-.34,0-.65.07-.94.19v-9.88h12.25v2.82c0,.17.06.34.17.47l.97,1.17h-.33c-1.48,0-2.69,1.2-2.69,2.69v.33l-1.17-.97c-.13-.11-.3-.17-.47-.17h-1.55c-.31-.97-1.22-1.68-2.3-1.68-1.33,0-2.41,1.08-2.41,2.41s1.08,2.41,2.41,2.41c1.07,0,1.98-.71,2.3-1.68h1.29l1.9,1.58v1.98h-7.13ZM507.71,797.86h-1.98v-4.45h3.57v2.55l-1.58,1.9ZM504.26,797.86h-1.98l-1.58-1.9v-2.55h3.57v4.45ZM492.82,800.47c0,.52-.42.94-.94.94s-.94-.42-.94-.94.42-.94.94-.94.94.42.94.94ZM509.95,811.67h-9.9c-.67,0-1.22-.55-1.22-1.22v-9.9c0-.67.55-1.22,1.22-1.22h9.9c.67,0,1.22.55,1.22,1.22v9.9c0,.67-.55,1.22-1.22,1.22ZM522.06,806.44c-.52,0-.94-.42-.94-.94s.42-.94.94-.94.94.42.94.94-.42.94-.94.94ZM523.01,793.41v9.88c-.29-.12-.61-.19-.94-.19-1.07,0-1.98.71-2.3,1.68h-7.13v-1.98l1.9-1.58h1.29c.31.97,1.22,1.68,2.3,1.68,1.33,0,2.41-1.08,2.41-2.41s-1.08-2.41-2.41-2.41c-1.07,0-1.98.71-2.3,1.68h-1.55c-.17,0-.34.06-.47.17l-1.17.97v-.33c0-1.48-1.2-2.69-2.69-2.69h-.33l.97-1.17c.11-.13.17-.3.17-.47v-2.82h12.25,0ZM517.17,800.47c0-.52.42-.94.94-.94s.94.42.94.94-.42.94-.94.94-.94-.42-.94-.94ZM509.08,788.04c0-.52.42-.94.94-.94s.94.42.94.94-.42.94-.94.94-.94-.42-.94-.94ZM509.29,790.45v1.49h-3.57v-1.49h3.57ZM504.26,791.94h-3.57v-1.49h3.57v1.49ZM499.02,788.04c0-.52.42-.94.94-.94s.94.42.94.94-.42.94-.94.94-.94-.42-.94-.94Z"/><path class="cls-12" d="M504.03,801.51c-.1-.29-.38-.49-.69-.49s-.59.2-.69.49l-2.66,7.5c-.14.38.06.8.45.94.38.14.8-.06.94-.45l.63-1.78h2.68l.63,1.78c.11.3.39.49.69.49.08,0,.16-.01.25-.04.38-.14.58-.55.45-.94l-2.66-7.5ZM502.52,806.25l.82-2.31.82,2.31h-1.64Z"/><path class="cls-12" d="M508.57,804.96c-.4,0-.73.33-.73.73v3.55c0,.4.33.73.73.73s.73-.33.73-.73v-3.55c0-.4-.33-.73-.73-.73Z"/><path class="cls-12" d="M382.88,795.98c-4.6,0-8.34,3.74-8.34,8.34s3.74,8.34,8.34,8.34,8.34-3.74,8.34-8.34-3.74-8.34-8.34-8.34ZM382.88,811.41c-3.91,0-7.1-3.18-7.1-7.1s3.18-7.1,7.1-7.1,7.1,3.18,7.1,7.1-3.18,7.1-7.1,7.1ZM403.04,818.94c-.24-.24-.64-.24-.88,0l-1.89,1.89-6.62-6.62.92-.92c.45-.45.52-1.14.18-1.67l-1.41-2.18s-.02-.06,0-.09c.19-.39.35-.79.5-1.19.01-.04.03-.05.07-.06l2.53-.54c.62-.13,1.06-.67,1.06-1.31v-1.31h3.94v1.64c0,.34.28.62.62.62h4.52c.34,0,.62-.28.62-.62v-4.52c0-.34-.28-.62-.62-.62h-4.52c-.34,0-.62.28-.62.62v1.64h-3.94v-1.3c0-.64-.43-1.17-1.06-1.31l-2.53-.54s-.05-.02-.07-.06c-.14-.4-.31-.81-.5-1.19-.02-.04-.02-.06,0-.09l1.41-2.18c.35-.53.27-1.22-.18-1.67l-.92-.92,6.62-6.62,1.89,1.89c.12.12.28.18.44.18s.32-.06.44-.18l4.66-4.66c.12-.12.18-.27.18-.44s-.07-.32-.18-.44l-4.66-4.66c-.24-.24-.64-.24-.88,0l-4.66,4.66c-.12.12-.18.27-.18.44s.07.32.18.44l1.89,1.89-6.62,6.62-.92-.92c-.45-.45-1.14-.52-1.67-.18l-2.18,1.41s-.06.02-.09,0c-.39-.19-.79-.35-1.19-.5-.04-.01-.05-.03-.06-.07l-.54-2.53c-.13-.62-.67-1.06-1.31-1.06h-1.3v-3.94h1.64c.34,0,.62-.28.62-.62v-4.52c0-.34-.28-.62-.62-.62h-4.52c-.34,0-.62.28-.62.62v4.52c0,.34.28.62.62.62h1.64v3.94h-1.3c-.64,0-1.17.43-1.31,1.06l-.54,2.53s-.02.05-.06.07c-.4.14-.81.31-1.19.5-.04.02-.06.02-.09,0l-2.18-1.41c-.53-.35-1.22-.27-1.67.18l-.92.92-6.62-6.62,1.89-1.89c.24-.24.24-.64,0-.88l-4.66-4.66c-.12-.12-.27-.18-.44-.18s-.32.07-.44.18l-4.66,4.66c-.24.24-.24.64,0,.88l4.66,4.66c.12.12.27.18.44.18s.32-.07.44-.18l1.89-1.89,6.62,6.62-.92.92c-.45.45-.52,1.14-.18,1.67l1.41,2.18s.02.06,0,.09c-.19.39-.35.79-.5,1.19-.01.04-.03.05-.07.06l-2.53.54c-.62.13-1.06.67-1.06,1.31v1.3h-3.94v-1.64c0-.34-.28-.62-.62-.62h-4.52c-.34,0-.62.28-.62.62v4.52c0,.34.28.62.62.62h4.52c.34,0,.62-.28.62-.62v-1.64h3.94v1.3c0,.64.43,1.17,1.06,1.31l2.53.54s.06.02.07.06c.14.4.31.81.5,1.19.02.04.02.06,0,.09l-1.41,2.18c-.35.53-.27,1.22.18,1.67l.92.92-6.62,6.62-1.89-1.89c-.12-.12-.27-.18-.44-.18s-.32.07-.44.18l-4.66,4.66c-.12.12-.18.27-.18.44s.07.32.18.44l4.66,4.66c.12.12.28.18.44.18s.32-.06.44-.18l4.66-4.66c.12-.12.18-.27.18-.44s-.07-.32-.18-.44l-1.89-1.89,6.62-6.62.92.92c.45.45,1.14.52,1.67.18l2.18-1.41s.05-.02.09,0c.39.19.79.35,1.19.5.04.01.05.03.06.07l.54,2.53c.13.62.67,1.06,1.31,1.06h1.31v3.94h-1.64c-.34,0-.62.28-.62.62v4.52c0,.34.28.62.62.62h4.52c.34,0,.62-.28.62-.62v-4.52c0-.34-.28-.62-.62-.62h-1.64v-3.94h1.3c.64,0,1.17-.43,1.31-1.06l.54-2.53s.02-.06.06-.07c.4-.14.81-.31,1.19-.5.04-.02.06-.02.09,0l2.18,1.41c.53.35,1.22.27,1.67-.18l.92-.92,6.62,6.62-1.89,1.89c-.24.24-.24.64,0,.88l4.66,4.66c.12.12.27.18.44.18s.32-.07.44-.18l4.66-4.66c.12-.12.18-.27.18-.44s-.07-.32-.18-.44l-4.66-4.66ZM402.68,802.68h3.28v3.28h-3.28v-3.28ZM402.6,780.82l3.78,3.78-3.78,3.78-3.78-3.78,3.78-3.78ZM381.24,781.24h3.28v3.28h-3.28v-3.28ZM363.16,788.37l-3.78-3.78,3.78-3.78,3.78,3.78-3.78,3.78ZM363.08,805.96h-3.28v-3.28h3.28v3.28ZM363.16,827.81l-3.78-3.78,3.78-3.78,3.78,3.78-3.78,3.78ZM384.52,827.4h-3.28v-3.28h3.28v3.28h0ZM390.98,815.13s-.08.04-.12.01l-2.18-1.41c-.4-.26-.88-.29-1.31-.08-.35.17-.7.32-1.07.44-.44.16-.77.52-.87.98l-.54,2.53s-.04.07-.09.07h-3.85s-.08-.03-.09-.07l-.54-2.53c-.1-.46-.42-.83-.87-.98-.36-.13-.72-.27-1.07-.44-.19-.09-.38-.13-.58-.13-.25,0-.5.07-.73.22l-2.18,1.41s-.08.02-.12-.01l-2.73-2.73s-.04-.08-.01-.12l1.41-2.18c.26-.4.29-.88.08-1.31-.17-.35-.32-.7-.44-1.07-.16-.44-.52-.77-.98-.87l-2.53-.54s-.07-.04-.07-.09v-3.85s.03-.08.07-.09l2.53-.54c.46-.1.83-.42.98-.87.13-.36.27-.72.44-1.07.2-.42.17-.91-.08-1.31l-1.41-2.18s-.02-.08.01-.12l2.73-2.73s.08-.04.12-.01l2.18,1.41c.4.26.88.29,1.31.08.35-.17.7-.32,1.07-.44.44-.16.77-.52.87-.98l.54-2.53s.04-.07.09-.07h3.85s.08.03.09.07l.54,2.53c.1.46.42.83.87.98.36.13.72.27,1.07.44.42.2.91.17,1.31-.08l2.18-1.41s.08-.02.12.01l2.73,2.73s.04.08.01.12l-1.41,2.18c-.26.4-.29.88-.08,1.31.17.35.32.71.44,1.07.16.44.52.77.98.87l2.53.54s.07.04.07.09v3.85s-.03.08-.07.09l-2.53.54c-.46.1-.83.42-.98.87-.13.36-.27.72-.44,1.07-.2.42-.17.91.08,1.31l1.41,2.18s.02.08-.01.12l-2.72,2.73ZM402.6,827.81l-3.78-3.78,3.78-3.78,3.78,3.78-3.78,3.78ZM378.82,804.32c0,.95.34,1.88.95,2.6.22.26.19.66-.08.88-.12.1-.26.15-.4.15-.18,0-.35-.08-.48-.22-.8-.95-1.24-2.16-1.24-3.4,0-2.66,1.98-4.87,4.54-5.25l-.21-.2c-.25-.24-.26-.63-.02-.88s.63-.26.88-.02l1.35,1.28c.25.24.26.63.02.88l-1.28,1.35c-.12.13-.29.19-.45.19-.15,0-.31-.06-.43-.17-.25-.24-.26-.63-.02-.88l.31-.32c-1.94.3-3.44,1.98-3.44,4.01h0ZM386.95,800.91c.8.95,1.24,2.16,1.24,3.4,0,2.68-2,4.9-4.59,5.25l.24.24c.24.24.24.64,0,.88-.12.12-.28.18-.44.18s-.32-.06-.44-.18l-1.32-1.32c-.12-.12-.18-.27-.18-.44s.07-.32.18-.44l1.32-1.32c.24-.24.64-.24.88,0,.24.24.24.64,0,.88l-.27.26c1.91-.33,3.37-2,3.37-4,0-.95-.34-1.88-.94-2.6-.22-.26-.19-.66.08-.88.26-.22.66-.19.88.08h0Z"/><path class="cls-12" d="M581.58,900.97c-.73-7.41-6.59-13.28-14.01-14.01-8.57-.84-16.21,5.43-17.04,14.01-5.34.36-9.48,4.79-9.47,10.14,0,5.61,4.55,10.15,10.16,10.14h.78v-1.56h-.78c-4.74-.01-8.58-3.87-8.57-8.61.01-4.74,3.87-8.58,8.61-8.57.42,0,.76-.32.78-.74.37-7.18,6.11-12.92,13.29-13.29,7.74-.4,14.34,5.55,14.74,13.29.04.42.4.74.82.74,4.74,0,8.59,3.85,8.59,8.59s-3.85,8.59-8.59,8.59h-.78v1.56h.78c5.35,0,9.78-4.14,10.14-9.47.37-5.59-3.86-10.43-9.45-10.81Z"/><path class="cls-12" d="M566.84,930.73v-11.81h-1.56v11.81c-1.35.35-2.34,1.57-2.34,3.03,0,1.73,1.4,3.12,3.12,3.12s3.12-1.4,3.12-3.12c0-1.46-1-2.68-2.34-3.03ZM566.05,935.31c-.86,0-1.56-.7-1.56-1.56s.7-1.56,1.56-1.56,1.56.7,1.56,1.56-.7,1.56-1.56,1.56Z"/><path class="cls-12" d="M555.12,908.76c-1.73,0-3.12,1.4-3.12,3.12,0,1.46,1,2.68,2.34,3.03v4h1.56v-4c1.35-.35,2.34-1.57,2.34-3.03,0-1.73-1.4-3.12-3.12-3.12ZM555.12,913.45c-.86,0-1.56-.7-1.56-1.56s.7-1.56,1.56-1.56,1.56.7,1.56,1.56-.7,1.56-1.56,1.56Z"/><path class="cls-12" d="M587.92,926.72c-1.46,0-2.68,1-3.03,2.34h-6.35s-.09,0-.14,0c-.39-.04-.68-.39-.64-.78v-5.47h-1.56v5.47s0,.09,0,.13c.04,1.26,1.09,2.25,2.34,2.21h6.35c.35,1.35,1.57,2.34,3.03,2.34,1.73,0,3.12-1.4,3.12-3.12,0-1.73-1.4-3.12-3.12-3.12ZM587.92,931.41c-.86,0-1.56-.7-1.56-1.56s.7-1.56,1.56-1.56,1.56.7,1.56,1.56-.7,1.56-1.56,1.56Z"/><path class="cls-12" d="M555.9,928.28v-7.81h-1.56v7.8s0,.1,0,.14c-.04.39-.39.68-.78.65h-6.35c-.35-1.35-1.57-2.34-3.03-2.34-1.73,0-3.12,1.4-3.12,3.12s1.4,3.12,3.12,3.12c1.46,0,2.68-1,3.03-2.34h6.35s.09,0,.13,0c1.26-.04,2.25-1.09,2.21-2.34ZM544.19,931.41c-.86,0-1.56-.7-1.56-1.56s.7-1.56,1.56-1.56,1.56.7,1.56,1.56-.7,1.56-1.56,1.56Z"/><path class="cls-12" d="M576.99,908.76c-1.73,0-3.12,1.4-3.12,3.12,0,1.46,1,2.68,2.34,3.03v6.35h1.56v-6.35c1.35-.35,2.34-1.57,2.34-3.03,0-1.73-1.4-3.12-3.12-3.12ZM576.99,913.45c-.86,0-1.56-.7-1.56-1.56s.7-1.56,1.56-1.56,1.56.7,1.56,1.56-.7,1.56-1.56,1.56Z"/><path class="cls-12" d="M561.14,914.46c-.3-.3-.8-.3-1.1,0l-2.34,2.34,1.1,1.1,1.01-1.01v9.05h1.56v-9.05l1.01,1.01,1.1-1.1-2.34-2.34Z"/><path class="cls-12" d="M573.31,925.39l-1.01,1.01v-9.05h-1.56v9.05l-1.01-1.01-1.1,1.1,2.34,2.34c.15.15.34.23.55.23s.41-.08.55-.23l2.34-2.34-1.1-1.1Z"/><path class="cls-12" d="M566.05,904.07c-1.73,0-3.12,1.4-3.12,3.12,0,1.46,1,2.68,2.34,3.03v7.13h1.56v-7.13c1.35-.35,2.34-1.57,2.34-3.03,0-1.73-1.4-3.12-3.12-3.12ZM566.05,908.76c-.86,0-1.56-.7-1.56-1.56s.7-1.56,1.56-1.56,1.56.7,1.56,1.56-.7,1.56-1.56,1.56Z"/><path class="cls-12" d="M749.95,588.98c-9.39,0-17,7.61-17,17s7.61,17,17,17,17-7.61,17-17c-.01-9.38-7.62-16.99-17-17ZM762.61,597.98h-4.7c-.55-2.2-1.53-4.26-2.87-6.09,3.13,1.14,5.79,3.28,7.57,6.09ZM735,606.98h5.97c.05,1.68.23,3.35.54,5h-5.31c-.69-1.58-1.1-3.28-1.21-5ZM750.95,597.98v-6.82c2.02.65,3.79,3.23,4.88,6.82h-4.88ZM756.34,599.98c.34,1.65.54,3.32.59,5h-5.98v-5h5.39ZM748.95,591.16v6.82h-4.88c1.08-3.59,2.85-6.17,4.88-6.82ZM748.95,599.98v5h-5.98c.05-1.68.25-3.35.59-5h5.39ZM740.97,604.98h-5.98c.11-1.72.52-3.42,1.21-5h5.31c-.32,1.65-.5,3.32-.54,5ZM742.97,606.98h5.97v5h-5.39c-.34-1.65-.54-3.32-.59-5h0ZM748.95,613.98v6.82c-2.02-.65-3.79-3.23-4.88-6.82h4.88ZM750.95,620.8v-6.82h4.88c-1.08,3.59-2.85,6.17-4.88,6.82ZM750.95,611.98v-5h5.98c-.05,1.68-.25,3.35-.59,5h-5.39ZM758.92,606.98h5.97c-.11,1.72-.52,3.42-1.21,5h-5.31c.32-1.65.5-3.32.54-5ZM758.92,604.98c-.05-1.68-.23-3.35-.54-5h5.31c.69,1.58,1.1,3.28,1.21,5h-5.97ZM744.85,591.89c-1.34,1.82-2.32,3.89-2.87,6.09h-4.7c1.78-2.81,4.44-4.95,7.57-6.09ZM737.28,613.98h4.7c.55,2.2,1.53,4.26,2.87,6.09-3.13-1.14-5.79-3.28-7.57-6.09ZM755.05,620.07c1.34-1.82,2.32-3.89,2.87-6.09h4.7c-1.78,2.81-4.44,4.95-7.57,6.09Z"/><path class="cls-12" d="M776.24,601.27l-.31.31c-.21-11.89-8.44-22.13-20-24.89-.1-1.99-1.17-3.8-2.87-4.84,2.16-1.72,2.52-4.86.8-7.03-1.72-2.16-4.86-2.52-7.03-.8-2.16,1.72-2.52,4.86-.8,7.03.24.3.5.56.8.8-1.7,1.04-2.78,2.85-2.87,4.84-11.56,2.76-19.79,13-20,24.89l-.31-.31c-.4-.38-1.03-.37-1.41.02-.37.39-.37,1,0,1.39l2,2c.39.39,1.02.39,1.41,0l2-2c.38-.4.37-1.03-.02-1.41-.39-.37-1-.37-1.39,0l-.27.27c.22-10.82,7.64-20.17,18.14-22.82.3.76,1.04,1.26,1.85,1.26h3v3.59l-.29-.29c-.4-.38-1.03-.37-1.41.02-.37.39-.37,1,0,1.39l2,2c.39.39,1.02.39,1.41,0l2-2c.38-.4.37-1.03-.02-1.41-.39-.37-1-.37-1.39,0l-.29.29v-3.59h3c.82,0,1.55-.5,1.85-1.26,10.49,2.66,17.91,12,18.13,22.82l-.27-.27c-.4-.38-1.03-.37-1.41.02-.37.39-.37,1,0,1.39l2,2c.39.39,1.02.39,1.41,0l2-2c.38-.4.37-1.03-.02-1.41-.39-.37-1-.37-1.39,0ZM746.95,567.98c0-1.66,1.34-3,3-3s3,1.34,3,3-1.34,3-3,3-3-1.34-3-3ZM745.95,577.98v-1c0-2.21,1.79-4,4-4s4,1.79,4,4v1h-8Z"/></g></g></g></svg>