<?xml version="1.0" encoding="UTF-8"?><svg id="Layer_1" xmlns="http://www.w3.org/2000/svg" viewBox="0 0 918.74 183.55"><defs><style>.cls-1{fill:#9a5cd4;}.cls-2{fill:#fff;}</style></defs><path class="cls-1" d="M154.46,108.54l29.09-16.79-29.1-16.8,16.79-29.09h-33.6s0-33.58,0-33.58l-29.1,16.81L91.74,0l-16.8,29.1-29.09-16.79v33.6s-33.58,0-33.58,0l16.81,29.1L0,91.81l29.1,16.8-16.79,29.09h33.6s0,33.58,0,33.58l29.1-16.81,16.79,29.09,16.8-29.1,29.09,16.79v-33.6s33.58,0,33.58,0l-16.81-29.1ZM149.16,111.6l11.5,19.92h-22.98v-13.29s11.48-6.63,11.48-6.63ZM103.23,88.72l31.41-18.14,11.45,6.61-6.63,11.48-36.23.05ZM139.49,94.85l6.61,11.45-11.48,6.63-31.41-18.08h36.28ZM137.64,65.25v-13.26h23l-11.49,19.9-11.51-6.64ZM151.4,103.24l-6.65-11.51,6.63-11.48,19.92,11.5-19.9,11.49ZM131.56,137.64v23l-19.9-11.49,6.64-11.51h13.26ZM131.56,118.3v13.22h-13.25l-18.16-31.36,31.42,18.14ZM88.7,103.21v36.28l-11.45,6.61-6.63-11.48,18.08-31.41ZM52.03,131.56v-13.25l31.36-18.16-18.14,31.42h-13.22ZM52.03,137.68h13.29s6.63,11.48,6.63,11.48l-19.92,11.5v-22.98ZM51.99,45.91v-23l19.9,11.49-6.64,11.51h-13.26ZM51.99,65.25v-13.22h13.25l18.16,31.36-31.42-18.14ZM70.58,48.91l6.61-11.45,11.48,6.63.05,36.23-18.14-31.41ZM94.85,80.33v-36.27l11.45-6.61,6.63,11.48-18.07,31.4ZM80.25,32.16l11.5-19.92,11.49,19.9-11.51,6.65-11.48-6.63ZM103.3,151.39l-11.5,19.92-11.49-19.9,11.51-6.65,11.48,6.63ZM94.88,139.46l-.05-36.23,18.14,31.41-6.61,11.45-11.48-6.63ZM131.52,51.99v13.25l-31.36,18.16,18.14-31.42h13.22ZM131.52,45.87h-13.29s-6.63-11.48-6.63-11.48l19.92-11.5v22.98ZM45.91,118.3v13.26h-23s11.49-19.9,11.49-19.9l11.51,6.64ZM45.87,52.03v13.29s-11.48,6.63-11.48,6.63l-11.5-19.92h22.98ZM32.15,80.31l6.65,11.51-6.63,11.48-19.92-11.5,19.9-11.49ZM37.45,77.25l11.48-6.63,31.41,18.08h-36.28l-6.61-11.45ZM80.32,94.84l-31.41,18.14-11.45-6.61,6.63-11.48,36.23-.05Z"/><circle class="cls-2" cx="81.37" cy="52.81" r="1.82"/><circle class="cls-2" cx="102.18" cy="130.74" r="1.82"/><rect class="cls-2" x="91.17" y="50.65" width="1.22" height="81.9" transform="translate(-20.66 27.01) rotate(-15.07)"/><circle class="cls-2" cx="74.43" cy="74.47" r="1.82"/><circle class="cls-2" cx="109.12" cy="109.08" r="1.82"/><polygon class="cls-2" points="108.69 109.51 73.99 74.9 74.86 74.04 109.55 108.65 108.69 109.51"/><circle class="cls-2" cx="52.83" cy="81.3" r="1.82"/><circle class="cls-2" cx="130.72" cy="102.25" r="1.82"/><rect class="cls-2" x="91.01" y="50.73" width="1.22" height="81.89" transform="translate(-20.57 156.58) rotate(-75.07)"/><circle class="cls-2" cx="68.11" cy="98.15" r="1.82"/><circle class="cls-2" cx="115.44" cy="85.4" r="1.82"/><rect class="cls-2" x="67.27" y="91.16" width="49.01" height="1.22" transform="translate(-20.7 27.01) rotate(-15.07)"/><circle class="cls-2" cx="63.23" cy="120.27" r="1.82"/><circle class="cls-2" cx="120.32" cy="63.28" r="1.82"/><polygon class="cls-2" points="63.13 121.28 62.26 120.42 120.1 62.44 120.97 63.3 63.13 121.28"/><circle class="cls-2" cx="85.46" cy="115.45" r="1.82"/><circle class="cls-2" cx="98.09" cy="68.1" r="1.82"/><rect class="cls-2" x="67.27" y="91.16" width="49.01" height="1.22" transform="translate(-20.55 156.8) rotate(-75.07)"/><polygon class="cls-2" points="303.99 133.44 303.18 133.44 257.63 15.52 228.68 15.52 228.68 168.25 248.12 168.25 248.12 41.02 248.52 41.02 296.9 168.25 309.86 168.25 358.24 41.02 358.65 41.02 358.65 168.25 378.08 168.25 378.08 15.52 349.13 15.52 303.99 133.44"/><path class="cls-2" d="M471.2,84.65c-4.59-4.59-9.99-8.2-16.19-10.83-6.21-2.63-12.89-3.95-20.04-3.95s-13.84,1.32-20.04,3.95c-6.21,2.63-11.61,6.24-16.19,10.83-4.59,4.59-8.2,9.92-10.83,15.99-2.63,6.07-3.95,12.62-3.95,19.64s1.32,13.6,3.95,19.74c2.63,6.14,6.24,11.47,10.83,15.99,4.59,4.52,9.99,8.1,16.19,10.73,6.21,2.63,12.89,3.95,20.04,3.95s13.83-1.32,20.04-3.95c6.21-2.63,11.61-6.21,16.19-10.73,4.59-4.52,8.2-9.85,10.83-15.99,2.63-6.14,3.95-12.72,3.95-19.74s-1.32-13.56-3.95-19.64c-2.63-6.07-6.24-11.4-10.83-15.99ZM464.32,133.74c-1.49,4.12-3.58,7.63-6.28,10.53-2.7,2.9-6.01,5.2-9.92,6.88-3.92,1.69-8.3,2.53-13.16,2.53s-9.25-.84-13.16-2.53c-3.92-1.69-7.22-3.98-9.92-6.88-2.7-2.9-4.79-6.41-6.28-10.53-1.49-4.11-2.23-8.6-2.23-13.46s.74-9.34,2.23-13.46c1.48-4.11,3.57-7.62,6.28-10.53,2.7-2.9,6-5.19,9.92-6.88,3.91-1.69,8.3-2.53,13.16-2.53s9.24.84,13.16,2.53c3.91,1.69,7.22,3.98,9.92,6.88,2.7,2.9,4.79,6.41,6.28,10.53,1.48,4.12,2.23,8.6,2.23,13.46s-.74,9.35-2.23,13.46Z"/><path class="cls-2" d="M571.3,78.57c-3.17-2.97-6.88-5.16-11.13-6.58-4.25-1.42-8.67-2.13-13.26-2.13-7.42,0-13.97,1.59-19.64,4.76-5.67,3.17-9.65,7.32-11.94,12.45h-.4v-14.78h-18.22v95.96h18.22v-49.39c0-5.53.67-10.32,2.02-14.37,1.35-4.05,3.24-7.39,5.67-10.02,2.43-2.63,5.26-4.55,8.5-5.77,3.24-1.21,6.75-1.82,10.53-1.82,2.83,0,5.57.44,8.2,1.32,2.63.88,4.96,2.3,6.98,4.25,2.02,1.96,3.64,4.52,4.86,7.69,1.21,3.17,1.82,6.98,1.82,11.44v56.68h18.22v-61.74c0-6.34-.95-11.84-2.83-16.5-1.89-4.66-4.42-8.47-7.59-11.44Z"/><path class="cls-2" d="M712.91,153.68c-3.51,0-6.18-.64-8-1.92-1.82-1.28-3.17-2.97-4.05-5.06-.88-2.09-1.39-4.45-1.52-7.09-.14-2.63-.2-5.29-.2-8v-43.52h26.11v-15.79h-26.11v-26.92h-18.22v26.92l-28.34.2-41.3,41.5V15.21h-18.22v153.04h18.22v-49.8l44.54,49.8h25.91l-48.59-52.23,28.72-27.94h19.06v50c0,3.92.17,7.79.51,11.64.34,3.85,1.42,7.32,3.24,10.43,1.82,3.11,4.66,5.64,8.5,7.59,3.85,1.95,9.28,2.93,16.3,2.93,1.89,0,4.55-.24,8-.71,3.44-.47,6.24-1.32,8.4-2.53v-16.6c-1.89,1.08-3.98,1.82-6.28,2.23-2.3.4-4.52.61-6.68.61Z"/><path class="cls-2" d="M807.04,84.65c-4.59-4.59-9.99-8.2-16.19-10.83-6.21-2.63-12.89-3.95-20.04-3.95s-13.83,1.32-20.04,3.95c-6.21,2.63-11.61,6.24-16.19,10.83-4.59,4.59-8.2,9.92-10.83,15.99-2.63,6.07-3.95,12.62-3.95,19.64s1.32,13.6,3.95,19.74c2.63,6.14,6.24,11.47,10.83,15.99,4.59,4.52,9.99,8.1,16.19,10.73,6.21,2.63,12.89,3.95,20.04,3.95s13.83-1.32,20.04-3.95c6.21-2.63,11.61-6.21,16.19-10.73,4.59-4.52,8.2-9.85,10.83-15.99,2.63-6.14,3.95-12.72,3.95-19.74s-1.32-13.56-3.95-19.64c-2.63-6.07-6.24-11.4-10.83-15.99ZM800.16,133.74c-1.49,4.12-3.58,7.63-6.28,10.53-2.7,2.9-6.01,5.2-9.92,6.88-3.92,1.69-8.3,2.53-13.16,2.53s-9.24-.84-13.16-2.53c-3.92-1.69-7.22-3.98-9.92-6.88-2.7-2.9-4.79-6.41-6.28-10.53-1.49-4.11-2.23-8.6-2.23-13.46s.74-9.34,2.23-13.46c1.48-4.11,3.57-7.62,6.28-10.53,2.7-2.9,6-5.19,9.92-6.88,3.91-1.69,8.3-2.53,13.16-2.53s9.24.84,13.16,2.53c3.91,1.69,7.22,3.98,9.92,6.88,2.7,2.9,4.79,6.41,6.28,10.53,1.48,4.12,2.23,8.6,2.23,13.46s-.74,9.35-2.23,13.46Z"/><path class="cls-2" d="M910.69,90.01c-1.89-4.66-4.42-8.47-7.59-11.44-3.17-2.97-6.88-5.16-11.13-6.58-4.25-1.42-8.67-2.13-13.26-2.13-7.42,0-13.97,1.59-19.64,4.76-5.67,3.17-9.65,7.32-11.94,12.45h-.4v-14.78h-18.22v95.96h18.22v-49.39c0-5.53.67-10.32,2.02-14.37,1.35-4.05,3.24-7.39,5.67-10.02,2.43-2.63,5.26-4.55,8.5-5.77,3.24-1.21,6.75-1.82,10.53-1.82,2.83,0,5.57.44,8.2,1.32,2.63.88,4.96,2.3,6.98,4.25,2.02,1.96,3.64,4.52,4.86,7.69,1.21,3.17,1.82,6.98,1.82,11.44v56.68h18.22v-61.74c0-6.34-.95-11.84-2.83-16.5Z"/><path class="cls-2" d="M903.83,62.75c0-1.05.2-2.04.59-2.95.39-.91.93-1.7,1.61-2.36.68-.66,1.47-1.18,2.37-1.56.9-.38,1.86-.57,2.87-.57s1.97.19,2.87.57c.9.38,1.69.9,2.37,1.56.68.66,1.22,1.45,1.61,2.36.39.91.59,1.9.59,2.95s-.2,2.06-.59,2.97c-.39.91-.93,1.69-1.61,2.35-.68.66-1.47,1.18-2.37,1.56-.9.38-1.86.57-2.87.57s-1.97-.19-2.87-.57c-.9-.38-1.69-.9-2.37-1.56-.68-.66-1.22-1.45-1.61-2.35-.39-.91-.59-1.9-.59-2.97ZM905.16,62.75c0,.91.16,1.75.48,2.52.32.77.75,1.45,1.3,2.01.55.57,1.19,1.02,1.94,1.34.75.33,1.55.49,2.4.49s1.65-.16,2.39-.49c.74-.33,1.39-.77,1.94-1.34.55-.57.99-1.24,1.31-2.01.32-.77.48-1.62.48-2.52s-.16-1.73-.48-2.51c-.32-.78-.76-1.46-1.31-2.02-.55-.57-1.2-1.01-1.94-1.34-.74-.33-1.54-.49-2.39-.49s-1.66.16-2.4.49c-.75.33-1.4.77-1.94,1.34-.55.57-.98,1.24-1.3,2.02-.32.78-.48,1.62-.48,2.51ZM908.44,58.38h3.29c2.03,0,3.04.83,3.04,2.48,0,.79-.22,1.37-.66,1.73-.44.37-.99.58-1.64.65l2.5,3.85h-1.42l-2.36-3.75h-1.42v3.75h-1.32v-8.71ZM909.76,62.27h1.36c.29,0,.58,0,.86-.03s.53-.08.74-.17c.21-.09.39-.24.52-.44.13-.2.2-.47.2-.82,0-.29-.06-.53-.18-.71-.12-.18-.27-.32-.46-.41-.19-.09-.39-.15-.62-.18s-.45-.04-.68-.04h-1.74v2.8Z"/></svg>