<svg fill="none" height="512" viewBox="0 0 24 24" width="512" xmlns="http://www.w3.org/2000/svg"><path clip-rule="evenodd" d="m3.70711 2.29289c-.39053-.39052-1.02369-.39052-1.41422 0-.39052.39053-.39052 1.02369 0 1.41422l8.29311 8.29309-2.12116 2.1211c-.39052.3906-.39052 1.0237 0 1.4142.39053.3906 1.02369.3906 1.41422 0l2.12114-2.1211 8.2927 8.2927c.3905.3905 1.0237.3905 1.4142 0s.3905-1.0237 0-1.4142zm12.52239 9.72091 1.414 1.4139.0137-.0135 1.4142-1.4142c1.9527-1.9526 1.9527-5.11844 0-7.07106-1.9526-1.95262-5.1184-1.95262-7.071 0l-1.4142 1.41422-.0135.01376 1.4139 1.41395.0138-.0135 1.4142-1.41421c1.1716-1.17158 3.0711-1.17158 4.2426 0 1.1716 1.17157 1.1716 3.07107 0 4.24264l-1.4142 1.4142zm-2.1078-3.54932-.7207.72074 1.4142 1.41418.7207-.72071c.3905-.39052.3905-1.02369 0-1.41421-.3905-.39053-1.0237-.39053-1.4142 0zm-7.77818 9.19242c-1.17157-1.1716-1.17157-3.0711 0-4.2427l1.41422-1.4142c.39052-.3905.39052-1.0237 0-1.4142-.39053-.3905-1.02369-.3905-1.41422 0l-1.41421 1.4142c-1.95262 1.9526-1.95262 5.1185 0 7.0711s5.11849 1.9526 7.07109 0l1.4142-1.4142c.3905-.3906.3905-1.0237 0-1.4142-.3905-.3906-1.0237-.3906-1.4142 0l-1.4142 1.4142c-1.17161 1.1715-3.0711 1.1715-4.24268 0z" fill="rgb(0,0,0)" fill-rule="evenodd"/></svg>