<svg height="512" viewBox="0 0 48 68" width="512" xmlns="http://www.w3.org/2000/svg"><path d="m452.168883 1444h-4.706176l-7.771279-20.53838 17.70322-3.84853zm-16.812317-20.69192 7.829376 20.69192h-9.180619c-4.418477 0-8.005323-3.58148-8.005323-7.9922v-18.93743zm5.452389-4.18283 10.800339-20.16063 5.760181 16.56052zm20.565923 1.00386 12.625122 7.42655v8.45078c0 4.41919-3.576343 7.99356-8.005323 7.99356h-9.734988zm-35.374878-7.86614v-7.77439l21.896093-7.06326-11.619093 21.68898zm0-11.97736v-16.29341c0-4.41854 3.576445-7.9922 8.005323-7.9922h9.108676l6.277489 16.73997zm21.386001-24.28561h18.608676c4.417314 0 8.005323 3.58523 8.005323 7.99356v1.74134l-20.772555 5.84228zm26.613999 13.8901v33.02483l-12.352461-7.26615-7.060452-20.2988z" transform="translate(-426 -1376)"/></svg>