<?xml version="1.0" encoding="UTF-8"?><svg id="Layer_1" xmlns="http://www.w3.org/2000/svg" viewBox="0 0 109.83 98.72"><defs><style>.cls-1{fill:#ff2e00;}.cls-2{stroke:red;stroke-width:.06px;}.cls-2,.cls-3,.cls-4{fill:none;stroke-linecap:square;stroke-miterlimit:28.35;}.cls-3{stroke:#ff2e00;}.cls-3,.cls-4{stroke-width:.21px;}.cls-5{fill:#fff;}.cls-4{stroke:#000;}</style></defs><path class="cls-5" d="M54.91,98.72C24.63,98.72,0,76.57,0,49.36S24.63,0,54.91,0s54.91,22.14,54.91,49.36-24.63,49.36-54.91,49.36Z"/><g id="layer1"><path id="path1584" d="M52.83,20.41V7.24l-1.7.31-1.61.43-1.55.57-1.49.68-1.39.77-1.36.88-1.27.94-1.17.99-1.1,1.08-1.02,1.1-.94,1.13-.85,1.19-6.48-.03.5-.74.6-.8.66-.82.73-.85.72-.82.73-.8.7-.71.63-.63-1.39.51-1.39.6-1.36.68-1.33.71-1.24.77-1.17.74-1.04.77-.95.71-.79.68h-7.59l1.77-1.7,1.9-1.62,2.03-1.5,2.12-1.42,2.24-1.3,2.38-1.22,2.43-1.08,2.56-.99,2.62-.88,2.72-.77,2.78-.62,2.85-.52,2.94-.4,2.98-.25,3.03-.15h.01l3.03.15,3,.25,2.91.37,2.81.52,2.78.63,2.69.77,2.59.85,2.53.99,2.4,1.08,2.34,1.22,2.21,1.31,2.12,1.38,2,1.54,1.89,1.58,1.77,1.71h-7.4l-.82-.63-.94-.71-1.08-.71-1.14-.77-1.24-.74-1.3-.71-1.33-.68-1.36-.63-1.36-.51.57.63.63.68.69.8.7.82.69.82.67.82.6.8.54.71-6.38.02-.88-1.1-.99-1.08-1.01-1.08-1.1-1.05-1.17-1.02-1.24-.94-1.33-.88-1.39-.8-1.45-.68-1.52-.6-1.61-.46-1.68-.31v13.17l-2.5,1.22-2.41-1.22Z"/><path id="path1585" class="cls-4" d="M55.23,21.63l2.5-1.22V7.24l1.68.31,1.61.46,1.52.6,1.45.68,1.39.8,1.33.88,1.24.94,1.17,1.02,1.1,1.05,1.01,1.08.99,1.08.88,1.1,6.38-.02-.54-.71-.6-.8-.67-.82-.69-.82-.7-.82-.69-.8-.63-.68-.57-.63,1.36.51,1.36.63,1.33.68,1.3.71,1.24.74,1.14.77,1.08.71.94.71.82.63h7.4l-1.77-1.71-1.89-1.58-2-1.54-2.12-1.38-2.21-1.31-2.34-1.22-2.4-1.08-2.53-.99-2.59-.85-2.69-.77-2.78-.63-2.81-.52-2.91-.37-3-.25-3.03-.15-3.03.15-2.98.25-2.94.4-2.85.52-2.78.62-2.72.77-2.62.88-2.56.99-2.43,1.08-2.38,1.22-2.24,1.3-2.12,1.42-2.03,1.5-1.9,1.62-1.77,1.7h7.59l.79-.68.95-.71,1.04-.77,1.17-.74,1.24-.77,1.33-.71,1.36-.68,1.39-.6,1.39-.51-.63.63-.7.71-.73.8-.72.82-.73.85-.66.82-.6.8-.5.74,6.48.03.85-1.19.94-1.13,1.02-1.1,1.1-1.08,1.17-.99,1.27-.94,1.36-.88,1.39-.77,1.49-.68,1.55-.57,1.61-.43,1.7-.31v13.17l2.41,1.22Z"/><path id="path1586" d="M51.91,95.68l-3.2-.28-3.1-.49-3.06-.6-2.98-.77-2.87-.91-2.78-1.02-2.69-1.16-2.56-1.28-2.5-1.38-2.34-1.51-2.22-1.61-2.11-1.68-1.96-1.79h7.81l.79.54.92.6,1.01.68,1.08.68,1.17.74,1.2.71,1.27.71,1.24.62,1.23.6,1.24.52-.63-.49-.67-.6-.72-.68-.7-.74-.72-.79-.67-.82-.6-.8-.54-.77-.41-.74h6.1l.94,1.27,1.05,1.22,1.17,1.19,1.3,1.1,1.39,1.05,1.49.96,1.55.85,1.68.74,1.71.63,1.77.49,1.86.34v-12.72l2.41-1.22,2.5,1.22v12.72l1.64-.23,1.58-.4,1.52-.57,1.49-.66,1.45-.82,1.39-.91,1.36-1.05,1.33-1.13,1.33-1.25,1.26-1.33,1.27-1.42h6.1l-.41.71-.51.77-.57.8-1.33,1.53-.7.74-.69.65-.66.57-.6.48,1.23-.51,1.27-.57,1.27-.63,1.2-.68,1.2-.68,1.14-.71,1.05-.68.98-.66.85-.6.76-.51,7.61-.03-1.96,1.79-2.08,1.7-2.22,1.59-2.31,1.5-2.44,1.36-2.56,1.28-2.65,1.13-2.75,1.02-2.84.88-2.95.77-3.03.6-3.1.49-3.19.31-3.29.17-3.26-.17Z"/><path id="path1587" class="cls-4" d="M55.23,77.09l2.5,1.22v12.72l1.64-.23,1.58-.4,1.52-.57,1.49-.66,1.45-.82,1.39-.91,1.36-1.05,1.33-1.13,1.33-1.25,1.26-1.33,1.27-1.42h6.1l-.41.71-.51.77-.57.8-1.33,1.53-.7.74-.69.65-.66.57-.6.48,1.23-.51,1.27-.57,1.27-.63,1.2-.68,1.2-.68,1.14-.71,1.05-.68.98-.66.85-.6.76-.51,7.61-.03-1.96,1.79-2.08,1.7-2.22,1.59-2.31,1.5-2.44,1.36-2.56,1.28-2.65,1.13-2.75,1.02-2.84.88-2.95.77-3.03.6-3.1.49-3.19.31-3.29.17-3.25-.17-3.2-.28-3.1-.49-3.06-.6-2.98-.77-2.87-.91-2.78-1.02-2.69-1.16-2.56-1.28-2.5-1.38-2.34-1.51-2.22-1.61-2.11-1.68-1.96-1.79h7.81l.79.54.92.6,1.01.68,1.08.68,1.17.74,1.2.71,1.27.71,1.24.62,1.23.6,1.24.52-.63-.49-.67-.6-.72-.68-.7-.74-.73-.8-.66-.82-.6-.8-.54-.77-.41-.74h6.1l.94,1.27,1.05,1.22,1.17,1.19,1.3,1.1,1.39,1.05,1.49.96,1.55.85,1.68.74,1.71.63,1.77.49,1.86.34v-12.72l2.41-1.21Z"/><path id="path1588" d="M6.63,65.9l-.95-2.3-.82-2.36-.7-2.39-.57-2.41-.41-2.42-.25-2.41-.07-2.42.1-2.42.25-2.41.45-2.39.57-2.39.73-2.36.85-2.33.98-2.27,1.08-2.24h5.82l-1.02,2.3-.95,2.33-.82,2.36-.73,2.36-.6,2.41-.41,2.44-.26,2.47,12.56.06.07-2.16.13-2.08.22-1.96.32-1.87.35-1.82.44-1.76.47-1.73.51-1.73.51-1.7h6.19l-.44,1.19-.44,1.27-.44,1.39-.41,1.5-.38,1.62-.32,1.73-.29,1.85-.22,1.99-.13,2.07-.1,2.24h9.36v4.06l-9.36.03.07,2.22.15,2.1.19,1.96.25,1.85.29,1.73.35,1.61.38,1.51.41,1.38.41,1.28.44,1.19-5.97-.09-1.02-3.4-.44-1.71-.41-1.75-.35-1.79-.28-1.88-.22-1.96-.19-2.04-.1-2.19-12.56-.08.26,2.47.41,2.47.6,2.47.73,2.44.82,2.39.95,2.36,1.02,2.3-5.98.03-1.08-2.24Z"/><path id="path1589" class="cls-4" d="M36.86,51.26l-9.36.03.07,2.22.15,2.1.19,1.96.25,1.85.29,1.73.35,1.61.38,1.51.41,1.38.41,1.28.44,1.19-5.97-.09-1.02-3.4-.44-1.71-.41-1.75-.35-1.79-.28-1.88-.22-1.96-.19-2.04-.1-2.19-12.56-.08.26,2.47.41,2.47.6,2.47.73,2.44.82,2.39.95,2.36,1.02,2.3-5.98.03-1.08-2.25-.95-2.3-.82-2.36-.7-2.39-.57-2.41-.41-2.42-.25-2.41-.07-2.42.1-2.42.25-2.41.45-2.39.57-2.39.73-2.36.85-2.33.98-2.27,1.08-2.24h5.82l-1.02,2.3-.95,2.33-.82,2.36-.73,2.36-.6,2.41-.41,2.44-.26,2.47,12.56.06.07-2.16.13-2.08.22-1.96.32-1.87.35-1.82.44-1.76.47-1.73.51-1.73.51-1.7h6.19l-.44,1.19-.44,1.27-.44,1.39-.41,1.5-.38,1.62-.32,1.73-.29,1.85-.22,1.99-.13,2.07-.1,2.24h9.36v4.05Z"/><path id="path1590" d="M80.09,68.03l.41-1.33.41-1.47.41-1.59.35-1.73.35-1.88.28-1.98.26-2.13.18-2.28.16-2.44-9.87-.03v-4.06h9.87l-.1-2.19-.19-2.07-.22-1.96-.32-1.85-.32-1.73-.38-1.62-.41-1.5-.41-1.42-.41-1.3-.44-1.19,6.01-.03.54,1.71.51,1.73.47,1.73.44,1.79.41,1.81.32,1.91.25,1.98.16,2.08.03,2.16h12.84l-.22-2.16-.41-2.16-.54-2.16-.67-2.13-.76-2.13-.85-2.08-.88-2.07-.91-1.99,5.66-.03,1.08,2.25.95,2.33.82,2.36.69,2.41.57,2.42.41,2.44.26,2.44.09,2.42-.09,2.38-.19,2.42-.35,2.39-.51,2.38-.63,2.36-.76,2.33-.92,2.28-1.08,2.24-5.63-.03,1.02-2.3.94-2.33.85-2.36.76-2.41.6-2.42.44-2.44.25-2.47h-12.84l-.1,2.19-.15,2.04-.22,1.96-.26,1.91-.35,1.81-.38,1.76-.41,1.73-.48,1.71-.54,1.7-5.88-.08Z"/><path id="path1591" class="cls-4" d="M73.03,51.18l9.87.03-.16,2.44-.18,2.28-.26,2.13-.28,1.98-.35,1.88-.35,1.73-.41,1.59-.41,1.47-.41,1.33,5.88.09.54-1.7.48-1.71.41-1.73.38-1.76.35-1.81.26-1.91.22-1.96.15-2.04.1-2.19h12.84l-.25,2.47-.44,2.44-.6,2.42-.76,2.41-.85,2.36-.94,2.33-1.02,2.3,5.63.03,1.08-2.24.92-2.28.76-2.33.63-2.36.51-2.38.35-2.39.19-2.42.09-2.38-.09-2.42-.26-2.44-.41-2.44-.57-2.42-.69-2.41-.82-2.36-.95-2.33-1.08-2.25-5.66.03.91,1.99.88,2.07.85,2.08.76,2.13.67,2.13.54,2.16.41,2.16.22,2.16h-12.84l-.03-2.16-.16-2.08-.25-1.98-.32-1.91-.41-1.81-.44-1.79-.47-1.73-.51-1.73-.54-1.71-6.01.03.44,1.19.41,1.3.41,1.42.41,1.5.38,1.62.32,1.73.32,1.85.22,1.96.19,2.07.1,2.19h-9.87v4.05Z"/><path id="path1592" class="cls-1" d="M43.38,30.11l-.48-.17-.57-.14-.63-.12-.73-.08-.72-.06-.73-.06-.66-.02-.63-.03H8.31l.91-1.53.95-1.54,1.01-1.5,1.05-1.47,1.1-1.42,1.17-1.36,1.2-1.25,1.27-1.13h21.41l1.08.06,1.24.09,1.33.14,1.49.23,1.58.28,1.65.4,1.71.46,1.74.6,1.77.71,1.77.85-1.24.77-1.3.82-1.36.94-1.33,1.02-1.3,1.08-1.27,1.13-1.16,1.22-1.08,1.3-.32-.2Z"/><path id="path1593" class="cls-3" d="M8.31,29.44l.91-1.53.95-1.54,1.01-1.5,1.05-1.47,1.1-1.42,1.17-1.36,1.2-1.24,1.27-1.14h21.41l1.08.06,1.24.09,1.33.14,1.49.23,1.58.28,1.65.4,1.71.46,1.74.6,1.77.71,1.77.85-1.24.77-1.3.82-1.36.94-1.33,1.02-1.3,1.08-1.27,1.13-1.16,1.22-1.08,1.3-.32-.2-.48-.17-.57-.14-.63-.12-.73-.08-.72-.06-.73-.06-.66-.02-.63-.03H8.31Z"/><path id="path1594" class="cls-1" d="M72.84,80.26h-.91l-1.05-.05-1.23-.12-1.39-.17-1.49-.23-1.58-.31-1.67-.37-1.71-.52-1.77-.6-1.77-.71-1.77-.85,1.38-.88,1.49-.99,1.46-1.08,1.45-1.22,1.43-1.28,1.33-1.38,1.23-1.48.32.2.48.17.6.17.73.12.76.11.76.09.79.06.73.05.66.03.54.03h29.41l-.92,1.53-.95,1.53-1.01,1.53-1.05,1.48-1.1,1.39-1.17,1.36-1.2,1.24-1.27,1.13h-20.52Z"/><path id="path1595" class="cls-3" d="M102.03,69.06l-.92,1.53-.95,1.53-1.01,1.53-1.05,1.48-1.1,1.39-1.17,1.36-1.2,1.24-1.27,1.13h-21.44l-1.05-.05-1.23-.12-1.39-.17-1.49-.23-1.58-.31-1.67-.37-1.71-.52-1.77-.6-1.77-.71-1.77-.85,1.38-.88,1.49-.99,1.46-1.08,1.45-1.22,1.43-1.28,1.33-1.38,1.23-1.48.32.2.48.17.6.17.73.12.76.11.76.09.79.06.73.05.66.03.54.03h29.41Z"/><path id="path1596" class="cls-1" d="M14.94,78.62l-1.42-1.59-1.36-1.59-1.21-1.59-1.08-1.59-.91-1.58-.76-1.59h29.31l1.55-.06,1.52-.17,1.55-.29,1.52-.4,1.52-.48,1.46-.6,1.45-.68,1.39-.77,1.33-.88,1.26-.94,1.21-1.02,1.13-1.1,1.05-1.19.91-1.25.82-1.33.73-1.36.6-1.44.44-1.51.32-1.56.19-1.61v-1.65l-.13-1.7-.35-1.73-.51-1.76-.69-1.82-.89-1.81-1.1-1.88,1.1-1.27,1.17-1.11,1.17-.99,1.24-.85,1.23-.74,1.23-.66,1.27-.63,1.24-.54,1.58,2.27,1.33,2.31,1.1,2.3.92,2.3.66,2.27.47,2.28.32,2.24.1,2.22-.1,2.16-.25,2.15-.44,2.08-.6,2.04-.73,1.99-.91,1.93-1.02,1.88-1.2,1.78-1.3,1.73-1.42,1.62-1.52,1.56-1.64,1.45-1.75,1.36-1.83,1.24-1.93,1.13-2.02,1.02-2.09.91-2.12.8-2.21.66-2.28.51-2.31.4-2.33.23-2.37.09-21.09.03-1.52-1.59Z"/><path id="path1597" class="cls-3" d="M8.21,69.09l.76,1.59.91,1.58,1.08,1.59,1.21,1.59,1.36,1.59,1.42,1.59,1.52,1.59,21.09-.03,2.37-.09,2.33-.23,2.31-.4,2.28-.51,2.21-.66,2.12-.8,2.09-.91,2.02-1.02,1.93-1.13,1.83-1.24,1.75-1.36,1.64-1.45,1.52-1.56,1.42-1.62,1.3-1.73,1.2-1.78,1.02-1.88.91-1.93.73-1.99.6-2.04.44-2.08.25-2.15.1-2.16-.1-2.22-.32-2.24-.47-2.28-.66-2.27-.92-2.3-1.1-2.3-1.33-2.31-1.58-2.27-1.24.54-1.27.63-1.23.66-1.23.74-1.24.85-1.17.99-1.17,1.11-1.1,1.27,1.1,1.88.89,1.81.69,1.82.51,1.76.35,1.73.13,1.7v1.65l-.19,1.61-.32,1.56-.44,1.51-.6,1.44-.73,1.36-.82,1.33-.91,1.25-1.05,1.19-1.13,1.1-1.21,1.02-1.26.94-1.33.88-1.39.77-1.45.68-1.46.6-1.52.48-1.52.4-1.55.29-1.52.17-1.55.06H8.21Z"/><path id="path1598" class="cls-1" d="M42.65,64.68l-1.33-2.3-1.1-2.3-.88-2.27-.69-2.3-.48-2.25-.29-2.24-.09-2.22.09-2.16.29-2.13.41-2.1.6-2.02.76-1.99.91-1.93,1.05-1.84,1.17-1.79,1.3-1.73,1.45-1.62,1.52-1.53,1.68-1.44,1.74-1.36,1.83-1.25,1.93-1.13,2.03-1.02,2.08-.91,2.15-.77,2.22-.66,2.25-.54,2.31-.37,2.34-.23,2.37-.09,21.12-.03,1.52,1.59,1.42,1.59,1.33,1.59,1.2,1.59,1.08,1.59.95,1.58.76,1.59h-29.32l-1.55.06-1.55.17-1.52.29-1.52.4-1.52.48-1.48.6-1.43.71-1.39.77-1.33.88-1.27.94-1.2,1.05-1.13,1.1-1.02,1.19-.95,1.24-.82,1.34-.73,1.38-.57,1.45-.48,1.5-.32,1.56-.15,1.62-.03,1.64.15,1.71.32,1.76.51,1.76.72,1.81.89,1.82,1.1,1.87-1.01,1.13-1.02,1.02-1.08.88-1.08.77-1.1.68-1.14.6-1.13.54-1.14.49-1.13.46-1.58-2.3Z"/><path id="path1599" class="cls-3" d="M101.62,29.32l-.76-1.59-.95-1.58-1.08-1.59-1.2-1.59-1.33-1.59-1.42-1.59-1.52-1.59-21.12.03-2.37.09-2.34.23-2.31.37-2.25.54-2.22.66-2.15.77-2.08.91-2.03,1.02-1.93,1.13-1.83,1.25-1.74,1.36-1.68,1.44-1.52,1.53-1.45,1.62-1.3,1.73-1.17,1.79-1.05,1.84-.91,1.93-.76,1.99-.6,2.02-.41,2.1-.29,2.13-.09,2.16.09,2.22.29,2.24.48,2.25.69,2.3.88,2.27,1.11,2.3,1.33,2.3,1.58,2.31,1.13-.46,1.14-.49,1.13-.54,1.14-.6,1.1-.68,1.08-.77,1.08-.88,1.02-1.02,1.01-1.13-1.1-1.87-.89-1.82-.72-1.81-.51-1.76-.32-1.76-.15-1.71.03-1.64.15-1.62.32-1.56.48-1.5.57-1.45.73-1.38.82-1.34.95-1.24,1.02-1.19,1.13-1.1,1.2-1.05,1.27-.94,1.33-.88,1.39-.77,1.43-.71,1.48-.6,1.52-.48,1.52-.4,1.52-.29,1.55-.17,1.55-.06h29.32Z"/><path id="path1600" class="cls-2" d="M101.62,29.32l-.76-1.59-.95-1.58-1.08-1.59-1.2-1.59-1.33-1.59-1.42-1.59-1.52-1.59-21.12.03-2.37.09-2.34.23-2.31.37-2.25.54-2.22.66-2.15.77-2.08.91-2.03,1.02-1.93,1.13-1.83,1.25-1.74,1.36-1.68,1.44-1.52,1.53-1.45,1.62-1.3,1.73-1.17,1.79-1.05,1.84-.91,1.93-.76,1.99-.6,2.02-.41,2.1-.29,2.13-.09,2.16.09,2.22.29,2.24.48,2.25.69,2.3.88,2.27,1.11,2.3,1.33,2.3,1.58,2.31,1.13-.46,1.14-.49,1.13-.54,1.14-.6,1.1-.68,1.08-.77,1.08-.88,1.02-1.02,1.01-1.13-1.1-1.87-.89-1.82-.72-1.81-.51-1.76-.32-1.76-.15-1.71.03-1.64.15-1.62.32-1.56.48-1.5.57-1.45.73-1.38.82-1.34.95-1.24,1.02-1.19,1.13-1.1,1.2-1.05,1.27-.94,1.33-.88,1.39-.77,1.43-.71,1.48-.6,1.52-.48,1.52-.4,1.52-.29,1.55-.17,1.55-.06h29.32"/><path id="path1601" d="M54.13,58.05l-.7-1.31-.57-1.33-.48-1.36-.35-1.39-.25-1.39-.16-1.41-.03-1.39.07-1.36.15-1.3.25-1.31.38-1.22.47-1.14.57-1.05.69-.99.76-.85.85,1.08.7,1.16.6,1.24.51,1.34.35,1.36.25,1.41.13,1.48v1.44l-.13,1.48-.22,1.44-.38,1.42-.48,1.39-.63,1.33-.73,1.24-.88,1.19-.76-1.22Z"/><path id="path1602" class="cls-4" d="M54.95,39.22l-.76.85-.69.99-.57,1.05-.47,1.14-.38,1.22-.25,1.31-.15,1.3-.07,1.36.03,1.39.16,1.41.25,1.39.35,1.39.48,1.36.57,1.33.7,1.31.76,1.22.88-1.19.73-1.24.63-1.33.48-1.39.38-1.42.22-1.44.13-1.48v-1.44l-.13-1.48-.25-1.41-.35-1.36-.51-1.34-.6-1.24-.7-1.16-.85-1.08Z"/></g></svg>