<?xml version="1.0" encoding="UTF-8"?><svg id="Layer_1" xmlns="http://www.w3.org/2000/svg" viewBox="0 0 114.34 66.52"><defs><style>.cls-1{fill:#f9be51;}.cls-2{fill:#fff;}</style></defs><path class="cls-2" d="M109.47,57.37c2.17-.47,1.74,2.29,2.44,3.59.96-1.28.3-4.15,2.44-3.59v5.13h-.77s-.13-3.34-.13-3.34c-.22,0-.67,2.29-.88,2.71-1.2,2.45-1.53-2.4-2.32-2.71v3.33s-.77,0-.77,0v-5.13Z"/><path class="cls-2" d="M107.42,58.39v4.1h-.77v-4.1c0-.13-2.25.43-1.79-1.03h3.97c.95,0-.07,1.63-1.41,1.03Z"/><path class="cls-2" d="M45.88,15.83c1.83-.2,2.87.62,3.08,2.43.89,7.78-.67,17.18,0,25.13-.16,1.21-.69,1.81-1.91,1.93-7.58.74-16.39-.58-24.11-.02-2.23-1.77-4.4-3.74-7.28-4.39l.02-23.11c.45-2.49,2.8-1.78,3.02-1.98.1-.09-.04-2.19,0-2.69,1.72-19.47,29.02-16.23,27.17,2.69ZM40.5,15.83c1.3-13.27-17.71-13.27-16.41,0h16.41ZM35.11,34.8c.05-1.44-1.32-4.03-1.26-5.27.03-.5.8-1.16.94-1.84.75-3.62-4.35-4.68-5.01-1.42-.39,1.92.9,2.39.94,3.26.07,1.33-1.41,3.74-1.26,5.27h5.64Z"/><path class="cls-1" d="M39.14,56.52c-.58.49-2.03.71-2.76.47-1.46-.46-1.03-2.63-2.67-2.45-1.46.16-.47,2.71-2.68,3.23-3.33.78-2.28-1.93-3.61-2.58-2.09-1.02-1.98,1.67-2.94,2.45-.52.42-1.33.31-1.8.76-.44.42-1.19,2.47-1.82,3.31-3.76,4.98-11.32,6.53-16.38,2.58-10.02-7.82-1.82-23.95,10.69-20.69,2.85.74,5.05,3.11,7,5.05,7.76.53,16.47-.72,24.12-.01,1.12.1,2.05.58,2.37,1.74.27.98.44,4.42-.06,5.21-.38.59-3.42.63-4.1.5-1.2-.23-1.59-2.35-3.33-2.05-1.03.18-1.39,1.98-2.01,2.49ZM11.25,55.37c0-1.66-1.35-3.01-3.01-3.01s-3.01,1.35-3.01,3.01,1.35,3.01,3.01,3.01,3.01-1.35,3.01-3.01Z"/><path class="cls-2" d="M96.9,48.39c.18.18-.55,5.24,1.54,3.98.77-.47.64-4.08.2-4.83-.5-.86-1.71-.55-1.76-.84-.07-.42-.06-2.96.05-3.28.3-.88,2.42.12,1.99-3.09-.11-.83-.66-1.37-1.47-.88-.45.27-.18,2.27-.29,2.27h-4.1c-.21-2.74.31-5.33,3.28-6.08,5.16-1.3,7.77,2.56,6.61,7.38-.22.91-1.42,1.78-1.42,1.91,0,.11.94.84,1.13,1.17.81,1.45.55,6.58-.31,8.11-1.67,2.95-7.26,3.04-8.82,0-.44-.87-1.29-5.82-.33-5.82h3.72Z"/><path class="cls-2" d="M58.7,35.57v20.51h-4.1v-15.38c-1.02.09-2.35,1.72-2.58-.11-.39-3.22.87-2.18,2.56-3.62.46-.39.73-1.2,1.22-1.35.79-.24,2.04.07,2.9-.05Z"/><path class="cls-2" d="M91.13,45.06c.58.18.63,2.33-.13,2.69-.56.27-5.11.22-5.35-.17-.22-.36.08-1.96-.04-2.53,1.4.27,4.34-.36,5.51,0Z"/><path class="cls-2" d="M77.61,35.38c3.16-.54,5.99.83,6.46,4.19.31,2.29.33,10.78-.04,12.99-.86,5.17-9.44,5.16-10.17-.22-.31-2.28-.33-10.79.04-12.99.32-1.92,1.75-3.64,3.72-3.97ZM78.61,39.19c-.49.16-.63.92-.69,1.38-.26,2.26-.26,8.26,0,10.52.22,1.96,1.83,1.96,2.06,0,.26-2.26.26-8.26,0-10.52-.09-.8-.4-1.69-1.38-1.38Z"/><path class="cls-2" d="M70.75,35.57v13.85c0,.05,1.03-.05,1.03,0v3.59c-.24.04-.95-.07-1.03,0-.11.11.09,2.59,0,3.08h-4.1v-3.08h-5.26c-.63,0-.37-3.28-.32-3.91l3.52-13.53h6.15ZM66.39,40.45c-.5,2.97-1.32,5.87-1.8,8.84l1.91.14c.25-3,.06-5.97.4-8.98.06-.51.05-.59-.51-.51-.02.17.03.35,0,.51Z"/><path class="cls-2" d="M96.39,8.14c-.08-.08.05-1.74-.11-2.33-.41-1.47-3.03-.65-1.69,1.96,1.25,2.45,5.1,4.49,6.47,7.63,1.27,2.91,1.18,9.5-1.76,11.42-2.17,1.42-6.72,1.13-8.51-.89-.57-.65-1.58-3.01-1.58-3.81v-4.62s.36-.38.38-.38h4.36s.38.36.38.38v4.1c0,.95,2.02,1.47,2.3,0,.97-5.1-5.61-7.52-7.04-11.92-1.08-3.33-.25-8.41,3.65-9.42,3.11-.8,6.78.26,7.88,3.53.2.58,1.05,4.35.26,4.35-.72,0-4.82.18-5,0Z"/><path class="cls-2" d="M80.24,16.86v10.51h-5.13V.58s.36-.38.38-.38h6.92c.31,0,2.16.6,2.53.81,3.52,2.02,3.56,12.23.69,14.71-1.4,1.2-3.63,1.14-5.39,1.15ZM80.24,5.32v6.41c2.04.31,2.33-1.57,2.32-3.2s-.17-3.59-2.32-3.21Z"/><path class="cls-2" d="M64.34,5.58h-4.87v4.36h4.62v5.13c-.47.12-.9.23-1.4.27-.69.05-3.22-.38-3.22.12v11.54s-.36.38-.38.38h-5V.58s.36-.38.38-.38h9.49s.38.36.38.38v5Z"/><rect class="cls-2" x="66.91" y=".19" width="5.13" height="27.18"/></svg>