<?xml version="1.0" encoding="UTF-8"?><svg id="Layer_1" xmlns="http://www.w3.org/2000/svg" viewBox="0 0 182.08 91.05"><defs><style>.cls-1{fill:#004489;}.cls-2,.cls-3{fill-rule:evenodd;}.cls-2,.cls-4{fill:#fff;}.cls-5{fill:#0b89c6;}</style></defs><rect class="cls-4" y="0" width="182.08" height="91.04"/><path class="cls-3" d="M137.24,46.21v5.01h-1.37v-5.01h-44.84v44.84h91.04v-44.84h-44.84Z"/><path id="g" class="cls-5" d="M45.51,45.52l5.54-6.02-4.94-22.94,6.91,21.65,23.54,7.31h3.08v-.68h11.38V0h-44.83s0,11.38,0,11.38h-.68v34.14ZM69.52,41.09l-1.13-.35c-1.88-9.07-9.01-16.22-18.06-18.13l-.36-1.13c9.91,1.84,17.73,9.67,19.55,19.6h0Z"/><path id="h" class="cls-1" d="M91.02,91.04v-44.84h-11.38v-.68h-34.14l6.01,5.55,22.91-4.95-21.62,6.92-7.3,23.57v3.04h.68v11.38h44.84ZM49.93,69.57l.35-1.13c9.06-1.88,16.2-9.02,18.1-18.08l1.13-.36c-1.84,9.93-9.66,17.75-19.58,19.57h0Z"/><path id="g-2" class="cls-5" d="M45.52,45.52l-5.54,6.02,4.94,22.94-6.91-21.65-23.54-7.31h-3.08v.68H0v44.83h44.83s0-11.38,0-11.38h.68v-34.14ZM21.51,49.96l1.13.35c1.88,9.07,9.01,16.22,18.06,18.13l.36,1.13c-9.91-1.84-17.73-9.67-19.55-19.6h0Z"/><path id="h-2" class="cls-1" d="M.01,0v44.84h11.38v.68h34.14l-6.01-5.55-22.91,4.95,21.62-6.92,7.3-23.57v-3.04h-.68V0H.01ZM41.1,21.48l-.35,1.13c-9.06,1.88-16.2,9.02-18.1,18.08l-1.13.36c1.84-9.93,9.66-17.75,19.58-19.57h0Z"/><path class="cls-3" d="M91.04,0v44.83h44.84v-5h1.37v5h44.84V0h-91.04Z"/><path id="i" class="cls-2" d="M152.11,18.43c-.42,0-.52-.33-.74-1.28-.44-1.93-1.11-1.93-3.61-1.93h-2.25c.02,1.02.01,2.82,0,4.73-.02,4.1-.03,9.17.15,9.98.07.32.8.58,1.17.65l.69.09c.72.09,1.04.12,1.24.43.17.26.13.53-.09.7-.13.1-.4.1-1.83.05-.76-.03-1.71-.06-2.81-.07-1.36,0-2.24.04-2.89.07-.74.04-1.13.06-1.51-.02-.14-.06-.23-.16-.27-.31-.04-.16,0-.34.12-.48.2-.24.39-.26.89-.32.23-.02.49-.05.82-.1.44-.08,1.35-.43,1.4-.68.1-.63.13-9.09.14-13.16v-1.55s-3.4.01-3.4.01c-.95,0-1.56.35-2.32,1.31-.17.26-.67.93-1.02,1.36-.2.25-.55.5-.84.38-.11-.05-.28-.18-.24-.56l1.18-4.72c.04-.18.19-.5.5-.5.35,0,.41.11.68.6l.11.21c.22.36.39.64,1.92.6l11.54.05c.05,0,.16-.03.17-.09.45-.9.72-1.41,1.06-1.41.25,0,.55.14.55.78v4.66c-.03.3-.23.48-.54.48"/><path id="j" class="cls-2" d="M118.06,32.12c-.13.15-.15.16-.17.16l-.66.06c-2.55-2.51-8.22-8.71-11.61-12.42l-2.23-2.43c0,2.27.02,11.13.09,12.71.06.29.57.38.84.43.35.05.62.08.81.1.54.06.73.08.93.32.22.27.16.54,0,.68-.15.14-.48.13-1.61.09-.47-.02-1.19-.04-1.9-.04-.63,0-1.25.03-1.75.04-1.14.04-1.35.04-1.47-.04-.09-.06-.15-.16-.17-.27-.02-.1,0-.26.14-.44.2-.24.38-.26.89-.32.23-.02.49-.05.82-.1.4-.07.86-.31.88-.45.13-.78.09-9.93.06-13.39-.04-.92-.09-1.19-.15-1.34-.29-.8-1.58-.89-2.14-.93-.14,0-.22-.02-.27-.03l-.18-.83,3.96-.24c.34.18.99.67,1.59,1.3l11.79,12.99c-.1-3.19-.41-10.39-.5-12.57-.06-.34-.59-.44-.84-.49-.4-.06-.68-.09-.85-.11-.5-.05-.69-.07-.89-.32-.22-.27-.16-.54,0-.68.15-.14.48-.13,1.62-.09.54.02,1.21.04,1.89.04.63,0,1.25-.03,1.75-.04,1.14-.04,1.35-.04,1.47.04.09.06.15.16.17.28.02.1,0,.26-.14.44-.2.24-.39.26-.89.32-.22.02-.48.05-.82.1-.49.09-.88.32-.88.4,0,.08.4,13.46.4,14.61l.04,2.4-.02.06h0Z"/><path id="k" class="cls-2" d="M126.1,22.35c.68.04,2.54.14,4.5.06l-2.26-6.04-2.24,5.99h0ZM138.43,31.44c-.02.16-.13.29-.22.35-.25.1-.69.09-1.57.06-.49-.02-1.16-.05-1.85-.04-.6,0-1.15.02-1.7.04-1.18.04-1.52.04-1.68-.06-.16-.12-.26-.4-.15-.67.12-.29.34-.31.82-.37.21-.02.46-.05.78-.1.16-.03.55-.11.63-.25-.03-.22-.71-2.08-1.66-4.67l-.72-1.92c-2.94-.16-4.93-.08-5.54-.05l-.78,2.1-.25.67-1.3,3.51c-.05.15-.05.26,0,.34.09.16.38.22.55.25.29.04.5.06.68.08.5.05.77.07.96.52.05.14.04.28-.03.39-.07.11-.18.17-.33.19-.63.06-1.23.04-1.93.02-.44-.02-1.01-.03-1.65-.03-.61,0-1.13.02-1.56.04-.96.03-1.14.03-1.26-.04-.12-.07-.25-.21-.26-.4,0-.11.02-.27.2-.42.25-.21.45-.22.92-.27.23-.02.54-.05.95-.1.32-.04,1.03-.35,1.21-.72.15-.3,1.69-4.4,3.19-8.37l.06-.17c1.35-3.58,2.88-7.64,3.28-8.64l.94-.14c.18.18,1.96,4.82,4.46,11.35,1.21,3.16,2.25,5.89,2.38,6.19.2.34.79.44,1.1.5.81.13.96.18,1.16.41.14.16.16.32.15.42"/><path id="l" class="cls-2" d="M162.61,14.18c-1.92,0-3.51.61-4.71,1.82-1.77,1.77-2.4,4.51-2.4,6.48s.68,4.87,2.58,6.77c1.18,1.18,2.65,1.78,4.36,1.78,2.48,0,4.35-.81,5.58-2.4,1.11-1.44,1.67-3.48,1.67-6.07,0-2.8-.75-4.97-2.24-6.45-1.68-1.68-3.76-1.93-4.85-1.93M171.11,28.09c-.11.17-2.78,4.18-8.53,4.18-2.95,0-5.47-.95-7.27-2.76-1.77-1.77-2.78-4.29-2.78-6.91s.91-4.85,2.56-6.58c1.88-1.97,4.62-3.01,7.9-3.01,2.78,0,5.32,1.01,7.16,2.85,1.74,1.74,2.7,4.08,2.7,6.58,0,1.53-.13,3.23-1.74,5.64"/><path id="i-2" class="cls-2" d="M135.7,64.02c-.42,0-.52-.33-.74-1.28-.44-1.93-1.11-1.93-3.61-1.93h-2.25c.02,1.02.01,2.82,0,4.73-.02,4.1-.03,9.17.15,9.98.07.32.8.58,1.17.65l.69.09c.72.09,1.04.12,1.24.43.17.26.13.53-.09.7-.13.1-.4.1-1.83.05-.76-.03-1.71-.06-2.81-.07-1.36,0-2.24.04-2.89.07-.74.04-1.13.06-1.51-.02-.14-.06-.23-.16-.27-.31-.04-.16,0-.34.12-.48.2-.24.39-.26.89-.32.23-.02.49-.05.82-.1.44-.08,1.35-.43,1.4-.68.1-.63.13-9.09.14-13.16v-1.55s-3.4.01-3.4.01c-.95,0-1.56.35-2.32,1.31-.17.26-.67.93-1.02,1.36-.2.25-.55.5-.84.38-.11-.05-.28-.18-.24-.56l1.18-4.72c.04-.18.19-.5.5-.5.35,0,.41.11.68.6l.11.21c.22.36.39.64,1.92.6l11.54.05c.05,0,.16-.03.17-.09.45-.9.72-1.41,1.06-1.41.25,0,.55.14.55.78v4.66c-.03.3-.23.48-.54.48"/><path id="j-2" class="cls-2" d="M171.5,77.72c-.13.15-.15.16-.17.16l-.66.06c-2.55-2.51-8.22-8.71-11.61-12.42l-2.23-2.43c0,2.27.02,11.13.09,12.71.06.29.57.38.84.43.35.05.62.08.81.1.54.06.73.08.93.32.22.27.16.54,0,.68-.15.14-.48.13-1.61.09-.47-.02-1.19-.04-1.9-.04-.63,0-1.25.03-1.75.04-1.14.04-1.35.04-1.47-.04-.09-.06-.15-.16-.17-.27-.02-.1,0-.26.14-.44.2-.24.38-.26.89-.32.23-.02.49-.05.82-.1.4-.07.86-.31.88-.45.13-.78.09-9.93.06-13.39-.04-.92-.09-1.19-.15-1.34-.29-.8-1.58-.89-2.14-.93-.14,0-.22-.02-.27-.03l-.18-.83,3.96-.24c.34.18.99.67,1.59,1.3l11.79,12.99c-.1-3.19-.41-10.39-.5-12.57-.06-.34-.59-.44-.84-.49-.4-.06-.68-.09-.85-.11-.5-.05-.69-.07-.89-.32-.22-.27-.16-.54,0-.68.15-.14.48-.13,1.62-.09.54.02,1.21.04,1.89.04.63,0,1.25-.03,1.75-.04,1.14-.04,1.35-.04,1.47.04.09.06.15.16.17.28.02.1,0,.26-.14.44-.2.24-.39.26-.89.32-.22.02-.48.05-.82.1-.49.09-.88.32-.88.4,0,.08.4,13.46.4,14.61l.04,2.4-.02.06h0Z"/><path id="k-2" class="cls-2" d="M140.25,67.95c.68.04,2.54.14,4.5.06l-2.26-6.04-2.24,5.99h0ZM152.58,77.03c-.02.16-.13.29-.22.35-.25.1-.69.09-1.57.06-.49-.02-1.16-.05-1.85-.04-.6,0-1.15.02-1.7.04-1.18.04-1.52.04-1.68-.06-.16-.12-.26-.4-.15-.67.12-.29.34-.31.82-.37.21-.02.46-.05.78-.1.16-.03.55-.11.63-.25-.03-.22-.71-2.08-1.66-4.67l-.72-1.92c-2.94-.16-4.93-.08-5.54-.05l-.78,2.1-.25.67-1.3,3.51c-.05.15-.05.26,0,.34.09.16.38.22.55.25.29.04.5.06.68.08.5.05.77.07.96.52.05.14.04.28-.03.39-.07.11-.18.17-.33.19-.63.06-1.23.04-1.93.02-.44-.02-1.01-.03-1.65-.03-.61,0-1.13.02-1.56.04-.96.03-1.14.03-1.26-.04-.12-.07-.25-.21-.26-.4,0-.11.02-.27.2-.42.25-.21.45-.22.92-.27.23-.02.54-.05.95-.1.32-.04,1.03-.35,1.21-.72.15-.3,1.69-4.4,3.19-8.37l.06-.17c1.35-3.58,2.88-7.64,3.28-8.64l.94-.14c.18.18,1.96,4.82,4.46,11.35,1.21,3.16,2.25,5.89,2.38,6.19.2.34.79.44,1.1.5.81.13.96.18,1.16.41.14.16.16.32.15.42"/><path id="l-2" class="cls-2" d="M109.2,59.77c-1.92,0-3.51.61-4.71,1.82-1.77,1.77-2.4,4.51-2.4,6.48s.68,4.87,2.58,6.77c1.18,1.18,2.65,1.78,4.36,1.78,2.48,0,4.35-.81,5.58-2.4,1.11-1.44,1.67-3.48,1.67-6.07,0-2.8-.75-4.97-2.24-6.45-1.68-1.68-3.76-1.93-4.85-1.93M117.7,73.69c-.11.17-2.78,4.18-8.53,4.18-2.95,0-5.47-.95-7.27-2.76-1.77-1.77-2.78-4.29-2.78-6.91s.91-4.85,2.56-6.58c1.88-1.97,4.62-3.01,7.9-3.01,2.78,0,5.32,1.01,7.16,2.85,1.74,1.74,2.7,4.08,2.7,6.58,0,1.53-.13,3.23-1.74,5.64"/></svg>